<?xml version="1.0" encoding="utf-8"?>
<!-- Generator: Adobe Illustrator 15.0.0, SVG Export Plug-In . SVG Version: 6.00 Build 0)  -->
<!DOCTYPE svg PUBLIC "-//W3C//DTD SVG 1.1//EN" "http://www.w3.org/Graphics/SVG/1.1/DTD/svg11.dtd">
<svg version="1.1" id="Layer_1" xmlns="http://www.w3.org/2000/svg" xmlns:xlink="http://www.w3.org/1999/xlink" x="0px" y="0px"
	 width="800px" height="239px" viewBox="0 0 800 239" enable-background="new 0 0 800 239" xml:space="preserve">
<g>
	<defs>
		<rect id="SVGID_1_" x="-80.472" y="-0.173" width="931" height="239.347"/>
	</defs>
	<clipPath id="SVGID_2_">
		<use xlink:href="#SVGID_1_"  overflow="visible"/>
	</clipPath>
	<rect x="0.196" y="-189.914" clip-path="url(#SVGID_2_)" fill="#D37984" width="798.832" height="396.457"/>
	<polygon clip-path="url(#SVGID_2_)" fill="#BE1E2D" points="2.533,-126.758 1.365,-17.267 323.14,162.934 	"/>
	<polygon clip-path="url(#SVGID_2_)" fill="#BE1E2D" points="428.426,165.426 481.691,-188.746 376.873,-189.914 	"/>
	<polygon clip-path="url(#SVGID_2_)" fill="#BE1E2D" points="432.553,145.334 737.353,-189.914 617.036,-191.082 	"/>
	<polygon clip-path="url(#SVGID_2_)" fill="#BE1E2D" points="134.763,-187.11 384.505,188.477 254.299,-188.823 	"/>
	<polygon clip-path="url(#SVGID_2_)" fill="#BE1E2D" points="447.972,171.967 798.95,30.704 797.938,-77.308 	"/>
	<path clip-path="url(#SVGID_2_)" fill="#393939" d="M96.293,127.111c0.935-2.57,1.869-5.217,3.193-8.956l5.374-3.348l-3.037-0.857
		c2.258-3.815,5.295-7.787,7.164-12.227c2.181-4.983,1.869-11.369,8.956-12.927c0.39-0.078,0.701-1.012,0.857-1.635
		c4.361-12.849,10.824-25.153,10.357-39.249c0-1.869-0.467-3.816-1.324-5.451c-3.894-6.074-8.099-11.993-12.226-17.911l1.246-1.479
		l6.697,3.115c-0.779-5.841-1.558-11.604-2.336-17.366l2.726-0.467l3.971,15.264l1.09-0.156V4.46l2.181-0.078l0.935,12.226
		l0.778,0.156c0.467-2.959,0.857-5.918,1.324-8.878l2.258-0.078c0.389,6.308,0.701,12.616,1.09,18.923l1.869,0.078
		c0.779-4.127,1.558-8.333,2.414-12.46h1.558v29.826c6.152-6.853,12.693-10.98,12.382-20.248c-0.312-8.488,4.75-15.185,9.89-21.415
		c0.856-1.09,3.66-1.713,4.828-1.09c1.558,1.012,2.492,2.726,2.57,4.517c-0.389,5.374-1.402,10.747-2.258,16.665
		c4.984,1.324,3.816,6.697,2.648,9.89c-1.402,3.582-5.529,6.074-8.722,9.267c0.779,1.402,2.258,2.959,2.492,4.672
		c0.312,2.181-0.078,4.361-1.09,6.308c-1.324,2.181-3.504,3.894-5.529,5.529c-3.816,3.115-5.997,6.697-5.218,11.837
		c0.156,1.246-0.545,2.726-1.012,4.595c14.095,4.205,22.194,13.161,20.403,29.28c2.804-11.603,5.607-23.207,8.488-34.731
		c0.312-1.324,1.246-3.115,2.414-3.583c10.279-3.738,11.37-13.161,13.161-21.727c1.635-8.254,1.947-16.82,2.881-25.231
		c0.078-0.935,1.012-1.791,2.103-3.504c0.234,3.738,0.39,6.464,0.545,9.345h12.771c1.09-5.062,2.259-10.668,3.427-16.197
		l1.168,0.078v27.49c5.062,1.401,8.177-8.099,15.03-2.025c-12.538,2.803-11.525,13.55-14.485,22.038l5.763-5.14l1.869,0.545
		c-7.787,7.398-4.672,13.861,0.233,20.403c0.935,1.246,0.234,3.66,0.545,5.529c0.312,1.479,0.701,3.738,1.713,4.049
		c4.672,1.713,4.205,4.595,3.894,8.722c-0.467,6.464,0.779,13.005,0.935,19.546c0.156,7.088-0.467,14.174-0.078,21.26
		c0.078,1.402,2.726,3.504,4.439,3.816c3.426,0.623,7.009,0.154,12.226,0.154c0.156-0.777,1.713-3.426,1.324-5.762
		c-1.246-7.008-1.246-13.395,1.246-20.403c2.258-6.152,1.324-13.395,3.271-19.702c1.168-3.738,4.595-7.476,7.943-9.734
		c3.349-2.258,7.943-2.726,12.071-3.349c7.32-1.168,9.111-4.595,5.373-11.058c-0.856-1.324-1.401-2.804-1.401-4.361l5.451,4.594
		l1.168-0.701c-1.324-3.037-2.726-6.074-4.672-10.513c2.336-0.156,4.75-1.012,6.542-0.233c1.869,0.935,3.271,2.57,3.894,4.594
		c2.024,7.165,4.906,14.173-0.156,21.805c-1.479,2.258,1.947,6.074,6.463,6.152c0,2.336,0.156,4.595,0.545,6.931
		c0.233,1.324,1.246,3.037,2.337,3.504c13.705,5.062,13.705,5.062,18.689,14.407c-0.468-10.513,2.804-20.714-3.505-30.215
		c-1.713-2.648-1.401-6.62-2.336-9.89c-3.504-12.148-14.095-17.678-23.284-24.375c-1.869-1.402-4.984-1.09-7.476-1.558l-0.312-1.791
		l12.849-1.791c-1.012-9.034-6.853-17.989-7.398-27.879l2.492-0.779c2.803,6.386,5.607,12.693,8.411,19.001l13.16-0.701
		c0.623-4.75,1.168-9.267,1.791-14.407c1.636,1.09,2.259,1.246,2.259,1.479c1.946,11.681,3.271,23.44,5.996,34.888
		c1.246,5.295,4.205,11.292,8.333,14.407c6.386,4.828,7.942,12.07,11.992,17.989c0.856,1.558,2.259,2.726,3.894,3.349
		c0.623-5.529,2.726-11.447,1.479-16.509c-1.168-4.828-5.918-8.8-9.5-13.706l4.75-8.099c-7.554-3.426-11.992-8.644-8.878-17.521
		h2.804c-1.168-5.607-2.492-11.058-3.115-16.587c-0.233-1.791,1.324-4.984,2.648-5.373c1.713-0.467,4.594,0.778,5.918,2.258
		c5.373,6.152,8.722,13.238,9.268,21.727c0.233,3.504,2.258,7.398,4.594,10.046c4.828,5.607,10.436,10.513,16.821,16.743
		c0.856-8.566,0.312-16.743,2.804-23.907c2.491-7.165,8.021-13.394,13.16-19.546c-1.09,3.115-2.103,6.23-3.738,11.058
		c6.152-5.373,5.841-14.796,15.42-14.562c-1.324,3.816-2.648,7.709-4.05,11.525l0.778,0.545l6.854-7.788l1.791,1.168
		c-3.037,4.829-6.074,9.734-9.268,14.874l9.034-1.635c-4.361,3.816-7.009,6.697-10.124,8.8c-9.89,6.775-9.968,6.619-9.656,18.689
		c7.943,6.308,13.628,13.939,14.952,22.583l13.472,11.136l5.918-2.258l1.169,1.324c-0.779,1.012-1.324,2.414-2.337,3.037
		c-7.164,4.517-8.644,10.279-8.021,18.612c0.778,11.448,7.709,19.78,12.537,29.747c3.895-1.557,5.451-3.736,3.037-8.176
		c-6.774-12.305-6.619-25.542-3.271-38.392c1.636-6.152,6.308-12.148,14.562-12.538c3.816-0.156,6.619-2.959,11.136-3.115
		c11.292-0.545,14.562,7.631,19.235,14.095c3.504,4.75,5.218,10.824,8.255,17.521c2.336-5.217,5.763-9.734,6.386-14.718
		c1.946-16.198,2.881-32.551,4.049-48.827c0.156-2.103-0.312-4.283-1.401-6.074c-3.349-5.217-7.087-10.124-10.747-15.107
		l1.091-1.479l5.451,1.947c-0.468-4.75-0.935-9.579-1.324-14.407l2.024-0.312l3.66,13.239l0.779-0.234V11.78l1.791-0.156
		l1.713,11.525h0.545c0.312-2.648,0.546-5.374,0.857-8.021l1.557-0.078l1.246,16.899l1.558-0.078l2.414-11.37
		c0.156,35.511,4.283,71.255-8.332,105.754c5.062-2.26,9.345-3.973,13.316-6.152c1.168-0.624,2.103-2.649,2.336-4.127
		c1.869-16.198,3.427-32.396,5.373-48.516c1.169-9.422,3.505-18.768,4.206-28.19c1.245-16.276,1.791-32.629,2.024-48.983
		c0-2.492-2.726-6.152-5.218-7.476c-9.033-4.75-13.005-12.07-11.915-22.661l6.697,9.734c1.479-4.283,1.791-9.423,4.517-11.837
		s7.788-1.869,10.046-2.259c3.66,3.271,7.476,5.14,8.333,7.866c2.18,7.086,3.972,14.64,4.283,22.038
		c0.467,11.292-0.857,22.662-0.623,33.953c0.233,9.734,1.713,19.469,2.647,29.125c10.279,2.258,12.382,0.701,13.005-9.189
		c0.233-1.947,0.623-3.816,1.09-5.685c1.869-8.566,3.738-17.054,6.464-26.244c0.701,4.205,1.401,8.488,2.181,13.239l13.005,1.168
		l8.8-19.079l2.804,1.324c-2.726,9.111-5.529,18.223-8.411,27.801c4.595,0.779,10.124-2.414,13.473,3.271
		c-10.513,0-30.838,15.108-31.306,27.412c-0.39,11.604,3.582,23.362,5.529,35.043c1.168,7.321,6.308,14.018,4.517,20.792
		c2.647,1.48,5.685,2.648,7.865,4.673c5.062,4.75,8.722,3.037,11.992-6.387c-11.136-1.868-8.565-12.537-11.836-19.39
		c-2.57-5.295-3.816-12.538-2.414-18.067c1.168-4.517,6.774-8.488,11.291-11.447c4.205-2.726,9.579-3.816,14.641-0.779
		c0.39,0.234,0.701,0.623,1.09,0.701c12.071,0.467,15.73,7.009,16.51,18.612c0.778,11.603,7.242,22.739,3.738,34.966
		c-0.156,0.545,0.312,1.244,0.545,1.789c0.545,1.17,1.168,2.26,1.946,3.895l5.218-3.348c-5.451-15.576-4.672-32.085-7.164-47.971
		c-3.037-19.624,3.815-36.523,9.267-53.889c4.128-13.161,9.345-26.166,21.415-34.966c4.128-2.959,6.775-4.361,10.357-0.078
		c0.935,1.168,2.181,2.18,3.193,3.271c7.086,7.243,7.009,8.099-1.947,12.849c-5.062,2.726-7.632,6.152-4.595,11.682h12.46
		c0.156-2.648,0.39-5.529,0.545-8.488l1.48-0.078c0.233,2.414,0.467,4.828,0.856,7.165c1.791,12.538,1.323,25.698,8.955,36.834
		c0.935,1.401,1.869,4.049,2.882,4.127c6.697,0.234,6.151,5.218,7.164,9.579c1.246,5.218,2.726,10.435,4.595,15.497
		c3.192,8.956,4.438,9.579,13.472,8.177c1.48-0.234,3.037-0.39,4.906-0.701c-0.312-3.427-0.623-7.243-0.935-10.903
		c1.246-0.623,3.427-1.246,3.505-1.947c0.389-6.23,0.389-12.46,0.467-18.612c0-4.049-0.623-8.177-0.078-12.148
		c0.701-4.594,4.283-5.685,8.178-3.193c1.245,0.779,2.881,1.013,4.049,1.947c2.647,2.103,5.685,3.815,3.894,8.488
		c-1.946,5.14-2.881,10.824-4.36,16.665c1.401,0.155,3.271,1.09,4.127,0.467c5.841-3.815,12.46-2.336,18.066-1.401
		c4.751,0.779,10.592,4.672,12.85,8.8c7.087,13.161,8.021,27.256,2.024,41.429c-2.569,6.075-1.012,9.813,4.828,13.004
		c0.546,0.234,1.013,0.701,1.169,1.246c1.635,8.645,8.332,9.656,15.886,9.812c-1.713-8.955-5.14-18.223-4.828-27.333
		c0.312-9.111,4.361-18.145,8.333-26.944v120.627H-0.816v-6.932c0-37.379-0.389-74.838,0.156-112.216
		c0.233-17.366,2.414-34.732,3.738-52.098c0-0.856,0.156-1.713,0.467-2.57c4.75-7.476,9.89-14.718,15.419-21.649l-4.127,12.382
		c6.386-4.517,5.918-15.653,17.21-15.497c-1.558,4.517-3.193,9.111-5.373,15.341l9.89-10.98l2.258,1.635L27.375,31.171l8.254-1.869
		l0.779,1.479c-5.062,3.66-9.812,7.788-15.263,10.825c-4.439,2.492-6.463,5.529-6.152,10.357c0.389,8.254,0.779,16.587,1.324,24.842
		c0.078,0.934,0.389,2.414,1.09,2.726c11.993,6.308,12.459,18.3,14.64,29.436c0.935,4.596,1.869,9.189,2.804,13.784
		c5.996-2.336,11.37-4.283,16.509-6.619c1.324-0.623,2.492-2.569,2.881-4.128c1.557-6.463,2.803-13.082,4.205-19.624
		c2.492-11.292,4.984-22.583,7.398-33.875c0.233-1.012,0.701-2.492,0.233-3.115c-4.438-6.308-0.934-12.304-0.233-18.69
		c0.623-5.062-2.025-10.435-3.115-15.73c-0.545-2.881-2.648-5.607,1.324-8.488c2.881-2.181-1.558-10.124-4.984-11.759
		C52.995-2.237,47.31-6.209,41.547-9.791c-0.545-0.312-1.246-1.324-1.09-1.479c3.192-4.283,6.074-8.878,9.968-12.382
		c1.246-1.168,5.996-0.389,7.709,1.09C67.168-14.619,74.8-6.287,77.292,6.641c2.57,13.238,9.501,25.698,12.46,38.937
		c1.791,8.177-0.156,17.21-0.623,25.776c-0.389,7.398-1.012,14.796-1.401,22.194c-0.078,0.623,0.078,1.246,0.545,1.791
		c9.968,8.722,5.374,21.182,8.254,31.772c-0.467,1.713-1.324,3.504-1.168,5.295c0.156,3.66,0.857,7.242,1.402,11.059l11.915-3.504
		C102.445,136.145,95.904,134.432,96.293,127.111z M652.392,31.249c-2.726,6.775-4.205,14.251-0.935,22.039
		c0.545,1.324,1.324,3.504,0.701,4.283c-4.751,6.386-1.013,12.382,0.155,18.612c2.336,12.771,4.439,25.542,6.619,38.392l2.337,1.168
		c2.959-3.115,5.918-6.308,8.955-9.422c0.935-1.091,2.103-2.025,3.427-2.57c4.983-1.791,7.242-5.295,6.619-10.357
		c-0.701-5.996-1.401-12.07-2.959-17.833C672.795,58.738,672.639,39.503,652.392,31.249z M215.129,51.807l-2.959-0.545
		c-3.193,11.915-6.463,23.751-9.812,36.211c5.373-0.389,9.111-1.012,12.849-0.935c6.931,0.156,7.165,0.156,5.14-7.242
		c-0.623-2.414-1.947-4.672-2.959-7.009c-1.558-3.738-3.894-7.398-4.517-11.292C212.403,58.115,214.272,54.922,215.129,51.807z
		 M659.011,28.134c-0.312-6.853-0.623-12.226-0.856-17.522l-2.103-1.09c-1.402,1.713-3.271,3.193-4.205,5.14
		C649.121,20.424,652.547,23.851,659.011,28.134z M728.786,147.982l15.574-11.447l-7.32-2.961L728.786,147.982z M403.662,103.906
		l-3.738,0.545l1.636,11.213l2.103-0.311V103.906z"/>
	<rect x="-0.583" y="204.986" clip-path="url(#SVGID_2_)" fill="#393939" width="800.156" height="185.885"/>
	<g clip-path="url(#SVGID_2_)">
		<path fill="#FFFFFF" d="M316.345,168.195c2.826,0.414,4.24,0.9,4.24,1.461l0.548-0.182c1.998,0.926,3.411,2.338,4.239,4.238
			l1.133,1.645c0.366,0,0.549,0.195,0.549,0.586c2.071,3.24,3.106,6.615,3.106,10.123c0.463,1.316,0.84,3.35,1.133,6.104
			l2.375,2.596c-1.852,2.533-2.777,4.057-2.777,4.568h-0.183l-0.183-0.184v2.412l0.183,0.73c-1.145,7.238-2.132,10.855-2.96,10.855
			l0.183,0.184v0.547c-0.341,1.854-1.937,4.436-4.788,7.748c-1.047,1.172-3.618,2.156-7.711,2.961l-0.585-0.219l-2.193,0.219
			c-0.877,0-3.082-0.865-6.615-2.594h-0.183c0,0.316-0.926,0.633-2.777,0.949c-3.387,0-5.97-1.668-7.749-5.006h0.183
			c1.657,1.363,3.07,2.047,4.24,2.047h0.183c1.219,0,1.828-1.426,1.828-4.277l0.183-1.242l-0.183-1.645l0.183-0.184v-0.182
			l-0.512-2.23l0.512-3.326l-0.183-1.133v-1.242l0.183-0.768l-0.329-2.193l0.146-0.768l-0.146-0.182v-0.184l0.146-0.182v-0.146
			l-0.146-0.951l0.329-0.914c-1.243-1.266-2.217-2.424-2.924-3.471v-0.219c1.949-1.926,2.924-3.34,2.924-4.24h-0.329v-0.219
			l0.329-0.512l-0.329-1.098l1.462-1.279v-0.182h-0.183l-0.768,0.51h-0.365l-0.146-0.912v-0.184l0.146-0.73l-0.146-0.584h0.146
			l-0.146-0.512l0.146-2.559l-0.146-1.133l0.329-2.412l-0.329-1.316l0.329-1.061l-0.183-0.949l0.183-0.184v-0.182
			c-0.292-1.463-0.84-2.193-1.645-2.193h-1.461c-0.536,0-1.279,0.5-2.229,1.498h-0.146v-0.182c1.852-2.973,3.509-4.459,4.971-4.459
			c1.9,0,3.436,0.498,4.605,1.498c0.779-0.756,1.571-1.193,2.375-1.316l0.585,0.184v-0.184c0-0.316,0.67-0.549,2.01-0.693
			c0.463-0.391,0.95-0.586,1.462-0.586h0.183l0.366,0.365l1.133-0.365l0.183,0.184h0.183L316.345,168.195z M299.935,171.703v0.184
			h0.731v-0.184H299.935z M300.666,171.154v0.367h0.219l0.365-0.367H300.666z M303.626,204.707v0.182
			c0.049,0.244,0.354,0.475,0.914,0.695v-0.33L303.626,204.707z M304.211,205.949v0.219l0.512,0.184v-0.402H304.211z
			 M305.271,205.766l0.366,0.586l-0.548,0.184v0.182h0.183l1.133-0.365C306.403,206.082,306.026,205.889,305.271,205.766z
			 M305.271,210.225v0.184l0.366-0.365v-0.184L305.271,210.225z M305.636,209.092v0.219h0.219l0.548-0.219v-0.182h-0.182
			L305.636,209.092z M306.586,208.727h0.329l0.365-0.365h-0.365L306.586,208.727z M306.769,185.117v0.219h0.146
			c0.414-0.365,0.792-0.549,1.133-0.549v-0.365C307.195,184.643,306.769,184.873,306.769,185.117z M306.916,206.535v0.182h0.365
			v0.182l-0.183,0.184v0.182h0.584v-0.365l0.731,0.184h0.366v-0.184l-1.681-0.363H306.916z M308.231,207.85v0.146h0.182l0.183-0.732
			C308.353,207.264,308.231,207.459,308.231,207.85z M309.876,203.939l-0.183,0.949h0.366v-0.365c0.39,0,0.584-0.135,0.584-0.402
			l-0.219-0.182H309.876z M310.826,182.924v0.768h0.183v-0.768H310.826z M310.826,207.996v0.365h0.73v-0.184L310.826,207.996z
			 M311.191,222.943l-0.365,0.695h0.365l0.183-0.512v-0.184H311.191z M311.74,174.48l0.219,2.193l-0.402,0.402l0.183,0.109v2.084
			l0.219,1.279h-0.219l0.219,0.182v0.184c0,0.535-0.317,1.145-0.95,1.826h0.548v0.549l-0.182,0.182l0.182,0.221v4.203l-0.182,0.768
			l0.365,1.645l-0.183,0.73l3.29,3.729v0.182c-0.024,0.244-0.572,0.793-1.645,1.645c0,0.609-0.609,1.342-1.827,2.193
			c0.39,0,0.584,0.123,0.584,0.365l-0.219,1.828l0.219,1.717l-0.402,0.695l0.183,1.133l-0.183,0.184l0.402,0.365l-0.219,3.105
			l0.219,0.549l-0.219,0.951l0.219,1.059l-0.402,3.729l0.183,0.184v0.182l-0.183,0.549l0.183,0.877l-0.183,0.184l0.402,0.4
			l-0.219,0.914c0,0.488,0.366,0.791,1.096,0.914l0.183-0.184h0.183l0.768,0.184c2.558-0.268,3.837-0.756,3.837-1.463
			c0.658,0,1.328-1.777,2.01-5.336H320l-0.183-1.826l0.183-0.951l-0.183-0.914c0.097-1.559,0.292-2.484,0.585-2.777v-0.146
			c-0.39,0-0.585-0.121-0.585-0.365l0.183-4.971c0-1.193-0.353-2.119-1.06-2.777l0.183-0.184v-0.365
			c-0.512,0-0.768-0.316-0.768-0.949l-0.183,0.184h-0.183l-0.95-0.879v-0.182c1.194-1.195,2.253-2.559,3.179-4.094h0.183
			c-0.39-1.51-0.585-2.924-0.585-4.24H320l-0.183-0.182v-6.287c0-2.582-0.731-4.238-2.193-4.971c-0.633-0.316-1.73-0.547-3.29-0.693
			l-0.768,0.182l-0.182-0.182v-0.184L311.74,174.48z M321.315,176.857v0.219h0.402l0.512-0.219v-0.184H321.9L321.315,176.857z
			 M322.229,211.139l0.548,0.549h0.183v-0.367L322.229,211.139z M322.96,175.76v0.365l0.768-0.365v-0.182h-0.183L322.96,175.76z
			 M323.728,211.869v0.184l0.914,0.182c0-0.242-0.183-0.365-0.548-0.365H323.728z M326.871,213.002v0.33h0.694v-0.184
			L326.871,213.002z"/>
		<path fill="#FFFFFF" d="M339.845,171.775c0.536,0,1.291,0.451,2.266,1.354c0.633-0.805,1.23-1.207,1.791-1.207
			c3.265,0,5.373,1.256,6.323,3.766l-2.12-0.586c-1.389,0.123-2.083,0.525-2.083,1.207l0.146,3.91v0.877l-0.146,1.207l0.146,1.205
			l-0.146,1.061l0.146,1.354v3.471l2.412,2.996v0.293c-0.707,0.998-1.267,1.498-1.681,1.498l0.183,0.184v0.146
			c-0.609,0.535-0.962,1.23-1.061,2.082l0.146,2.852v2.559h-0.292v1.389l0.146,0.877l-0.146,0.146v0.146l0.292,1.826l-0.146,3.473
			l0.146,0.439l-0.146,0.584c1.048,1.219,1.742,1.828,2.083,1.828c0.585,0,1.243-0.256,1.974-0.768h0.146
			c0,1.145-1.109,2.047-3.326,2.705l-0.146-0.146h-0.146c-0.877,0.705-1.571,1.059-2.083,1.059c-1.048,0-1.901-0.402-2.559-1.205
			c0,0.438-0.853,0.693-2.558,0.768c-2.461-0.439-4.167-1.195-5.117-2.266l-0.768-0.914l0.146-0.146l1.828,0.914
			c1.583-0.488,2.375-1.242,2.375-2.268l-0.146-0.145v-0.914l0.329-0.439l-0.329-1.205l0.146-0.146l-0.146-1.828v-0.293
			c0-3.068,0.109-5.178,0.329-6.322l-0.329-0.877l0.146-0.914l-0.146-1.498v-0.475l-2.229-2.852c1.583-1.973,2.375-3.277,2.375-3.91
			l0.183-2.703l-0.329-1.354v-0.439l0.475-4.092c-0.341,0-0.548-0.951-0.621-2.852l0.146-0.439c0-0.9-0.743-1.51-2.229-1.826h-0.183
			c-0.609,0-1.157,0.256-1.645,0.768v-0.293c0.926-1.633,2.583-2.838,4.971-3.619H339.845z M338.639,175.98
			c0,0.219,0.146,0.328,0.438,0.328h0.146v-0.184L338.639,175.98z M338.639,195.861v0.146h0.292l0.475-0.621v-0.146l-0.622,0.621
			H338.639z M339.407,194.947v0.146h0.292l0.439-0.584v-0.146c-0.146,0-0.292,0.195-0.439,0.584H339.407z M340.43,196.154v0.146
			h0.622v-0.293L340.43,196.154z M340.759,193.156l-0.146,0.439h0.292v-0.439H340.759z M341.49,191.951l-0.292,0.584v0.293h0.146
			l0.292-0.73v-0.146H341.49z M341.344,175.688v0.146l1.06-0.146v-0.146h-0.622L341.344,175.688z M342.111,207.887v0.145
			l0.584,0.146c0-0.193-0.146-0.291-0.438-0.291H342.111z M342.404,206.826v0.293h0.438v-0.146L342.404,206.826z M342.696,190.123
			l-0.146,0.475h0.292v-0.475H342.696z M342.696,175.395l0.292,0.293h0.146v-0.293H342.696z M342.988,189.539l-0.146,0.438h0.292
			l0.183-0.438H342.988z M343.317,207.301v0.146l0.585,0.146h0.146v-0.146l-0.584-0.146H343.317z M343.463,188.771v0.146
			l0.292-0.293v-0.146L343.463,188.771z M343.609,175.102v0.293l0.585-0.146v-0.146H343.609z M343.609,193.889v0.146l0.438-0.439
			h-0.146L343.609,193.889z M343.609,208.652v0.293l0.585,0.146L343.609,208.652z M344.194,187.418l-0.146,0.477v0.146h0.146
			l0.329-0.623H344.194z M344.523,186.506v0.328l0.438-0.146v-0.328L344.523,186.506z M344.523,207.74v0.291h0.731l0.146,0.146
			h0.146v-0.291h-0.731l-0.146-0.146H344.523z"/>
		<path fill="#FFFFFF" d="M363.784,171.631h1.864c0.73,0.291,1.401,0.438,2.01,0.438c0,0.293,0.427,0.477,1.279,0.549l2.156,1.607
			c1.169-0.852,1.938-1.619,2.303-2.303h0.146v1.572l0.146,0.146v0.146c-0.146,0-0.292,0.193-0.438,0.584
			c0.292,0,0.438,0.086,0.438,0.256v0.439l-0.146,0.146l0.146,0.145v0.146l-0.146,0.146l0.146,0.146v0.73l-0.146,0.842l0.146,0.145
			v0.146l-0.146,0.439l0.146,0.438l-0.292,0.256l0.292,0.293l-0.146,0.73l0.146,0.439l-0.292,0.547l0.292,0.293l-0.146,0.146
			l0.146,0.146v0.146l-0.146,2.74v0.146l-0.146,0.146v0.109l0.292,0.293v0.73l-0.438,0.584l0.438,0.695v0.293l-0.292,0.291h-3.875
			l-0.146-0.146l-0.146,0.146h-0.694l-0.146-0.146h-0.146l-0.146,0.146l-0.146-0.438l0.146-2.303l-0.146-0.146v-0.109l0.292-0.877
			l-0.292-0.293v-0.584h0.292v-0.146l-0.292-0.402v-0.146l0.292-0.291c0-2.121-0.621-3.607-1.864-4.459
			c0-0.244-0.865-0.488-2.595-0.732v-0.109l-0.731,0.256v-0.146c-1.243,0.975-1.864,2.363-1.864,4.166l-0.256,0.293v0.293
			l0.109,1.023l-0.109,0.146l0.256,0.256v1.607h-0.256l0.109,0.695v0.438l-0.109,0.877l0.256,0.842l-0.146,0.145l0.146,0.146v0.293
			l-0.256,1.279l0.109,0.584h-0.109l0.256,1.135v0.584l-0.146,0.584c0,0.244,0.816,1.244,2.449,2.998
			c-0.365,0.633-1.035,1.352-2.01,2.156l-0.548,2.156v0.73l0.109,0.549l-0.109,0.584l0.256,0.584l-0.256,1.135l0.256,1.023
			l-0.256,0.291l-0.731-0.291h-0.146v0.145c0.658,0.074,0.986,0.305,0.986,0.695l-0.109,0.877l0.256,1.133l-0.146,0.146v0.146
			c0.609,2.484,1.523,3.729,2.741,3.729h0.877c2.388-1,3.582-2.426,3.582-4.275l0.146-0.148l0.402,0.148h0.438v-0.148
			c-0.755,0-1.133-0.389-1.133-1.168l0.146-0.146l-0.146-0.842l0.146-1.717l-0.146-0.877l0.146-0.146h0.292l0.256,0.291l0.438-0.145
			l4.167-0.146v0.438h-0.146l0.292,2.449v1.719l-0.292,0.439l0.292,0.4l-0.146,0.73v0.439h-0.439v-0.293h-0.256
			c0,0.293,0.183,0.439,0.549,0.439l0.146,0.146v0.145c-0.707,2.096-1.949,3.668-3.728,4.717c-1.194,1.533-3.302,2.301-6.323,2.301
			c-0.707,0-2.181-0.719-4.422-2.156c-1.292-1.51-2.302-2.85-3.034-4.02v-0.293l0.146-0.439h-0.146c-0.194,0-0.621-0.949-1.279-2.85
			l0.146-0.146l-0.731-0.877l-0.731-2.998l-0.256-1.717l0.11-0.146v-0.145c0-1.414-0.853-2.803-2.559-4.168l-0.438-0.584l2.01-2.412
			l0.438-2.449l-0.146-0.146c0.097-1.145,0.243-1.814,0.438-2.01l-0.146-0.586l0.292-0.584l-0.146-0.402
			c0.877-4.094,1.681-6.639,2.412-7.639c0.073-0.561,0.268-0.84,0.584-0.84v-0.293c0-0.707,0.341-1.279,1.023-1.717
			c0.269-1.098,1.218-2.01,2.851-2.742c0.098-0.316,0.622-0.596,1.572-0.84C361.335,171.873,362.152,171.631,363.784,171.631z
			 M354.903,204.779v0.439l0.548-0.293l-0.146-0.146v-0.146L354.903,204.779z M356.475,203.646c-0.195,0.438-0.39,0.682-0.585,0.73
			v-0.146l-0.438,0.146v0.256l0.146-0.109h0.292l0.146,0.109h0.146c0-0.365,0.244-0.596,0.731-0.693v-0.146L356.475,203.646z
			 M356.767,177.66h0.255v-0.291c0.293,0,0.439-0.098,0.439-0.293h-0.146L356.767,177.66z M358.338,202.221
			c0,0.244-0.292,0.475-0.877,0.695v0.291l1.023-0.84v-0.146H358.338z M358.338,175.65l-0.146,0.146v0.146h0.146l0.439-0.146v-0.146
			H358.338z M358.631,203.061l-0.146,0.439h0.986v-0.146l-0.548-0.293H358.631z M360.057,203.207l-0.146,0.146v0.146l0.731,0.293
			h0.146v-0.146L360.057,203.207z M364.369,175.943l-0.146,0.146v0.145h0.438L364.369,175.943z M364.917,175.504l-0.109,0.146v0.293
			h0.109l0.146-0.439H364.917z M364.917,175.066v0.146h0.585v-0.146H364.917z M366.671,173.641v0.438h0.146l0.109-0.438H366.671z
			 M367.951,173.641v0.146h0.146c0-0.293,0.146-0.439,0.438-0.439l0.146-0.438h-0.146
			C368.341,172.959,368.146,173.201,367.951,173.641z M368.097,177.514v0.146l0.694,0.293v-0.293l-0.548-0.146H368.097z
			 M369.084,179.379v0.293h0.438v-0.146L369.084,179.379z M369.669,206.24v0.146h0.438v-0.291L369.669,206.24z M369.961,179.232
			l0.585,0.877v0.146h0.255l-0.109-0.146v-0.146l0.109-0.146v-0.145C370.558,179.672,370.278,179.525,369.961,179.232z
			 M370.253,206.789v0.146l0.439,0.146v-0.293H370.253z M370.801,206.936v0.293h0.731v-0.146L370.801,206.936z M370.948,180.402
			v0.256h0.292c0,0.293,0.146,0.438,0.438,0.438v0.293h0.292l-0.731-0.986H370.948z M372.812,181.68v0.586h0.292
			c0.194,0,0.292-0.146,0.292-0.438v-0.148h-0.146v0.293h-0.293v-0.293H372.812z"/>
		<path fill="#FFFFFF" d="M398.505,171.41h0.146c0,0.195,0.146,0.293,0.438,0.293l0.146,4.021c0,0.705-0.292,1.279-0.877,1.717
			l0.146-0.146h0.146l0.146,0.146h0.146v-0.438l0.292,0.291l-0.146,1.17l0.146,3.582v2.449c0,0.779-0.194,1.168-0.584,1.168
			l-1.133-0.146l-0.585,0.146l-1.134-0.146l-1.169,0.146l-0.146-1.316l0.146-1.717l-0.146-0.584l0.438-0.842
			c-0.292-0.098-0.438-0.389-0.438-0.877l0.146-1.023c0-0.877-1.108-1.777-3.325-2.703l-0.842-0.146
			c-1.973,0-3.216,0.377-3.727,1.133h-0.146c-0.195,3.85-0.391,6.006-0.585,6.469c0.219,0,0.365,0.342,0.438,1.023l-0.293,1.57
			l0.293,0.293l-0.146,0.146l0.146,0.146v0.146l-0.146,0.84c0,1.17,0.328,1.754,0.986,1.754l1.17-0.438l1.572,0.293
			c0.852-0.244,1.279-1.012,1.279-2.305c0-0.559-0.33-1.096-0.987-1.605v-0.258h0.146c1.926,0.512,2.888,1.365,2.888,2.559
			l0.146,0.586v0.145c0,1.316-0.292,2.279-0.878,2.889c0,0.463,0.195,0.693,0.586,0.693l0.401,1.9
			c-0.463,1.998-1.462,2.998-2.997,2.998l-0.73,0.146v-0.146c0.877-0.902,1.316-1.621,1.316-2.156c0-0.244-0.537-0.439-1.609-0.586
			h-0.438l-0.988,0.146l-0.146-0.146v-0.109c-1.243,0.074-1.864,0.354-1.864,0.842l0.293,0.584l-0.146,2.998l0.146,0.145v0.146
			l-0.293,1.17v0.439h0.293v0.84l-0.293,0.877l0.146,0.146v0.146l-0.146,0.986l0.146,1.607h-0.146l0.439,1.279l-0.293,0.293
			l0.146,0.438l-0.146,0.146v0.146l0.293,0.695l-0.293,0.291c0.365,0.439,0.549,0.914,0.549,1.426l2.046,0.586
			c1.682,0,3.545-0.865,5.592-2.596l0.146-1.572l-0.146-0.145v-0.146l0.146-1.719l-0.146-0.146v-0.146l0.293-0.875l-0.293-1.135
			l0.293-0.291l-0.293-0.439v-0.402l0.146-0.146v-0.145l1.571,0.291l0.439-0.291l1.461,0.145h0.841l0.146,0.146h0.146l-0.292,0.842
			v0.146l0.292,1.168v0.402l-0.292,1.17l0.292,0.84v0.439c-0.194,0.389-0.486,0.584-0.877,0.584v0.293l0.73-0.439l0.146,1.023v0.549
			c-0.049,1.047-1.633,2.924-4.751,5.629c-2.388,1.145-3.923,1.717-4.604,1.717l-0.146-0.146l-0.694,0.146h-0.585
			c-2.461,0-4.435-0.719-5.921-2.156c-0.707,0.682-1.23,1.023-1.571,1.023h-0.731c-1.389,0-3.009-0.768-4.861-2.303l-0.292-0.291
			l-0.438-0.586l0.146-0.146c0.902,0.586,1.523,0.877,1.864,0.877h0.731c0.853-0.389,1.279-1.021,1.279-1.898l-0.146-0.549
			l0.292-0.293l-0.292-0.73l0.146-0.988l-0.146-1.168l0.292-0.293l-0.438-0.439l0.146-1.863l-0.146-0.402l0.146-1.314v-0.586
			l0.146-0.146l-0.292-0.547l0.146-2.303v-0.586l-0.146-0.877l0.292-0.547c-0.195,0-0.292-0.146-0.292-0.439l0.146-1.023
			l-0.292-0.293h0.292v-0.109c-0.536,0-1.011-0.535-1.425-1.607l0.292-0.293l-0.146-0.146h-1.023v-0.146l2.156-2.703v-1.463
			l0.146-0.84l-0.146-0.439l0.292-1.717c-0.195,0-0.292-0.146-0.292-0.439l0.146-2.01l-0.146-0.146v-0.146l0.292-1.133l-0.292-0.584
			l0.146-1.023c-0.073-2.582-0.17-3.875-0.292-3.875l-2.302-0.73l-1.426,1.023h-0.146v-0.146c0-1.217,1.438-2.461,4.313-3.729h1.315
			c0.829,0,1.596,0.428,2.302,1.279c2.12-1.242,3.558-1.863,4.313-1.863l2.01,0.146l1.571-0.293c0,0.244,0.622,0.391,1.864,0.439
			l4.02,1.717C396.593,173.713,397.408,172.945,398.505,171.41z M379.098,191.695l-0.146,0.146v0.146h0.146l0.439-0.146v-0.146
			H379.098z M379.098,193.998v0.146h0.439v-0.293L379.098,193.998z M379.537,174.59l-0.146,0.402v0.146h0.146l0.292-0.293v-0.109
			l0.146,0.109h0.548v-0.109l-0.694-0.146l-0.146,0.146L379.537,174.59z M381.985,190.379c-0.171,0.391-0.512,0.586-1.023,0.586
			v0.293l1.425-0.732v-0.146H381.985z M380.962,192.535h0.146l0.584-0.256v-0.145h-0.146
			C381.157,192.279,380.962,192.414,380.962,192.535z M383.264,189.686v0.291l0.438-0.145v-0.293L383.264,189.686z M383.849,189.393
			l0.292,0.293h0.548l-0.256-0.293H383.849z M384.69,188.662v0.146h0.438v-0.293L384.69,188.662z M384.982,172.689
			c0,0.195,0.146,0.293,0.439,0.293h0.146v-0.146L384.982,172.689z M385.128,187.82v0.146l0.292,0.256l0.292-0.256l-0.438-0.146
			H385.128z M386.737,214.428v0.109l0.693-0.4v-0.146h-0.146L386.737,214.428z M387.724,174.152l0.292,0.293h0.146l-0.291-0.293
			H387.724z M387.724,213.844h0.146l0.291-0.293h-0.146L387.724,213.844z M389.587,212.674h0.146l0.293-0.293h-0.146
			L389.587,212.674z M390.318,175.285v0.146l0.878,0.293h0.109v-0.146l-0.842-0.293H390.318z M391.598,210.957v0.145h0.146
			l0.877-0.291v-0.293L391.598,210.957z M391.89,190.379v0.146l0.585-0.693v-0.146L391.89,190.379z M392.913,210.518h0.146
			l0.292-0.293h-0.146L392.913,210.518z M393.498,177.295l0.694,0.586v-0.293l-0.585-0.293H393.498z M394.046,209.822h0.146
			l0.438-0.438h-0.146L394.046,209.822z M395.216,180.768h0.146l0.293-0.293h-0.146L395.216,180.768z M395.508,208.945h0.146
			l0.256-0.293h-0.11L395.508,208.945z M396.642,207.922v0.293l0.438-0.146v-0.146H396.642z M397.665,207.229l-0.293,0.291v0.146
			h0.293l0.292-0.438H397.665z M397.519,181.061c0,0.195,0.426,0.426,1.278,0.693h0.146v-0.146L397.519,181.061z M398.103,177.734
			v0.438h0.256v-0.438H398.103z"/>
		<path fill="#FFFFFF" d="M414.074,168.121c2.827,0,5.165,1.705,7.017,5.117h-0.182c-0.78-0.633-1.547-0.951-2.303-0.951h-0.365
			c-1.438,0-2.267,0.768-2.486,2.303l0.22,1.5l-0.22,4.02l-0.364,0.365l0.183,0.184v0.182l-0.365,0.402l0.365,0.549l-0.183,0.949
			l0.364,0.402l-0.364,0.365l0.364,1.352l-0.364,0.951l0.364,0.365v0.365l-0.182,0.768l0.182,0.768v0.184l-0.364,0.584v0.184
			l1.132,3.217c0.439,0,1.195,0.705,2.268,2.119c-2.145,2.51-3.217,4.08-3.217,4.715l-0.183,1.17l0.364,1.498l-0.182,2.668
			l0.182,2.084l-0.364,0.4v0.184l0.364,0.549l-0.182,1.168l0.182,2.449v0.402l-0.364,0.549l0.364,0.4l-0.182,0.184v0.184
			l0.401,0.365v1.717c0,2.535,1.194,3.801,3.582,3.801c2.192,0,4.093-2.082,5.702-6.25l0.182-2.119l-0.365-1.133v-0.182h0.951
			v-0.367l-0.184,0.184h-0.219l-0.731-0.402l0.183-1.133l-0.183-3.398c0.073-0.781,0.257-1.17,0.548-1.17h0.951l0.402,0.402
			l0.182-0.184l1.9,0.184l3.033-0.402l0.184,0.219l-0.184,3.801v0.951l-0.4,0.365c0.389,1.486,0.584,3.07,0.584,4.752
			c-0.584,2.777-1.34,4.604-2.266,5.482c-1.414,2.412-2.619,3.617-3.619,3.617c0,0.609-1.011,1.061-3.033,1.352l-0.584-0.219
			c0,0.779-1.828,1.17-5.482,1.17c-1.755,0-3.973-0.768-6.652-2.303l-0.402,0.402l-0.182-0.219h-0.184l-1.315,0.402
			c-2.461,0-5.251-1.086-8.369-3.254l-0.184-0.182v-0.367h0.184l3.032,0.549c1.391-0.463,2.084-1.279,2.084-2.449
			c0-0.51,0.135-0.768,0.402-0.768l-0.184-0.949l0.365-0.549l-0.365-0.584v-0.768l0.184-0.951l-0.184-0.182h-0.219l0.219-1.9v-3.217
			l0.184-0.184l-0.184-0.584l-0.219-3.436l0.219-1.133l-0.219-0.951l0.219-1.498c0-1.193-0.949-2.717-2.851-4.568
			c1.585-1.754,2.657-3.398,3.216-4.934c-0.389-0.902-0.584-1.791-0.584-2.668l0.402-2.084l-0.402-2.303l0.402-2.447l-0.184-0.768
			v-0.184l0.184-0.182v-0.221l-0.402-0.365v-2.266c-0.39-2.68-1.268-4.021-2.632-4.021h-0.401c-0.561,0-1.256,0.391-2.083,1.17
			l-0.184-0.219c0.537-1.438,1.486-2.57,2.851-3.398h0.184l0.768,0.365h0.182v-0.184l-0.768-0.182
			c1.121-1.023,2.523-1.535,4.203-1.535c1.194,0,2.328,0.572,3.399,1.717C411.761,168.756,412.905,168.121,414.074,168.121z
			 M405.339,170.789l0.365,0.365h0.184l-0.365-0.365H405.339z M406.838,171.338v0.402l0.585,0.182v-0.365L406.838,171.338z
			 M406.838,187.713v0.182l0.401-0.402v-0.184L406.838,187.713z M407.423,188.076h0.182l0.367-0.363h-0.184L407.423,188.076z
			 M408.19,186.176l-0.402,0.586h0.402l0.183-0.586H408.19z M407.972,216.182h0.219l0.365-0.365h-0.183L407.972,216.182z
			 M408.738,172.287v0.221l0.585,0.182v-0.402H408.738z M408.921,215.598l-0.183,0.219V216h0.183l0.585-0.184v-0.219H408.921z
			 M409.872,215.451l-0.184,0.146v0.219h0.584L409.872,215.451z M409.872,172.689v0.184h0.767v-0.184H409.872z M410.054,184.275
			v0.184l0.585-0.549h-0.183L410.054,184.275z M410.821,185.592v0.219l0.585-0.584h-0.183L410.821,185.592z M411.005,215.049v0.184
			h0.401l0.548-0.184v-0.182h-0.365L411.005,215.049z M411.589,183.326v0.182l0.365-0.365v-0.184L411.589,183.326z M412.356,214.502
			v0.182h0.184c0.975-0.17,1.863-0.547,2.668-1.133h-0.183C413.709,214.184,412.819,214.502,412.356,214.502z M413.673,181.426
			h0.182l0.402-0.365h-0.183L413.673,181.426z M422.225,218.85l0.366,0.367h0.182l-0.365-0.367H422.225z M423.54,219.398
			l0.402,0.402h0.184l-0.402-0.402H423.54z M425.843,220.568v0.182l1.316,0.184v-0.365H425.843z M427.523,204.596v0.402l0.585-0.219
			v-0.184H427.523z M428.876,206.898v0.365c1.243-0.461,1.938-0.9,2.084-1.314h-0.184
			C430.095,206.582,429.461,206.898,428.876,206.898z M431.143,204.779v0.219l0.366-0.402v-0.182L431.143,204.779z"/>
		<path fill="#FFFFFF" d="M438.635,171.775c0.536,0,1.292,0.451,2.266,1.354c0.634-0.805,1.231-1.207,1.791-1.207
			c3.265,0,5.373,1.256,6.323,3.766l-2.12-0.586c-1.389,0.123-2.083,0.525-2.083,1.207l0.146,3.91v0.877l-0.146,1.207l0.146,1.205
			l-0.146,1.061l0.146,1.354v3.471l2.411,2.996v0.293c-0.706,0.998-1.267,1.498-1.681,1.498l0.184,0.184v0.146
			c-0.609,0.535-0.963,1.23-1.061,2.082l0.146,2.852v2.559h-0.293v1.389l0.146,0.877l-0.146,0.146v0.146l0.293,1.826l-0.146,3.473
			l0.146,0.439l-0.146,0.584c1.048,1.219,1.742,1.828,2.083,1.828c0.585,0,1.242-0.256,1.974-0.768h0.146
			c0,1.145-1.108,2.047-3.326,2.705l-0.146-0.146h-0.146c-0.877,0.705-1.572,1.059-2.083,1.059c-1.048,0-1.9-0.402-2.559-1.205
			c0,0.438-0.854,0.693-2.558,0.768c-2.462-0.439-4.167-1.195-5.118-2.266l-0.768-0.914l0.146-0.146l1.828,0.914
			c1.583-0.488,2.375-1.242,2.375-2.268l-0.146-0.145v-0.914l0.329-0.439l-0.329-1.205l0.146-0.146l-0.146-1.828v-0.293
			c0-3.068,0.109-5.178,0.329-6.322l-0.329-0.877l0.146-0.914l-0.146-1.498v-0.475l-2.229-2.852c1.583-1.973,2.375-3.277,2.375-3.91
			l0.184-2.703l-0.329-1.354v-0.439l0.474-4.092c-0.34,0-0.548-0.951-0.621-2.852l0.147-0.439c0-0.9-0.743-1.51-2.229-1.826h-0.184
			c-0.609,0-1.158,0.256-1.645,0.768v-0.293c0.926-1.633,2.583-2.838,4.971-3.619H438.635z M437.429,175.98
			c0,0.219,0.146,0.328,0.438,0.328h0.146v-0.184L437.429,175.98z M437.429,195.861v0.146h0.293l0.476-0.621v-0.146l-0.623,0.621
			H437.429z M438.197,194.947v0.146h0.291l0.438-0.584v-0.146c-0.146,0-0.292,0.195-0.438,0.584H438.197z M439.22,196.154v0.146
			h0.621v-0.293L439.22,196.154z M439.549,193.156l-0.146,0.439h0.292v-0.439H439.549z M440.279,191.951l-0.292,0.584v0.293h0.146
			l0.293-0.73v-0.146H440.279z M440.133,175.688v0.146l1.061-0.146v-0.146h-0.622L440.133,175.688z M440.9,207.887v0.145
			l0.585,0.146c0-0.193-0.146-0.291-0.438-0.291H440.9z M441.193,206.826v0.293h0.438v-0.146L441.193,206.826z M441.485,190.123
			l-0.146,0.475h0.293v-0.475H441.485z M441.485,175.395l0.293,0.293h0.146v-0.293H441.485z M441.778,189.539l-0.146,0.438h0.292
			l0.183-0.438H441.778z M442.106,207.301v0.146l0.585,0.146h0.146v-0.146l-0.585-0.146H442.106z M442.253,188.771v0.146
			l0.293-0.293v-0.146L442.253,188.771z M442.399,175.102v0.293l0.584-0.146v-0.146H442.399z M442.399,193.889v0.146l0.438-0.439
			h-0.146L442.399,193.889z M442.399,208.652v0.293l0.584,0.146L442.399,208.652z M442.983,187.418l-0.146,0.477v0.146h0.146
			l0.33-0.623H442.983z M443.313,186.506v0.328l0.438-0.146v-0.328L443.313,186.506z M443.313,207.74v0.291h0.73l0.146,0.146h0.146
			v-0.291h-0.73l-0.146-0.146H443.313z"/>
		<path fill="#FFFFFF" d="M463.122,171.85l0.877,0.146l0.146-0.146h0.146l0.73,0.146l0.585-0.146
			c2.144,0.488,3.217,0.877,3.217,1.17l0.146-0.146h0.292c0.414,0,1.341,0.535,2.778,1.607h0.146c0-0.242,0.194-0.389,0.584-0.438
			c0-0.195,0.195-0.293,0.585-0.293c0-0.463,0.438-1.047,1.315-1.754l0.146,0.146l-0.146,1.021l0.146,0.586l-0.146,0.146
			l0.146,1.023v1.023c-0.487-0.195-1.219-0.293-2.192-0.293l0.146,0.439l2.047,0.291l-0.146,0.732l0.146,2.631l-0.146,2.193
			l0.146,0.877l-0.146,1.754v0.439l-0.146,0.145l0.146,0.439l-0.146,0.73h0.293v0.293l-0.293,0.293l-0.146-0.146h-0.146
			l-0.877,0.146l-0.146-0.146h-0.146l-0.585,0.146h-0.292l-0.146-0.146l-0.146,0.146h-0.146l-0.146-0.146l-0.146,0.146h-0.293
			l-0.292-0.293v-0.586l0.146-0.584l-0.146-0.146v-0.146l0.146-0.145v-0.148l-0.146-0.145v-0.146l0.146-0.146v-0.146l-0.146-0.584
			l0.146-0.146v-0.146l-0.146-0.877l0.146-1.023c-0.195-0.658-0.829-1.729-1.9-3.215c0-0.195-0.146-0.293-0.438-0.293
			c0-0.195-0.195-0.293-0.585-0.293c0-0.391-0.292-0.584-0.877-0.584v-0.293h-0.292v0.146l-1.609-0.293l-0.146,0.146h-0.146
			l-0.585-0.146l-0.585,0.146v-0.146c-1.559,0.512-2.339,1.34-2.339,2.486l-0.292,1.314l0.146,0.439l-0.293,1.461l0.146,0.439
			l-0.146,0.438l0.146,1.316v0.291l-0.293,0.439v0.146c0.293,0,0.439,0.098,0.439,0.293v0.291l-0.146,1.609l0.146,0.146v0.145
			l-0.146,0.146v0.146l0.146,1.609v0.291l-0.146,0.146v0.146h0.146l0.292-0.293l2.777,0.293c1.365-0.195,2.048-0.535,2.048-1.023
			c0-0.828-0.488-1.607-1.463-2.34v-0.145h0.146c0.342,0,0.878,0.242,1.608,0.73c0.609,0,1.292,0.975,2.048,2.924l-0.293,0.293
			l0.293,0.73c-0.171,0.803-0.366,1.242-0.585,1.314c0.39,0.635,0.585,1.268,0.585,1.902c0,1.291-1.121,2.314-3.363,3.068h-0.438
			v-0.291c0.487,0,0.926-0.537,1.316-1.609c-0.536-0.486-0.975-0.73-1.316-0.73l-0.585,0.293l-0.146-0.146v-0.146l-1.608,0.293
			v-0.146l-0.146,0.146h-0.292l-0.146-0.146l-0.73,0.146v0.293l-0.146,1.461l0.146,0.584l-0.293,1.463h0.293v0.146l-0.146,5.848
			l0.146,1.607l-0.146,0.73l0.146,0.586l-0.146,1.168c0,1.658,0.536,2.73,1.608,3.217l0.877,0.293h0.438
			c0.633,0,1.462-0.342,2.484-1.023h0.146v0.146c0,0.877-1.169,1.852-3.508,2.924v-0.146l-0.146,0.146h-0.146l-0.584-0.293v0.146
			l0.146,0.439h-0.146l-1.608,0.145h-1.462c-0.487,0-1.12-0.34-1.9-1.023c-0.877,0.781-1.609,1.17-2.192,1.17h-0.293
			c-1.048,0-2.461-0.535-4.24-1.607l-1.315-1.607v-0.146h0.146l1.754,0.73c1.364,0,2.047-0.537,2.047-1.609l0.146-1.168
			l-0.146-0.732l0.146-0.145v-0.146l-0.146-0.439l0.146-0.438l-0.293-1.754l0.293-0.732l-0.293-3.361l0.146-2.193l-0.146-0.438
			h0.146l-0.146-0.146v-0.293l0.293-0.293l-0.293-1.023l0.146-1.17c0-1.363-0.78-2.582-2.339-3.654v-0.146l2.339-2.777l-0.146-1.461
			v-1.17l0.146-0.877l-0.146-0.586l0.146-1.023l-0.146-0.145l0.293-0.293v-0.146l-0.293-0.439v-0.146
			c0-0.682,0.098-1.217,0.293-1.607l-0.146-0.584c0.292,0,0.438-0.098,0.438-0.293c-0.39,0-0.585-0.146-0.585-0.438l0.146-0.146
			v-0.146l-0.146-0.146v-0.146l0.146-0.146v-0.145l-0.146-0.732l0.146-0.584l-0.292-1.463l0.146-0.438l-0.146-0.439l0.146-0.146
			l-0.146-0.146c-0.488-0.268-0.731-0.51-0.731-0.73h-0.877c-0.682,0-1.462,0.488-2.339,1.463l-0.146-0.146
			c0.901-2.145,2.12-3.508,3.654-4.094c0.999-0.293,1.876-0.439,2.633-0.439c0.535,0,1.363,0.537,2.483,1.609
			c1.049-0.975,1.877-1.463,2.486-1.463l0.146,0.146C460.345,172.215,461.271,171.971,463.122,171.85z M453.474,212.783v0.146h0.73
			v-0.439h-0.146L453.474,212.783z M454.643,173.457v0.146l0.293,0.293l0.731,0.293v-0.146l-0.878-0.586H454.643z M455.081,180.184
			l-0.292,0.584h0.146l0.731-0.584H455.081z M454.789,204.305l0.439,0.439v-0.148l-0.293-0.291H454.789z M454.936,179.744v0.145
			h0.438v-0.291L454.936,179.744z M455.667,204.889v0.293h0.291c0,0.291,0.099,0.438,0.293,0.438l0.146-0.146v-0.145
			L455.667,204.889z M455.812,174.043c0,0.195,0.196,0.291,0.585,0.291l0.147,0.146v0.146l-0.147,0.146h0.438l0.147-0.439
			L455.812,174.043z M455.812,212.783l0.294,0.293l0.584-0.146v-0.146H455.812z M455.958,179.889h0.438v-0.438L455.958,179.889z
			 M456.835,179.16v0.291c0.463,0,1.146-0.438,2.048-1.316v-0.145C458.225,178.551,457.543,178.939,456.835,179.16z
			 M456.835,206.059v0.293c0.586,0.121,0.877,0.365,0.877,0.73h0.294v-0.146l-1.023-0.877H456.835z M457.859,192.023v0.146
			l0.73,0.146h0.146l0.293-0.293l-0.731-0.146L457.859,192.023z M458.151,208.398v0.145l0.585,1.17h0.146v-0.73
			c-0.195,0-0.293-0.195-0.293-0.584H458.151z M458.883,207.375v0.291h0.438l-0.146,0.146v0.146l-0.585-0.293h-0.146v0.146
			c0.877,0.172,1.315,0.463,1.315,0.877h0.585L458.883,207.375z M460.929,176.527v0.146l0.293,0.439l-1.462,0.291l0.146,0.146v0.293
			h-0.146l-0.146-0.146l-0.584,0.438h0.292c0.584-0.096,0.877-0.242,0.877-0.438l-0.146-0.146l0.438-0.146l0.438,0.146
			c0-0.195,0.146-0.293,0.439-0.293l0.877-0.584v-0.146l-0.146-0.146v-0.146l0.146-0.145h-0.146L460.929,176.527z M459.175,192.023
			h0.146l0.584-0.438h-0.146C459.369,191.732,459.175,191.877,459.175,192.023z M459.613,174.773c0,0.195,0.146,0.293,0.438,0.293
			h0.146v-0.146L459.613,174.773z M459.76,210.299v0.438h0.292l-0.146-0.438H459.76z M460.198,191.439h0.292l0.438-0.439v-0.145
			C460.49,191.049,460.247,191.244,460.198,191.439z M460.198,211.32v0.293l0.146,0.146h0.146l-0.146-0.439H460.198z
			 M460.49,175.066v0.146l0.731,0.145h0.146v-0.145l-0.585-0.146H460.49z M461.075,213.223v0.146c0.219,0,0.609,0.389,1.17,1.168
			h0.146c-0.536-0.877-0.927-1.314-1.17-1.314H461.075z M462.392,176.234v0.293h0.438v-0.438L462.392,176.234z M464.292,175.504
			l-0.585-0.146l-1.023,0.439v0.146l1.023,0.146l0.292-0.586l0.146,0.146h0.292c0.683-0.34,1.023-0.584,1.023-0.73h-0.146
			L464.292,175.504z M463.999,213.369l-0.292,0.73l0.146,0.146h0.146l0.293-0.439l-0.146-0.146l0.146-0.146l-0.146-0.145H463.999z
			 M465.753,174.627h0.146l0.292-0.293h-0.146L465.753,174.627z M466.924,174.773c0,0.195-0.147,0.293-0.438,0.293v0.146h0.877
			L466.924,174.773z M467.946,173.164l-0.292,0.439h0.292l0.293-0.291v-0.148H467.946z M468.386,175.066l-0.146,0.438h0.73
			L468.386,175.066z M469.408,175.357v0.146l3.07,0.439v-0.293c-1.657,0-2.485-0.146-2.485-0.438L469.408,175.357z"/>
		<path fill="#FFFFFF" d="M499.487,171.41h0.146c0,0.195,0.146,0.293,0.438,0.293l0.146,4.021c0,0.705-0.293,1.279-0.877,1.717
			l0.146-0.146h0.146l0.146,0.146h0.146v-0.438l0.293,0.291l-0.146,1.17l0.146,3.582v2.449c0,0.779-0.195,1.168-0.585,1.168
			l-1.134-0.146l-0.583,0.146l-1.134-0.146l-1.17,0.146l-0.146-1.316l0.146-1.717l-0.146-0.584l0.438-0.842
			c-0.293-0.098-0.438-0.389-0.438-0.877l0.146-1.023c0-0.877-1.109-1.777-3.326-2.703l-0.841-0.146
			c-1.974,0-3.216,0.377-3.728,1.133h-0.146c-0.195,3.85-0.389,6.006-0.585,6.469c0.221,0,0.366,0.342,0.439,1.023l-0.293,1.57
			l0.293,0.293l-0.146,0.146l0.146,0.146v0.146l-0.146,0.84c0,1.17,0.329,1.754,0.986,1.754l1.169-0.438l1.573,0.293
			c0.852-0.244,1.278-1.012,1.278-2.305c0-0.559-0.328-1.096-0.986-1.605v-0.258h0.146c1.926,0.512,2.889,1.365,2.889,2.559
			l0.145,0.586v0.145c0,1.316-0.291,2.279-0.877,2.889c0,0.463,0.195,0.693,0.586,0.693l0.401,1.9
			c-0.463,1.998-1.462,2.998-2.997,2.998l-0.73,0.146v-0.146c0.877-0.902,1.315-1.621,1.315-2.156c0-0.244-0.536-0.439-1.608-0.586
			h-0.438l-0.987,0.146l-0.145-0.146v-0.109c-1.243,0.074-1.865,0.354-1.865,0.842l0.293,0.584l-0.146,2.998l0.146,0.145v0.146
			l-0.293,1.17v0.439h0.293v0.84l-0.293,0.877l0.146,0.146v0.146l-0.146,0.986l0.146,1.607h-0.146l0.438,1.279l-0.292,0.293
			l0.146,0.438l-0.146,0.146v0.146l0.292,0.695l-0.292,0.291c0.366,0.439,0.548,0.914,0.548,1.426l2.048,0.586
			c1.682,0,3.545-0.865,5.592-2.596l0.146-1.572l-0.146-0.145v-0.146l0.146-1.719l-0.146-0.146v-0.146l0.292-0.875l-0.292-1.135
			l0.292-0.291l-0.292-0.439v-0.402l0.146-0.146v-0.145l1.571,0.291l0.438-0.291l1.463,0.145h0.84l0.146,0.146h0.146l-0.293,0.842
			v0.146l0.293,1.168v0.402l-0.293,1.17l0.293,0.84v0.439c-0.195,0.389-0.488,0.584-0.877,0.584v0.293l0.73-0.439l0.146,1.023v0.549
			c-0.049,1.047-1.633,2.924-4.751,5.629c-2.389,1.145-3.924,1.717-4.605,1.717l-0.146-0.146l-0.694,0.146h-0.586
			c-2.46,0-4.433-0.719-5.919-2.156c-0.708,0.682-1.231,1.023-1.572,1.023h-0.731c-1.388,0-3.008-0.768-4.86-2.303l-0.292-0.291
			l-0.439-0.586l0.146-0.146c0.902,0.586,1.523,0.877,1.864,0.877h0.73c0.854-0.389,1.28-1.021,1.28-1.898l-0.146-0.549l0.292-0.293
			l-0.292-0.73l0.146-0.988l-0.146-1.168l0.292-0.293l-0.438-0.439l0.146-1.863l-0.146-0.402l0.146-1.314v-0.586l0.146-0.146
			l-0.293-0.547l0.146-2.303v-0.586l-0.146-0.877l0.293-0.547c-0.195,0-0.293-0.146-0.293-0.439l0.146-1.023l-0.292-0.293h0.292
			v-0.109c-0.537,0-1.011-0.535-1.426-1.607l0.292-0.293l-0.146-0.146h-1.022v-0.146l2.156-2.703v-1.463l0.146-0.84l-0.146-0.439
			l0.293-1.717c-0.195,0-0.293-0.146-0.293-0.439l0.146-2.01l-0.146-0.146v-0.146l0.293-1.133l-0.293-0.584l0.146-1.023
			c-0.074-2.582-0.171-3.875-0.292-3.875l-2.304-0.73l-1.425,1.023h-0.146v-0.146c0-1.217,1.438-2.461,4.313-3.729h1.315
			c0.828,0,1.596,0.428,2.302,1.279c2.12-1.242,3.558-1.863,4.312-1.863l2.011,0.146l1.571-0.293c0,0.244,0.622,0.391,1.863,0.439
			l4.021,1.717C497.575,173.713,498.391,172.945,499.487,171.41z M480.079,191.695l-0.145,0.146v0.146h0.145l0.44-0.146v-0.146
			H480.079z M480.079,193.998v0.146h0.44v-0.293L480.079,193.998z M480.52,174.59l-0.146,0.402v0.146h0.146l0.292-0.293v-0.109
			l0.146,0.109h0.548v-0.109l-0.694-0.146l-0.146,0.146L480.52,174.59z M482.968,190.379c-0.17,0.391-0.512,0.586-1.023,0.586v0.293
			l1.426-0.732v-0.146H482.968z M481.944,192.535h0.146l0.584-0.256v-0.145h-0.146C482.14,192.279,481.944,192.414,481.944,192.535z
			 M484.247,189.686v0.291l0.438-0.145v-0.293L484.247,189.686z M484.832,189.393l0.292,0.293h0.548l-0.255-0.293H484.832z
			 M485.672,188.662v0.146h0.439v-0.293L485.672,188.662z M485.965,172.689c0,0.195,0.146,0.293,0.438,0.293h0.146v-0.146
			L485.965,172.689z M486.111,187.82v0.146l0.292,0.256l0.292-0.256l-0.438-0.146H486.111z M487.719,214.428v0.109l0.695-0.4v-0.146
			h-0.147L487.719,214.428z M488.706,174.152l0.293,0.293h0.145l-0.291-0.293H488.706z M488.706,213.844h0.146l0.291-0.293h-0.145
			L488.706,213.844z M490.569,212.674h0.146l0.293-0.293h-0.146L490.569,212.674z M491.301,175.285v0.146l0.877,0.293h0.109v-0.146
			l-0.841-0.293H491.301z M492.579,210.957v0.145h0.146l0.877-0.291v-0.293L492.579,210.957z M492.873,190.379v0.146l0.585-0.693
			v-0.146L492.873,190.379z M493.895,210.518h0.146l0.294-0.293h-0.146L493.895,210.518z M494.479,177.295l0.695,0.586v-0.293
			l-0.585-0.293H494.479z M495.028,209.822h0.146l0.438-0.438h-0.146L495.028,209.822z M496.198,180.768h0.146l0.293-0.293h-0.146
			L496.198,180.768z M496.49,208.945h0.146l0.256-0.293h-0.109L496.49,208.945z M497.623,207.922v0.293l0.438-0.146v-0.146H497.623z
			 M498.647,207.229l-0.294,0.291v0.146h0.294l0.291-0.438H498.647z M498.5,181.061c0,0.195,0.428,0.426,1.28,0.693h0.146v-0.146
			L498.5,181.061z M499.086,177.734v0.438h0.256v-0.438H499.086z"/>
	</g>
</g>
</svg>
