<?xml version="1.0" encoding="utf-8"?>
<!-- Generator: Adobe Illustrator 15.0.0, SVG Export Plug-In . SVG Version: 6.00 Build 0)  -->
<!DOCTYPE svg PUBLIC "-//W3C//DTD SVG 1.1//EN" "http://www.w3.org/Graphics/SVG/1.1/DTD/svg11.dtd">
<svg version="1.1" id="Layer_1" xmlns="http://www.w3.org/2000/svg" xmlns:xlink="http://www.w3.org/1999/xlink" x="0px" y="0px"
	 width="800px" height="297px" viewBox="0 0 800 297" enable-background="new 0 0 800 297" xml:space="preserve">
<g>
	<defs>
		<rect id="SVGID_1_" x="-4.284" y="-0.055" width="804.284" height="299.403"/>
	</defs>
	<clipPath id="SVGID_2_">
		<use xlink:href="#SVGID_1_"  overflow="visible"/>
	</clipPath>
	<g clip-path="url(#SVGID_2_)">
		<rect x="-3.421" y="-133.131" fill="#D37984" width="805.147" height="399.592"/>
		<polygon fill="#BE1E2D" points="-1.066,-69.476 -2.243,40.881 322.076,222.507 		"/>
		<polygon fill="#BE1E2D" points="428.194,225.018 481.881,-131.954 376.234,-133.131 		"/>
		<polygon fill="#BE1E2D" points="432.354,204.768 739.563,-133.131 618.296,-134.308 		"/>
		<polygon fill="#BE1E2D" points="132.209,-130.305 383.926,248.25 252.691,-132.032 		"/>
		<polygon fill="#BE1E2D" points="447.895,231.611 801.647,89.23 800.628,-19.635 		"/>
		<path fill="#393939" d="M93.436,186.401c0.942-2.591,1.884-5.26,3.218-9.027l5.416-3.374l-3.061-0.864
			c2.276-3.846,5.337-7.849,7.221-12.323c2.198-5.022,1.884-11.459,9.026-13.029c0.393-0.078,0.707-1.021,0.864-1.648
			c4.396-12.951,10.91-25.352,10.439-39.559c0-1.883-0.471-3.846-1.334-5.494c-3.924-6.123-8.163-12.088-12.323-18.053l1.256-1.491
			l6.75,3.14c-0.785-5.887-1.57-11.695-2.354-17.503l2.747-0.471l4.003,15.385l1.099-0.157V62.779l2.198-0.078l0.942,12.323
			l0.784,0.157c0.471-2.983,0.864-5.965,1.335-8.948l2.276-0.078c0.393,6.357,0.707,12.715,1.099,19.073l1.883,0.079
			c0.785-4.16,1.57-8.399,2.433-12.558h1.57v30.061c6.2-6.907,12.793-11.067,12.479-20.407c-0.314-8.555,4.788-15.305,9.968-21.584
			c0.863-1.099,3.689-1.727,4.866-1.099c1.57,1.021,2.512,2.747,2.59,4.552c-0.392,5.416-1.413,10.832-2.276,16.797
			c5.023,1.335,3.846,6.75,2.669,9.968c-1.413,3.61-5.573,6.123-8.791,9.34c0.785,1.413,2.276,2.982,2.512,4.709
			c0.314,2.198-0.079,4.396-1.099,6.357c-1.334,2.198-3.532,3.925-5.573,5.573c-3.846,3.139-6.044,6.75-5.259,11.93
			c0.157,1.256-0.549,2.747-1.021,4.631c14.207,4.238,22.37,13.265,20.564,29.511c2.826-11.694,5.651-23.39,8.555-35.006
			c0.314-1.334,1.256-3.14,2.433-3.611c10.361-3.767,11.459-13.265,13.265-21.898c1.648-8.32,1.962-16.954,2.904-25.431
			c0.079-0.942,1.02-1.805,2.119-3.532c0.236,3.768,0.393,6.515,0.55,9.419h12.872c1.099-5.102,2.276-10.753,3.454-16.326
			l1.177,0.079V94.49c5.102,1.412,8.241-8.163,15.148-2.041c-12.637,2.825-11.616,13.657-14.599,22.212l5.808-5.18l1.884,0.549
			c-7.849,7.457-4.709,13.971,0.235,20.564c0.942,1.256,0.236,3.689,0.55,5.573c0.314,1.491,0.706,3.768,1.727,4.082
			c4.709,1.727,4.238,4.631,3.924,8.791c-0.471,6.515,0.785,13.107,0.942,19.7c0.157,7.144-0.471,14.285-0.079,21.428
			c0.079,1.413,2.747,3.532,4.474,3.847c3.453,0.628,7.064,0.156,12.322,0.156c0.157-0.784,1.727-3.453,1.335-5.809
			c-1.256-7.062-1.256-13.5,1.255-20.563c2.276-6.201,1.334-13.5,3.297-19.858c1.177-3.768,4.631-7.535,8.006-9.811
			c3.375-2.276,8.006-2.747,12.166-3.375c7.378-1.177,9.184-4.631,5.416-11.146c-0.863-1.334-1.413-2.826-1.413-4.396l5.495,4.63
			l1.177-0.706c-1.334-3.061-2.748-6.122-4.709-10.596c2.354-0.157,4.788-1.021,6.593-0.235c1.883,0.942,3.296,2.59,3.924,4.63
			c2.041,7.221,4.945,14.286-0.157,21.978c-1.491,2.276,1.962,6.122,6.515,6.201c0,2.355,0.157,4.631,0.549,6.985
			c0.235,1.335,1.256,3.062,2.355,3.532c13.813,5.102,13.813,5.102,18.837,14.521c-0.471-10.597,2.826-20.878-3.533-30.454
			c-1.726-2.669-1.412-6.672-2.354-9.968c-3.532-12.245-14.207-17.817-23.468-24.567c-1.884-1.413-5.023-1.099-7.535-1.57
			l-0.314-1.805l12.951-1.805c-1.02-9.105-6.907-18.131-7.457-28.099l2.512-0.785c2.826,6.436,5.651,12.794,8.477,19.151
			l13.264-0.707c0.628-4.788,1.177-9.34,1.805-14.521c1.649,1.099,2.277,1.256,2.277,1.491c1.962,11.773,3.296,23.626,6.043,35.164
			c1.256,5.337,4.238,11.381,8.399,14.521c6.436,4.866,8.005,12.166,12.087,18.131c0.863,1.57,2.277,2.747,3.924,3.375
			c0.628-5.573,2.747-11.538,1.491-16.64c-1.177-4.866-5.965-8.869-9.575-13.814l4.788-8.163c-7.613-3.453-12.087-8.712-8.948-17.66
			h2.826c-1.177-5.651-2.512-11.146-3.14-16.719c-0.235-1.805,1.335-5.023,2.669-5.416c1.727-0.471,4.63,0.785,5.965,2.276
			c5.416,6.2,8.791,13.343,9.341,21.898c0.235,3.532,2.276,7.457,4.63,10.125c4.866,5.651,10.518,10.596,16.954,16.875
			c0.863-8.634,0.314-16.875,2.826-24.096c2.511-7.221,8.084-13.5,13.264-19.701c-1.098,3.14-2.119,6.279-3.768,11.146
			c6.201-5.416,5.887-14.913,15.542-14.678c-1.335,3.846-2.67,7.771-4.082,11.616l0.784,0.55l6.908-7.849l1.805,1.177
			c-3.061,4.867-6.122,9.812-9.341,14.992l9.105-1.648c-4.396,3.846-7.063,6.75-10.204,8.87c-9.968,6.829-10.046,6.671-9.732,18.837
			c8.006,6.358,13.736,14.05,15.07,22.762l13.578,11.225l5.965-2.276l1.179,1.334c-0.786,1.021-1.335,2.434-2.355,3.062
			c-7.221,4.552-8.712,10.36-8.084,18.759c0.784,11.538,7.77,19.937,12.636,29.982c3.926-1.568,5.495-3.767,3.062-8.241
			c-6.828-12.401-6.672-25.744-3.297-38.695c1.649-6.2,6.358-12.244,14.678-12.637c3.847-0.157,6.672-2.982,11.225-3.139
			c11.381-0.55,14.677,7.692,19.387,14.207c3.532,4.787,5.26,10.909,8.32,17.659c2.354-5.258,5.809-9.811,6.437-14.834
			c1.962-16.326,2.903-32.808,4.081-49.213c0.157-2.119-0.314-4.316-1.413-6.122c-3.375-5.259-7.143-10.204-10.832-15.227l1.1-1.491
			l5.494,1.962c-0.472-4.788-0.941-9.654-1.335-14.521l2.041-0.314l3.688,13.344l0.786-0.236V70.158L493.262,70l1.727,11.617h0.55
			c0.314-2.669,0.55-5.416,0.864-8.084l1.568-0.079l1.256,17.032l1.57-0.079l2.433-11.459c0.158,35.792,4.317,71.818-8.397,106.59
			c5.102-2.277,9.419-4.003,13.422-6.201c1.177-0.628,2.119-2.67,2.354-4.16c1.884-16.326,3.453-32.652,5.415-48.899
			c1.179-9.497,3.533-18.916,4.239-28.413c1.255-16.405,1.806-32.887,2.041-49.37c0-2.512-2.747-6.201-5.26-7.535
			c-9.104-4.788-13.107-12.166-12.009-22.84l6.75,9.812c1.491-4.317,1.806-9.498,4.553-11.931s7.85-1.884,10.125-2.277
			c3.689,3.297,7.534,5.181,8.398,7.928c2.197,7.142,4.004,14.756,4.317,22.212c0.471,11.381-0.864,22.841-0.628,34.222
			c0.235,9.812,1.727,19.623,2.668,29.355c10.361,2.276,12.48,0.706,13.108-9.262c0.235-1.963,0.628-3.846,1.099-5.73
			c1.884-8.634,3.768-17.189,6.515-26.451c0.707,4.238,1.412,8.555,2.198,13.343l13.107,1.177l8.869-19.23l2.826,1.334
			c-2.747,9.183-5.573,18.367-8.478,28.021c4.631,0.785,10.204-2.433,13.579,3.296c-10.596,0-31.082,15.228-31.554,27.628
			c-0.393,11.695,3.61,23.547,5.573,35.321c1.178,7.378,6.357,14.128,4.553,20.956c2.668,1.491,5.729,2.668,7.927,4.71
			c5.102,4.787,8.791,3.061,12.087-6.438c-11.224-1.883-8.633-12.636-11.929-19.544c-2.591-5.337-3.847-12.636-2.434-18.209
			c1.177-4.553,6.828-8.556,11.38-11.538c4.238-2.747,9.655-3.846,14.757-0.785c0.393,0.235,0.707,0.628,1.099,0.706
			c12.166,0.471,15.854,7.064,16.64,18.759c0.785,11.694,7.3,22.919,3.769,35.242c-0.158,0.55,0.313,1.255,0.549,1.805
			c0.549,1.178,1.178,2.276,1.962,3.925l5.259-3.375c-5.494-15.698-4.709-32.338-7.221-48.35
			c-3.061-19.779,3.846-36.812,9.34-54.315c4.161-13.265,9.419-26.373,21.584-35.242c4.161-2.982,6.829-4.396,10.439-0.078
			c0.942,1.177,2.198,2.197,3.219,3.296c7.143,7.3,7.064,8.163-1.963,12.951c-5.102,2.747-7.691,6.201-4.631,11.774h12.559
			c0.157-2.669,0.393-5.573,0.549-8.556l1.492-0.079c0.235,2.433,0.471,4.866,0.863,7.221c1.806,12.637,1.334,25.901,9.026,37.126
			c0.942,1.412,1.884,4.081,2.904,4.159c6.751,0.236,6.2,5.259,7.221,9.654c1.256,5.259,2.747,10.518,4.631,15.62
			c3.218,9.026,4.474,9.654,13.579,8.242c1.492-0.236,3.061-0.393,4.944-0.707c-0.313-3.454-0.628-7.3-0.941-10.989
			c1.256-0.627,3.453-1.255,3.532-1.962c0.392-6.279,0.392-12.558,0.471-18.759c0-4.082-0.628-8.241-0.079-12.245
			c0.707-4.63,4.317-5.729,8.242-3.218c1.255,0.785,2.904,1.021,4.081,1.962c2.669,2.119,5.729,3.846,3.925,8.556
			c-1.962,5.18-2.904,10.91-4.396,16.796c1.413,0.157,3.297,1.099,4.16,0.471c5.887-3.846,12.559-2.354,18.209-1.413
			c4.789,0.785,10.676,4.709,12.951,8.87c7.143,13.265,8.085,27.472,2.04,41.756c-2.589,6.122-1.02,9.891,4.867,13.108
			c0.55,0.234,1.021,0.706,1.178,1.256c1.647,8.713,8.397,9.732,16.012,9.89c-1.727-9.026-5.181-18.366-4.866-27.55
			c0.313-9.184,4.396-18.288,8.398-27.158v121.581H-4.441v-6.986c0-37.675-0.392-75.429,0.157-113.103
			c0.235-17.503,2.433-35.006,3.768-52.51c0-0.863,0.157-1.727,0.471-2.59c4.788-7.535,9.968-14.834,15.541-21.82l-4.16,12.48
			c6.436-4.553,5.965-15.776,17.346-15.62c-1.57,4.552-3.218,9.184-5.416,15.463l9.968-11.067l2.276,1.648L23.972,89.702l8.32-1.884
			l0.785,1.491c-5.102,3.689-9.89,7.849-15.384,10.91c-4.474,2.511-6.515,5.572-6.201,10.439c0.393,8.32,0.785,16.718,1.334,25.039
			c0.078,0.941,0.392,2.433,1.099,2.747c12.087,6.357,12.558,18.446,14.756,29.668c0.942,4.632,1.884,9.262,2.826,13.893
			c6.043-2.354,11.459-4.316,16.64-6.671c1.334-0.628,2.512-2.59,2.904-4.161c1.569-6.514,2.825-13.186,4.238-19.778
			c2.511-11.381,5.023-22.762,7.457-34.144c0.235-1.02,0.706-2.511,0.235-3.139c-4.474-6.358-0.942-12.401-0.235-18.838
			c0.628-5.102-2.041-10.518-3.14-15.854c-0.549-2.904-2.669-5.651,1.334-8.556c2.904-2.198-1.57-10.204-5.023-11.852
			c-6.122-2.983-11.852-6.986-17.661-10.596c-0.549-0.314-1.255-1.334-1.098-1.491c3.217-4.317,6.122-8.948,10.046-12.48
			c1.256-1.177,6.043-0.392,7.771,1.099c9.104,8.006,16.797,16.404,19.308,29.434c2.59,13.343,9.576,25.901,12.559,39.245
			c1.805,8.241-0.157,17.346-0.628,25.98c-0.393,7.457-1.021,14.913-1.413,22.37c-0.079,0.628,0.078,1.256,0.549,1.805
			c10.046,8.791,5.416,21.35,8.32,32.024c-0.471,1.726-1.334,3.531-1.177,5.336c0.157,3.689,0.864,7.3,1.413,11.146l12.009-3.532
			C99.636,195.506,93.043,193.779,93.436,186.401z M653.931,89.78c-2.747,6.829-4.238,14.364-0.942,22.213
			c0.55,1.334,1.335,3.532,0.707,4.316c-4.789,6.437-1.021,12.48,0.156,18.76c2.354,12.872,4.475,25.744,6.672,38.695l2.355,1.178
			c2.982-3.141,5.965-6.358,9.025-9.497c0.942-1.1,2.119-2.041,3.454-2.591c5.022-1.805,7.3-5.336,6.671-10.438
			c-0.706-6.044-1.412-12.166-2.982-17.975C674.495,117.487,674.338,98.1,653.931,89.78z M213.211,110.501l-2.983-0.549
			c-3.218,12.009-6.515,23.939-9.89,36.498c5.416-0.392,9.184-1.02,12.951-0.942c6.986,0.157,7.221,0.157,5.18-7.299
			c-0.628-2.433-1.962-4.709-2.982-7.064c-1.57-3.768-3.925-7.457-4.552-11.381C210.464,116.859,212.347,113.641,213.211,110.501z
			 M660.602,86.641c-0.313-6.907-0.628-12.323-0.863-17.661l-2.119-1.099c-1.413,1.727-3.296,3.218-4.238,5.181
			C650.634,78.87,654.087,82.323,660.602,86.641z M730.929,207.437l15.697-11.538l-7.378-2.983L730.929,207.437z M403.234,163.012
			l-3.768,0.549l1.648,11.302l2.119-0.313V163.012z"/>
		<rect x="-4.206" y="264.891" fill="#393939" width="806.481" height="187.354"/>
		<g>
			<path fill="#FFFFFF" d="M315.227,227.809c2.848,0.418,4.273,0.908,4.273,1.474l0.553-0.184c2.014,0.933,3.438,2.356,4.273,4.272
				l1.142,1.657c0.369,0,0.553,0.197,0.553,0.59c2.087,3.266,3.131,6.667,3.131,10.204c0.467,1.326,0.847,3.376,1.142,6.151
				l2.394,2.615c-1.866,2.555-2.799,4.089-2.799,4.604h-0.185l-0.184-0.184v2.431l0.184,0.736
				c-1.154,7.295-2.148,10.941-2.983,10.941l0.184,0.185v0.552c-0.344,1.867-1.952,4.47-4.826,7.81
				c-1.056,1.18-3.647,2.173-7.772,2.984l-0.59-0.222l-2.21,0.222c-0.884,0-3.106-0.872-6.667-2.615h-0.185
				c0,0.318-0.934,0.639-2.799,0.957c-3.414,0-6.018-1.682-7.81-5.046h0.184c1.67,1.375,3.095,2.062,4.273,2.062h0.184
				c1.229,0,1.842-1.437,1.842-4.31l0.184-1.253l-0.184-1.657l0.184-0.185v-0.185l-0.516-2.247l0.516-3.353l-0.184-1.142v-1.253
				l0.184-0.772l-0.332-2.211l0.148-0.773l-0.148-0.184v-0.185l0.148-0.184v-0.148l-0.148-0.957l0.332-0.922
				c-1.252-1.276-2.234-2.442-2.947-3.499v-0.22c1.965-1.94,2.947-3.366,2.947-4.274h-0.332v-0.221l0.332-0.516l-0.332-1.105
				l1.474-1.289v-0.184h-0.185l-0.774,0.515h-0.368l-0.148-0.921v-0.184l0.148-0.737l-0.148-0.589h0.148l-0.148-0.516l0.148-2.579
				l-0.148-1.142l0.332-2.431l-0.332-1.327l0.332-1.068l-0.184-0.956l0.184-0.186v-0.184c-0.294-1.474-0.847-2.211-1.658-2.211
				h-1.473c-0.54,0-1.29,0.504-2.247,1.51h-0.147v-0.183c1.867-2.996,3.536-4.494,5.01-4.494c1.916,0,3.463,0.503,4.642,1.51
				c0.785-0.761,1.583-1.203,2.394-1.326l0.59,0.185v-0.185c0-0.319,0.675-0.553,2.026-0.7c0.467-0.394,0.958-0.589,1.474-0.589
				h0.184l0.369,0.368l1.142-0.368l0.184,0.184h0.185L315.227,227.809z M298.687,231.345v0.185h0.737v-0.185H298.687z
				 M299.424,230.792v0.369h0.221l0.368-0.369H299.424z M302.408,264.609v0.184c0.049,0.245,0.356,0.479,0.92,0.7v-0.332
				L302.408,264.609z M302.997,265.861v0.222l0.516,0.184v-0.405H302.997z M304.065,265.677l0.369,0.59l-0.553,0.186v0.183h0.184
				l1.142-0.368C305.207,265.996,304.827,265.8,304.065,265.677z M304.065,270.171v0.185l0.369-0.368v-0.186L304.065,270.171z
				 M304.434,269.029v0.221h0.221l0.552-0.221v-0.184h-0.184L304.434,269.029z M305.392,268.661h0.332l0.368-0.368h-0.368
				L305.392,268.661z M305.576,244.864v0.221h0.147c0.417-0.368,0.798-0.552,1.142-0.552v-0.369
				C306.005,244.386,305.576,244.619,305.576,244.864z M305.723,266.452v0.183h0.368v0.184l-0.184,0.186v0.183h0.589v-0.368
				l0.737,0.186h0.369v-0.186l-1.694-0.366H305.723z M307.049,267.777v0.146h0.184l0.185-0.737
				C307.172,267.187,307.049,267.384,307.049,267.777z M308.707,263.836l-0.185,0.957h0.369v-0.369c0.393,0,0.589-0.135,0.589-0.404
				l-0.221-0.184H308.707z M309.665,242.653v0.774h0.184v-0.774H309.665z M309.665,267.924v0.369h0.736v-0.185L309.665,267.924z
				 M310.033,282.99l-0.368,0.7h0.368l0.185-0.516v-0.185H310.033z M310.585,234.145l0.221,2.21l-0.406,0.406l0.185,0.109v2.101
				l0.221,1.289h-0.221l0.221,0.185v0.184c0,0.539-0.319,1.153-0.958,1.842h0.552v0.553l-0.184,0.184l0.184,0.222v4.236
				l-0.184,0.773l0.368,1.657l-0.185,0.736l3.315,3.758v0.185c-0.024,0.245-0.577,0.798-1.657,1.657c0,0.614-0.614,1.352-1.842,2.21
				c0.393,0,0.589,0.124,0.589,0.369l-0.221,1.842l0.221,1.73l-0.406,0.701l0.185,1.141l-0.185,0.186l0.406,0.368l-0.221,3.131
				l0.221,0.553l-0.221,0.958l0.221,1.068l-0.406,3.757l0.185,0.185v0.184l-0.185,0.553l0.185,0.884l-0.185,0.186l0.406,0.404
				l-0.221,0.921c0,0.491,0.369,0.798,1.105,0.921l0.185-0.185h0.184l0.773,0.185c2.579-0.27,3.868-0.762,3.868-1.474
				c0.663,0,1.339-1.792,2.026-5.378h0.184l-0.184-1.842l0.184-0.958l-0.184-0.921c0.098-1.572,0.295-2.505,0.589-2.8v-0.147
				c-0.393,0-0.589-0.123-0.589-0.368l0.184-5.01c0-1.203-0.356-2.137-1.068-2.799l0.185-0.186v-0.368
				c-0.516,0-0.774-0.319-0.774-0.958l-0.185,0.186h-0.184l-0.957-0.885v-0.185c1.203-1.203,2.271-2.577,3.204-4.126h0.185
				c-0.393-1.521-0.589-2.946-0.589-4.272h0.184l-0.184-0.185v-6.337c0-2.602-0.737-4.271-2.21-5.009
				c-0.638-0.319-1.744-0.552-3.315-0.699l-0.773,0.184l-0.184-0.184v-0.186L310.585,234.145z M320.237,236.539v0.222h0.405
				l0.516-0.222v-0.185h-0.331L320.237,236.539z M321.158,271.092l0.553,0.553h0.184v-0.369L321.158,271.092z M321.895,235.434
				v0.368l0.773-0.368v-0.184h-0.184L321.895,235.434z M322.668,271.829v0.184l0.921,0.185c0-0.245-0.184-0.368-0.553-0.368H322.668
				z M325.836,272.971v0.332h0.7v-0.185L325.836,272.971z"/>
			<path fill="#FFFFFF" d="M338.913,231.418c0.54,0,1.301,0.455,2.284,1.363c0.638-0.811,1.24-1.216,1.805-1.216
				c3.291,0,5.415,1.266,6.373,3.795l-2.137-0.59c-1.4,0.123-2.1,0.528-2.1,1.216l0.148,3.942v0.884l-0.148,1.215l0.148,1.216
				l-0.148,1.069l0.148,1.363v3.498l2.431,3.021v0.295c-0.712,1.007-1.276,1.511-1.694,1.511l0.185,0.184v0.147
				c-0.614,0.541-0.97,1.24-1.069,2.1l0.148,2.874v2.578h-0.294v1.4l0.146,0.884l-0.146,0.146v0.148l0.294,1.841l-0.148,3.499
				l0.148,0.443l-0.148,0.589c1.056,1.229,1.756,1.843,2.1,1.843c0.589,0,1.252-0.259,1.989-0.774h0.147
				c0,1.155-1.118,2.063-3.353,2.727l-0.147-0.147h-0.147c-0.884,0.712-1.584,1.068-2.1,1.068c-1.056,0-1.916-0.406-2.579-1.216
				c0,0.441-0.859,0.699-2.578,0.773c-2.48-0.441-4.199-1.204-5.157-2.283l-0.773-0.922l0.147-0.147l1.842,0.922
				c1.596-0.491,2.394-1.253,2.394-2.285l-0.147-0.146v-0.921l0.332-0.442l-0.332-1.216l0.147-0.147l-0.147-1.842v-0.295
				c0-3.094,0.11-5.219,0.332-6.372l-0.332-0.884l0.147-0.922l-0.147-1.51v-0.479l-2.247-2.873c1.596-1.989,2.394-3.303,2.394-3.94
				l0.185-2.726l-0.332-1.363v-0.443l0.478-4.125c-0.343,0-0.552-0.959-0.626-2.874l0.148-0.442c0-0.908-0.749-1.522-2.247-1.841
				h-0.185c-0.614,0-1.167,0.259-1.658,0.773v-0.296c0.933-1.645,2.604-2.86,5.01-3.646H338.913z M337.698,235.655
				c0,0.221,0.147,0.331,0.442,0.331h0.147v-0.185L337.698,235.655z M337.698,255.694v0.146h0.294l0.479-0.626v-0.147l-0.626,0.627
				H337.698z M338.471,254.773v0.147h0.294l0.442-0.59v-0.147c-0.148,0-0.295,0.197-0.442,0.59H338.471z M339.502,255.989v0.147
				h0.626v-0.296L339.502,255.989z M339.834,252.968l-0.147,0.442h0.294v-0.442H339.834z M340.571,251.752l-0.295,0.59v0.295h0.147
				l0.295-0.736v-0.148H340.571z M340.423,235.36v0.147l1.069-0.147v-0.147h-0.627L340.423,235.36z M341.197,267.814v0.146
				l0.589,0.147c0-0.196-0.147-0.294-0.442-0.294H341.197z M341.492,266.745v0.295h0.442v-0.147L341.492,266.745z M341.786,249.911
				l-0.147,0.479h0.295v-0.479H341.786z M341.786,235.064l0.295,0.296h0.147v-0.296H341.786z M342.081,249.322l-0.147,0.441h0.294
				l0.185-0.441H342.081z M342.413,267.225v0.147l0.59,0.146h0.146v-0.146l-0.589-0.147H342.413z M342.56,248.548v0.147l0.294-0.294
				v-0.148L342.56,248.548z M342.707,234.771v0.294l0.59-0.146v-0.147H342.707z M342.707,253.705v0.147l0.442-0.442h-0.146
				L342.707,253.705z M342.707,268.587v0.295l0.59,0.147L342.707,268.587z M343.297,247.185l-0.148,0.479v0.147h0.148l0.332-0.627
				H343.297z M343.628,246.264v0.332l0.442-0.147v-0.331L343.628,246.264z M343.628,267.666v0.295h0.737l0.147,0.147h0.147v-0.294
				h-0.736l-0.148-0.148H343.628z"/>
			<path fill="#FFFFFF" d="M363.042,231.271h1.879c0.736,0.294,1.412,0.442,2.025,0.442c0,0.294,0.43,0.479,1.29,0.552l2.173,1.621
				c1.179-0.859,1.953-1.633,2.321-2.321h0.147v1.585l0.147,0.146v0.147c-0.147,0-0.295,0.196-0.442,0.59
				c0.294,0,0.442,0.086,0.442,0.258v0.442l-0.147,0.147l0.147,0.146v0.147l-0.147,0.148l0.147,0.146v0.737l-0.147,0.847
				l0.147,0.147v0.147l-0.147,0.441l0.147,0.442l-0.295,0.258l0.295,0.294l-0.147,0.737l0.147,0.442l-0.295,0.552l0.295,0.296
				l-0.147,0.146l0.147,0.148v0.146l-0.147,2.763v0.147l-0.147,0.148v0.11l0.295,0.294v0.736l-0.442,0.59l0.442,0.699v0.296
				l-0.295,0.294h-3.905l-0.147-0.147l-0.147,0.147h-0.7l-0.147-0.147h-0.147l-0.147,0.147l-0.148-0.442l0.148-2.32l-0.148-0.146
				v-0.11l0.295-0.885l-0.295-0.295v-0.589h0.295v-0.148l-0.295-0.404v-0.147l0.295-0.294c0-2.138-0.626-3.636-1.879-4.495
				c0-0.246-0.872-0.492-2.615-0.736v-0.11l-0.737,0.257v-0.146c-1.252,0.981-1.878,2.382-1.878,4.198l-0.258,0.296v0.295l0.11,1.03
				l-0.11,0.147l0.258,0.259v1.62h-0.258l0.11,0.7v0.442l-0.11,0.884l0.258,0.848l-0.148,0.146l0.148,0.147v0.295l-0.258,1.29
				l0.11,0.588h-0.11l0.258,1.144v0.588l-0.148,0.59c0,0.246,0.823,1.253,2.468,3.021c-0.368,0.639-1.043,1.363-2.026,2.174
				l-0.552,2.173v0.736l0.11,0.554l-0.11,0.589l0.258,0.589l-0.258,1.143l0.258,1.032l-0.258,0.294l-0.737-0.294h-0.147v0.146
				c0.663,0.073,0.994,0.307,0.994,0.7l-0.11,0.884l0.258,1.142l-0.148,0.148v0.147c0.614,2.504,1.535,3.757,2.763,3.757h0.884
				c2.407-1.007,3.61-2.443,3.61-4.309l0.147-0.149l0.405,0.149h0.442v-0.149c-0.761,0-1.142-0.393-1.142-1.178l0.147-0.147
				l-0.147-0.848l0.147-1.731l-0.147-0.884l0.147-0.147h0.295l0.258,0.294l0.442-0.146l4.199-0.147v0.441h-0.147l0.294,2.469v1.731
				l-0.294,0.443l0.294,0.404l-0.147,0.736v0.441h-0.442v-0.294h-0.258c0,0.294,0.185,0.441,0.553,0.441l0.147,0.148v0.146
				c-0.712,2.112-1.964,3.697-3.757,4.753c-1.204,1.546-3.328,2.32-6.373,2.32c-0.712,0-2.198-0.725-4.458-2.174
				c-1.302-1.522-2.32-2.873-3.058-4.052v-0.295l0.147-0.442h-0.147c-0.196,0-0.626-0.958-1.289-2.872l0.147-0.148l-0.737-0.884
				l-0.737-3.021l-0.258-1.731l0.111-0.146v-0.146c0-1.426-0.86-2.825-2.579-4.201l-0.442-0.589l2.026-2.431l0.442-2.469
				l-0.147-0.146c0.098-1.154,0.245-1.83,0.442-2.026l-0.147-0.59l0.295-0.589l-0.147-0.405c0.884-4.126,1.695-6.692,2.431-7.699
				c0.074-0.565,0.271-0.848,0.589-0.848v-0.294c0-0.713,0.344-1.29,1.031-1.731c0.271-1.105,1.228-2.025,2.874-2.763
				c0.098-0.319,0.626-0.602,1.584-0.848C360.573,231.517,361.396,231.271,363.042,231.271z M354.09,264.683v0.442l0.552-0.295
				l-0.147-0.147v-0.147L354.09,264.683z M355.674,263.54c-0.197,0.442-0.393,0.688-0.589,0.737v-0.147l-0.442,0.147v0.258
				l0.147-0.111h0.294l0.147,0.111h0.147c0-0.368,0.246-0.602,0.736-0.699v-0.148L355.674,263.54z M355.969,237.35h0.257v-0.295
				c0.295,0,0.442-0.098,0.442-0.294h-0.147L355.969,237.35z M357.553,262.104c0,0.245-0.294,0.478-0.884,0.699v0.295l1.032-0.848
				v-0.146H357.553z M357.553,235.324l-0.147,0.146v0.147h0.147l0.442-0.147v-0.146H357.553z M357.847,262.95l-0.147,0.443h0.994
				v-0.147l-0.552-0.296H357.847z M359.284,263.099l-0.147,0.147v0.147l0.737,0.294h0.147v-0.147L359.284,263.099z M363.631,235.618
				l-0.147,0.147v0.146h0.442L363.631,235.618z M364.183,235.176l-0.11,0.148v0.294h0.11l0.147-0.442H364.183z M364.183,234.734
				v0.147h0.589v-0.147H364.183z M365.951,233.297v0.442h0.148l0.11-0.442H365.951z M367.241,233.297v0.147h0.148
				c0-0.294,0.147-0.441,0.442-0.441l0.147-0.442h-0.147C367.634,232.61,367.437,232.855,367.241,233.297z M367.389,237.202v0.147
				l0.7,0.294v-0.294l-0.553-0.147H367.389z M368.383,239.081v0.295h0.442v-0.147L368.383,239.081z M368.973,266.155v0.147h0.441
				v-0.294L368.973,266.155z M369.267,238.934l0.589,0.885v0.146h0.257l-0.11-0.146v-0.149l0.11-0.146v-0.146
				C369.868,239.376,369.586,239.229,369.267,238.934z M369.561,266.708v0.148l0.443,0.147v-0.296H369.561z M370.114,266.856v0.294
				h0.737v-0.146L370.114,266.856z M370.262,240.112v0.258h0.294c0,0.295,0.147,0.442,0.442,0.442v0.295h0.295l-0.737-0.995H370.262
				z M372.141,241.4v0.591h0.295c0.196,0,0.294-0.147,0.294-0.441V241.4h-0.147v0.296h-0.295V241.4H372.141z"/>
			<path fill="#FFFFFF" d="M398.037,231.05h0.148c0,0.197,0.146,0.295,0.441,0.295l0.147,4.053c0,0.712-0.294,1.29-0.884,1.731
				l0.148-0.147h0.148l0.146,0.147h0.147v-0.441l0.294,0.294l-0.147,1.178l0.147,3.61v2.469c0,0.785-0.196,1.179-0.588,1.179
				l-1.143-0.148l-0.589,0.148l-1.142-0.148l-1.179,0.148l-0.147-1.327l0.147-1.73l-0.147-0.59l0.442-0.847
				c-0.295-0.099-0.442-0.394-0.442-0.885l0.147-1.031c0-0.884-1.117-1.792-3.352-2.726l-0.847-0.147
				c-1.989,0-3.242,0.381-3.757,1.142h-0.147c-0.197,3.88-0.393,6.055-0.589,6.521c0.221,0,0.368,0.344,0.442,1.032l-0.295,1.583
				l0.295,0.295l-0.147,0.147l0.147,0.147v0.147l-0.147,0.847c0,1.179,0.331,1.769,0.994,1.769l1.179-0.441l1.584,0.294
				c0.859-0.246,1.289-1.02,1.289-2.321c0-0.564-0.332-1.104-0.995-1.619v-0.259h0.147c1.94,0.516,2.91,1.375,2.91,2.578l0.148,0.59
				v0.146c0,1.327-0.294,2.298-0.884,2.911c0,0.466,0.197,0.699,0.59,0.699l0.405,1.916c-0.467,2.014-1.474,3.021-3.021,3.021
				l-0.737,0.147v-0.147c0.884-0.908,1.327-1.633,1.327-2.174c0-0.246-0.541-0.441-1.621-0.589h-0.442l-0.995,0.147l-0.147-0.147
				v-0.11c-1.252,0.073-1.879,0.356-1.879,0.848l0.295,0.588l-0.147,3.022l0.147,0.146v0.147l-0.295,1.178v0.443h0.295v0.847
				l-0.295,0.885l0.148,0.146v0.147l-0.148,0.995l0.148,1.62h-0.148l0.442,1.289l-0.294,0.296l0.147,0.441l-0.147,0.147v0.147
				l0.294,0.7l-0.294,0.294c0.368,0.442,0.552,0.921,0.552,1.437l2.062,0.59c1.695,0,3.573-0.872,5.636-2.616l0.147-1.584
				l-0.147-0.146v-0.147l0.147-1.731l-0.147-0.147v-0.147l0.295-0.883l-0.295-1.143l0.295-0.295l-0.295-0.441v-0.406l0.147-0.147
				v-0.146l1.584,0.294l0.442-0.294l1.473,0.146h0.847l0.147,0.147h0.147l-0.294,0.848v0.147l0.294,1.179v0.405l-0.294,1.179
				l0.294,0.847v0.442c-0.196,0.393-0.491,0.589-0.884,0.589v0.296l0.737-0.443l0.147,1.032v0.552
				c-0.049,1.057-1.646,2.947-4.789,5.674c-2.407,1.154-3.954,1.731-4.642,1.731l-0.147-0.148l-0.7,0.148h-0.59
				c-2.48,0-4.47-0.725-5.968-2.174c-0.712,0.688-1.24,1.03-1.583,1.03h-0.737c-1.399,0-3.033-0.772-4.899-2.319l-0.294-0.295
				l-0.442-0.59l0.147-0.146c0.909,0.589,1.535,0.884,1.879,0.884h0.737c0.859-0.394,1.29-1.031,1.29-1.915l-0.148-0.553
				l0.295-0.295l-0.295-0.736l0.148-0.995l-0.148-1.179l0.295-0.294l-0.442-0.443l0.147-1.878l-0.147-0.405l0.147-1.326v-0.59
				l0.148-0.147l-0.295-0.552l0.147-2.321v-0.59l-0.147-0.884l0.295-0.552c-0.197,0-0.295-0.147-0.295-0.443l0.147-1.031
				l-0.295-0.294h0.295v-0.11c-0.54,0-1.019-0.541-1.437-1.621l0.295-0.295l-0.148-0.147h-1.031v-0.147l2.173-2.726v-1.474
				l0.147-0.847l-0.147-0.442l0.295-1.731c-0.197,0-0.295-0.146-0.295-0.441l0.147-2.026l-0.147-0.147v-0.147l0.295-1.142
				l-0.295-0.59l0.147-1.031c-0.074-2.603-0.172-3.905-0.295-3.905l-2.32-0.736l-1.437,1.031h-0.147v-0.147
				c0-1.227,1.449-2.479,4.347-3.758h1.326c0.835,0,1.608,0.431,2.32,1.29c2.137-1.253,3.586-1.879,4.347-1.879l2.026,0.147
				l1.584-0.295c0,0.246,0.626,0.394,1.879,0.442l4.052,1.731C396.109,233.371,396.931,232.598,398.037,231.05z M378.476,251.494
				l-0.147,0.148v0.147h0.147l0.442-0.147v-0.148H378.476z M378.476,253.816v0.146h0.442v-0.295L378.476,253.816z M378.918,234.255
				l-0.147,0.405v0.147h0.147l0.294-0.295v-0.11l0.147,0.11h0.552v-0.11l-0.7-0.147l-0.147,0.147L378.918,234.255z M381.386,250.169
				c-0.172,0.393-0.516,0.59-1.031,0.59v0.295l1.437-0.738v-0.146H381.386z M380.355,252.342h0.147l0.589-0.258v-0.146h-0.147
				C380.552,252.084,380.355,252.22,380.355,252.342z M382.675,249.469v0.295l0.442-0.147v-0.294L382.675,249.469z M383.265,249.174
				l0.294,0.295h0.553l-0.258-0.295H383.265z M384.112,248.438v0.147h0.442v-0.295L384.112,248.438z M384.407,232.34
				c0,0.196,0.147,0.294,0.442,0.294h0.147v-0.146L384.407,232.34z M384.554,247.59v0.147l0.295,0.258l0.294-0.258l-0.441-0.147
				H384.554z M386.175,274.406v0.111l0.7-0.404v-0.147h-0.147L386.175,274.406z M387.169,233.812l0.295,0.296h0.147l-0.294-0.296
				H387.169z M387.169,273.818h0.148l0.294-0.296h-0.147L387.169,273.818z M389.049,272.639h0.147l0.295-0.294h-0.148
				L389.049,272.639z M389.785,234.956v0.146l0.885,0.295h0.11v-0.147l-0.847-0.294H389.785z M391.075,270.908v0.147h0.147
				l0.884-0.295v-0.295L391.075,270.908z M391.369,250.169v0.146l0.589-0.699v-0.147L391.369,250.169z M392.4,270.466h0.147
				l0.294-0.295h-0.146L392.4,270.466z M392.99,236.981l0.7,0.59v-0.296l-0.589-0.294H392.99z M393.542,269.766h0.147l0.442-0.441
				h-0.147L393.542,269.766z M394.722,240.48h0.146l0.295-0.294h-0.148L394.722,240.48z M395.016,268.882h0.148l0.258-0.295h-0.111
				L395.016,268.882z M396.158,267.851v0.294l0.442-0.147v-0.146H396.158z M397.189,267.15l-0.295,0.295v0.147h0.295l0.295-0.442
				H397.189z M397.042,240.775c0,0.197,0.43,0.43,1.289,0.699h0.147v-0.146L397.042,240.775z M397.631,237.423v0.442h0.257v-0.442
				H397.631z"/>
			<path fill="#FFFFFF" d="M413.729,227.735c2.85,0,5.206,1.718,7.072,5.156h-0.183c-0.786-0.638-1.56-0.958-2.321-0.958h-0.368
				c-1.448,0-2.284,0.774-2.506,2.321l0.222,1.511l-0.222,4.053l-0.367,0.368l0.185,0.184v0.185l-0.368,0.404l0.368,0.553
				l-0.185,0.958l0.367,0.405l-0.367,0.368l0.367,1.362l-0.367,0.959l0.367,0.368v0.368l-0.183,0.773l0.183,0.773v0.185
				l-0.367,0.589v0.186l1.141,3.241c0.443,0,1.205,0.712,2.286,2.136c-2.162,2.529-3.242,4.113-3.242,4.752l-0.185,1.18l0.367,1.51
				l-0.183,2.688l0.183,2.101l-0.367,0.404v0.186l0.367,0.552l-0.183,1.179l0.183,2.468v0.405l-0.367,0.553l0.367,0.405
				l-0.183,0.185v0.185l0.404,0.368v1.73c0,2.555,1.204,3.831,3.61,3.831c2.21,0,4.125-2.1,5.747-6.299l0.184-2.136l-0.368-1.143
				v-0.184h0.958v-0.369l-0.185,0.185h-0.221l-0.737-0.405l0.185-1.142l-0.185-3.427c0.074-0.786,0.259-1.179,0.553-1.179h0.958
				l0.405,0.405l0.184-0.184l1.915,0.184l3.058-0.405l0.185,0.222l-0.185,3.83v0.959l-0.403,0.367
				c0.392,1.498,0.588,3.095,0.588,4.79c-0.588,2.799-1.351,4.641-2.283,5.525c-1.425,2.432-2.64,3.646-3.647,3.646
				c0,0.614-1.019,1.069-3.058,1.363l-0.589-0.221c0,0.786-1.842,1.179-5.525,1.179c-1.769,0-4.004-0.772-6.705-2.321l-0.405,0.406
				l-0.184-0.221h-0.185l-1.326,0.405c-2.48,0-5.292-1.094-8.435-3.279l-0.185-0.184v-0.369h0.185l3.056,0.553
				c1.401-0.466,2.101-1.289,2.101-2.468c0-0.515,0.136-0.773,0.405-0.773l-0.185-0.958l0.368-0.552l-0.368-0.59v-0.773l0.185-0.958
				l-0.185-0.185h-0.221l0.221-1.915v-3.241l0.185-0.186l-0.185-0.589l-0.221-3.463l0.221-1.142l-0.221-0.958l0.221-1.51
				c0-1.204-0.957-2.738-2.873-4.605c1.597-1.768,2.678-3.426,3.241-4.973c-0.392-0.908-0.589-1.805-0.589-2.689l0.405-2.099
				l-0.405-2.321l0.405-2.468l-0.185-0.773v-0.186l0.185-0.183v-0.222l-0.405-0.369v-2.283c-0.393-2.701-1.277-4.053-2.652-4.053
				h-0.405c-0.564,0-1.266,0.394-2.099,1.18l-0.185-0.222c0.542-1.448,1.498-2.591,2.873-3.425h0.186l0.773,0.368h0.183v-0.185
				l-0.773-0.184c1.13-1.032,2.544-1.548,4.236-1.548c1.204,0,2.347,0.577,3.427,1.731
				C411.397,228.374,412.551,227.735,413.729,227.735z M404.925,230.424l0.368,0.368h0.185l-0.368-0.368H404.925z M406.436,230.977
				v0.405l0.59,0.184v-0.368L406.436,230.977z M406.436,247.48v0.184l0.404-0.406v-0.184L406.436,247.48z M407.025,247.848h0.183
				l0.37-0.367h-0.185L407.025,247.848z M407.799,245.933l-0.405,0.589h0.405l0.184-0.589H407.799z M407.578,276.176h0.221
				l0.368-0.368h-0.185L407.578,276.176z M408.351,231.934v0.222l0.59,0.185v-0.406H408.351z M408.535,275.586l-0.185,0.222v0.184
				h0.185l0.59-0.184v-0.222H408.535z M409.493,275.439l-0.185,0.146v0.222h0.589L409.493,275.439z M409.493,232.34v0.184h0.773
				v-0.184H409.493z M409.677,244.017v0.185l0.59-0.553h-0.185L409.677,244.017z M410.45,245.343v0.222l0.59-0.59h-0.185
				L410.45,245.343z M410.636,275.033v0.185h0.404l0.552-0.185v-0.184h-0.368L410.636,275.033z M411.224,243.06v0.184l0.368-0.368
				v-0.185L411.224,243.06z M411.998,274.481v0.185h0.185c0.982-0.172,1.878-0.553,2.689-1.144h-0.185
				C413.361,274.162,412.464,274.481,411.998,274.481z M413.324,241.144h0.184l0.405-0.368h-0.185L413.324,241.144z
				 M421.943,278.864l0.369,0.369h0.184l-0.368-0.369H421.943z M423.27,279.417l0.405,0.405h0.186l-0.405-0.405H423.27z
				 M425.591,280.596v0.185l1.326,0.185v-0.369H425.591z M427.284,264.498v0.405l0.59-0.221v-0.185H427.284z M428.647,266.818v0.368
				c1.253-0.465,1.953-0.907,2.101-1.325h-0.185C429.876,266.499,429.237,266.818,428.647,266.818z M430.933,264.683v0.221
				l0.369-0.405v-0.185L430.933,264.683z"/>
			<path fill="#FFFFFF" d="M438.483,231.418c0.541,0,1.303,0.455,2.284,1.363c0.639-0.811,1.241-1.216,1.805-1.216
				c3.291,0,5.416,1.266,6.373,3.795l-2.137-0.59c-1.399,0.123-2.1,0.528-2.1,1.216l0.148,3.942v0.884l-0.148,1.215l0.148,1.216
				l-0.148,1.069l0.148,1.363v3.498l2.43,3.021v0.295c-0.712,1.007-1.276,1.511-1.694,1.511l0.186,0.184v0.147
				c-0.614,0.541-0.971,1.24-1.069,2.1l0.148,2.874v2.578h-0.296v1.4l0.147,0.884l-0.147,0.146v0.148l0.296,1.841l-0.148,3.499
				l0.148,0.443l-0.148,0.589c1.057,1.229,1.756,1.843,2.1,1.843c0.59,0,1.252-0.259,1.989-0.774h0.147
				c0,1.155-1.117,2.063-3.353,2.727l-0.147-0.147h-0.146c-0.884,0.712-1.585,1.068-2.1,1.068c-1.056,0-1.915-0.406-2.579-1.216
				c0,0.441-0.859,0.699-2.577,0.773c-2.481-0.441-4.2-1.204-5.159-2.283l-0.773-0.922l0.147-0.147l1.843,0.922
				c1.596-0.491,2.394-1.253,2.394-2.285l-0.146-0.146v-0.921l0.332-0.442l-0.332-1.216l0.146-0.147l-0.146-1.842v-0.295
				c0-3.094,0.11-5.219,0.332-6.372l-0.332-0.884l0.146-0.922l-0.146-1.51v-0.479l-2.247-2.873c1.596-1.989,2.394-3.303,2.394-3.94
				l0.186-2.726l-0.332-1.363v-0.443l0.478-4.125c-0.343,0-0.552-0.959-0.626-2.874l0.148-0.442c0-0.908-0.749-1.522-2.247-1.841
				h-0.185c-0.614,0-1.168,0.259-1.658,0.773v-0.296c0.934-1.645,2.604-2.86,5.011-3.646H438.483z M437.269,235.655
				c0,0.221,0.146,0.331,0.441,0.331h0.146v-0.185L437.269,235.655z M437.269,255.694v0.146h0.295l0.479-0.626v-0.147l-0.628,0.627
				H437.269z M438.043,254.773v0.147h0.293l0.442-0.59v-0.147c-0.148,0-0.295,0.197-0.442,0.59H438.043z M439.073,255.989v0.147
				h0.626v-0.296L439.073,255.989z M439.405,252.968l-0.147,0.442h0.294v-0.442H439.405z M440.142,251.752l-0.295,0.59v0.295h0.146
				l0.296-0.736v-0.148H440.142z M439.993,235.36v0.147l1.069-0.147v-0.147h-0.627L439.993,235.36z M440.768,267.814v0.146
				l0.589,0.147c0-0.196-0.147-0.294-0.441-0.294H440.768z M441.062,266.745v0.295h0.442v-0.147L441.062,266.745z M441.356,249.911
				l-0.147,0.479h0.296v-0.479H441.356z M441.356,235.064l0.296,0.296h0.146v-0.296H441.356z M441.652,249.322l-0.147,0.441h0.294
				l0.184-0.441H441.652z M441.982,267.225v0.147l0.59,0.146h0.147v-0.146l-0.589-0.147H441.982z M442.131,248.548v0.147
				l0.295-0.294v-0.148L442.131,248.548z M442.278,234.771v0.294l0.589-0.146v-0.147H442.278z M442.278,253.705v0.147l0.441-0.442
				h-0.147L442.278,253.705z M442.278,268.587v0.295l0.589,0.147L442.278,268.587z M442.867,247.185l-0.147,0.479v0.147h0.147
				l0.332-0.627H442.867z M443.199,246.264v0.332l0.442-0.147v-0.331L443.199,246.264z M443.199,267.666v0.295h0.736l0.147,0.147
				h0.146v-0.294h-0.735l-0.148-0.148H443.199z"/>
			<path fill="#FFFFFF" d="M463.165,231.492l0.884,0.147l0.147-0.147h0.147l0.736,0.147l0.59-0.147
				c2.16,0.492,3.242,0.885,3.242,1.179l0.146-0.147h0.294c0.418,0,1.352,0.54,2.801,1.621h0.147c0-0.245,0.195-0.393,0.589-0.441
				c0-0.197,0.196-0.295,0.589-0.295c0-0.468,0.442-1.056,1.326-1.769l0.147,0.147l-0.147,1.03l0.147,0.591l-0.147,0.147
				l0.147,1.031v1.031c-0.491-0.196-1.229-0.294-2.21-0.294l0.147,0.441l2.062,0.294l-0.147,0.737l0.147,2.652l-0.147,2.21
				l0.147,0.885l-0.147,1.769v0.441l-0.147,0.146l0.147,0.442l-0.147,0.737h0.295v0.294l-0.295,0.296l-0.146-0.148h-0.148
				l-0.884,0.148l-0.147-0.148h-0.146l-0.59,0.148h-0.294l-0.147-0.148l-0.147,0.148h-0.147l-0.147-0.148l-0.147,0.148h-0.295
				l-0.295-0.296v-0.589l0.147-0.589l-0.147-0.147V244.9l0.147-0.146v-0.148l-0.147-0.146v-0.146l0.147-0.148v-0.147l-0.147-0.589
				l0.147-0.148v-0.146l-0.147-0.885l0.147-1.03c-0.196-0.663-0.835-1.743-1.915-3.241c0-0.197-0.147-0.296-0.442-0.296
				c0-0.196-0.196-0.295-0.589-0.295c0-0.393-0.295-0.589-0.884-0.589v-0.295h-0.295v0.147l-1.622-0.295l-0.147,0.147h-0.146
				l-0.59-0.147l-0.59,0.147v-0.147c-1.57,0.516-2.357,1.352-2.357,2.506l-0.294,1.326l0.147,0.441l-0.295,1.474l0.147,0.442
				l-0.147,0.441l0.147,1.327v0.293l-0.295,0.443v0.147c0.295,0,0.442,0.098,0.442,0.294v0.295l-0.147,1.621l0.147,0.147v0.146
				l-0.147,0.147v0.147l0.147,1.621v0.295l-0.147,0.147v0.147h0.147l0.295-0.295l2.799,0.295c1.376-0.196,2.064-0.54,2.064-1.032
				c0-0.835-0.492-1.62-1.475-2.357v-0.146h0.146c0.345,0,0.885,0.245,1.621,0.736c0.614,0,1.303,0.981,2.064,2.946l-0.296,0.296
				l0.296,0.736c-0.173,0.81-0.369,1.252-0.59,1.325c0.393,0.639,0.59,1.277,0.59,1.917c0,1.301-1.13,2.332-3.391,3.093h-0.441
				v-0.294c0.491,0,0.933-0.54,1.327-1.621c-0.541-0.49-0.982-0.737-1.327-0.737l-0.59,0.296l-0.146-0.148v-0.147l-1.621,0.296
				v-0.148l-0.147,0.148h-0.295l-0.147-0.148l-0.736,0.148v0.295l-0.147,1.473l0.147,0.589l-0.295,1.474h0.295v0.147l-0.147,5.895
				l0.147,1.621l-0.147,0.736l0.147,0.589l-0.147,1.179c0,1.67,0.54,2.751,1.621,3.242l0.884,0.295h0.442
				c0.638,0,1.474-0.344,2.504-1.031h0.147v0.146c0,0.885-1.178,1.866-3.535,2.947v-0.147l-0.147,0.147h-0.148l-0.588-0.294v0.146
				l0.146,0.442h-0.146l-1.621,0.146h-1.474c-0.491,0-1.129-0.343-1.916-1.031c-0.884,0.786-1.622,1.18-2.209,1.18h-0.296
				c-1.056,0-2.48-0.541-4.273-1.621l-1.326-1.62v-0.148h0.147l1.769,0.737c1.375,0,2.062-0.541,2.062-1.622l0.147-1.178
				l-0.147-0.737l0.147-0.146v-0.147l-0.147-0.442l0.147-0.442l-0.295-1.768l0.295-0.737l-0.295-3.389l0.147-2.21l-0.147-0.441
				h0.147l-0.147-0.147v-0.296l0.295-0.294l-0.295-1.031l0.147-1.18c0-1.374-0.786-2.603-2.357-3.683v-0.148l2.357-2.799
				l-0.147-1.474v-1.179l0.147-0.885l-0.147-0.589l0.147-1.032l-0.147-0.146l0.295-0.295v-0.146l-0.295-0.443v-0.147
				c0-0.688,0.099-1.228,0.295-1.62l-0.147-0.59c0.295,0,0.442-0.099,0.442-0.294c-0.393,0-0.59-0.147-0.59-0.442l0.147-0.147
				v-0.147l-0.147-0.146v-0.147l0.147-0.148v-0.146l-0.147-0.737l0.147-0.589l-0.294-1.474l0.146-0.442l-0.146-0.441l0.146-0.148
				l-0.146-0.147c-0.492-0.27-0.737-0.515-0.737-0.736h-0.884c-0.688,0-1.474,0.491-2.357,1.474l-0.147-0.147
				c0.908-2.161,2.137-3.535,3.683-4.125c1.007-0.295,1.891-0.443,2.654-0.443c0.539,0,1.374,0.541,2.503,1.622
				c1.057-0.983,1.892-1.474,2.506-1.474l0.147,0.147C460.365,231.86,461.299,231.615,463.165,231.492z M453.439,272.75v0.147h0.736
				v-0.442h-0.147L453.439,272.75z M454.618,233.113v0.146l0.295,0.296l0.737,0.295v-0.147l-0.885-0.59H454.618z M455.06,239.892
				l-0.294,0.589h0.147l0.737-0.589H455.06z M454.766,264.203l0.443,0.443v-0.148l-0.296-0.295H454.766z M454.913,239.449v0.146
				h0.442v-0.293L454.913,239.449z M455.65,264.793v0.296h0.294c0,0.293,0.099,0.44,0.295,0.44l0.146-0.147v-0.146L455.65,264.793z
				 M455.796,233.703c0,0.196,0.198,0.294,0.59,0.294l0.148,0.147v0.147l-0.148,0.146h0.442l0.148-0.441L455.796,233.703z
				 M455.796,272.75l0.297,0.295l0.588-0.147v-0.147H455.796z M455.944,239.596h0.441v-0.441L455.944,239.596z M456.828,238.86
				v0.294c0.466,0,1.155-0.441,2.063-1.326v-0.147C458.229,238.246,457.541,238.639,456.828,238.86z M456.828,265.973v0.294
				c0.59,0.123,0.884,0.368,0.884,0.737h0.296v-0.147l-1.031-0.884H456.828z M457.86,251.826v0.147l0.736,0.146h0.147l0.295-0.294
				l-0.737-0.147L457.86,251.826z M458.154,268.33v0.146l0.59,1.179h0.147v-0.736c-0.196,0-0.295-0.197-0.295-0.589H458.154z
				 M458.892,267.298v0.295h0.442l-0.147,0.147v0.147l-0.59-0.295h-0.146v0.147c0.884,0.172,1.325,0.466,1.325,0.884h0.59
				L458.892,267.298z M460.954,236.208v0.146l0.295,0.442l-1.474,0.295l0.146,0.147v0.294h-0.146l-0.147-0.147l-0.589,0.442h0.295
				c0.588-0.098,0.884-0.245,0.884-0.442l-0.147-0.146l0.441-0.147l0.442,0.147c0-0.197,0.147-0.295,0.442-0.295l0.884-0.59v-0.146
				l-0.147-0.148v-0.147l0.147-0.146h-0.147L460.954,236.208z M459.187,251.826h0.147l0.588-0.441h-0.146
				C459.382,251.532,459.187,251.679,459.187,251.826z M459.628,234.438c0,0.197,0.147,0.296,0.442,0.296h0.147v-0.147
				L459.628,234.438z M459.775,270.245v0.442h0.295l-0.148-0.442H459.775z M460.218,251.236h0.294l0.442-0.441v-0.146
				C460.512,250.844,460.267,251.04,460.218,251.236z M460.218,271.275v0.296l0.147,0.146h0.146l-0.146-0.442H460.218z
				 M460.512,234.734v0.147l0.737,0.146h0.147v-0.146l-0.589-0.147H460.512z M461.102,273.192v0.147
				c0.221,0,0.614,0.393,1.179,1.178h0.148c-0.541-0.884-0.935-1.325-1.18-1.325H461.102z M462.429,235.912v0.296h0.441v-0.442
				L462.429,235.912z M464.344,235.176l-0.59-0.147l-1.031,0.442v0.147l1.031,0.147l0.295-0.59l0.147,0.148h0.294
				c0.688-0.344,1.031-0.59,1.031-0.737h-0.147L464.344,235.176z M464.049,273.34l-0.295,0.736l0.146,0.147h0.148l0.295-0.442
				l-0.147-0.147l0.147-0.147l-0.147-0.146H464.049z M465.816,234.292h0.147l0.294-0.295h-0.146L465.816,234.292z M466.996,234.438
				c0,0.197-0.148,0.296-0.441,0.296v0.147h0.884L466.996,234.438z M468.027,232.817l-0.295,0.442h0.295l0.295-0.293v-0.149H468.027
				z M468.47,234.734l-0.147,0.441h0.736L468.47,234.734z M469.5,235.028v0.147l3.095,0.442v-0.294c-1.67,0-2.505-0.148-2.505-0.442
				L469.5,235.028z"/>
			<path fill="#FFFFFF" d="M499.817,231.05h0.147c0,0.197,0.147,0.295,0.442,0.295l0.147,4.053c0,0.712-0.296,1.29-0.884,1.731
				l0.146-0.147h0.147l0.147,0.147h0.146v-0.441l0.296,0.294l-0.147,1.178l0.147,3.61v2.469c0,0.785-0.197,1.179-0.59,1.179
				l-1.143-0.148l-0.588,0.148l-1.143-0.148l-1.179,0.148l-0.147-1.327l0.147-1.73l-0.147-0.59l0.442-0.847
				c-0.295-0.099-0.442-0.394-0.442-0.885l0.147-1.031c0-0.884-1.118-1.792-3.353-2.726l-0.848-0.147
				c-1.989,0-3.241,0.381-3.757,1.142h-0.148c-0.196,3.88-0.392,6.055-0.589,6.521c0.223,0,0.369,0.344,0.442,1.032l-0.295,1.583
				l0.295,0.295l-0.147,0.147l0.147,0.147v0.147l-0.147,0.847c0,1.179,0.332,1.769,0.994,1.769l1.179-0.441l1.585,0.294
				c0.858-0.246,1.289-1.02,1.289-2.321c0-0.564-0.331-1.104-0.994-1.619v-0.259h0.146c1.94,0.516,2.911,1.375,2.911,2.578
				l0.146,0.59v0.146c0,1.327-0.293,2.298-0.884,2.911c0,0.466,0.197,0.699,0.591,0.699l0.404,1.916
				c-0.466,2.014-1.474,3.021-3.021,3.021l-0.736,0.147v-0.147c0.884-0.908,1.326-1.633,1.326-2.174
				c0-0.246-0.541-0.441-1.621-0.589h-0.442l-0.995,0.147l-0.146-0.147v-0.11c-1.253,0.073-1.88,0.356-1.88,0.848l0.295,0.588
				l-0.147,3.022l0.147,0.146v0.147l-0.295,1.178v0.443h0.295v0.847l-0.295,0.885l0.147,0.146v0.147l-0.147,0.995l0.147,1.62h-0.147
				l0.441,1.289l-0.294,0.296l0.147,0.441l-0.147,0.147v0.147l0.294,0.7l-0.294,0.294c0.369,0.442,0.553,0.921,0.553,1.437
				l2.063,0.59c1.695,0,3.573-0.872,5.636-2.616l0.147-1.584l-0.147-0.146v-0.147l0.147-1.731l-0.147-0.147v-0.147l0.295-0.883
				l-0.295-1.143l0.295-0.295l-0.295-0.441v-0.406l0.147-0.147v-0.146l1.583,0.294l0.442-0.294l1.475,0.146h0.846l0.148,0.147h0.147
				l-0.296,0.848v0.147l0.296,1.179v0.405l-0.296,1.179l0.296,0.847v0.442c-0.197,0.393-0.492,0.589-0.884,0.589v0.296l0.736-0.443
				l0.147,1.032v0.552c-0.05,1.057-1.646,2.947-4.789,5.674c-2.407,1.154-3.954,1.731-4.642,1.731l-0.147-0.148l-0.7,0.148h-0.59
				c-2.479,0-4.468-0.725-5.966-2.174c-0.714,0.688-1.241,1.03-1.585,1.03h-0.737c-1.398,0-3.031-0.772-4.898-2.319l-0.295-0.295
				l-0.442-0.59l0.147-0.146c0.909,0.589,1.535,0.884,1.879,0.884h0.736c0.86-0.394,1.29-1.031,1.29-1.915l-0.147-0.553l0.294-0.295
				l-0.294-0.736l0.147-0.995l-0.147-1.179l0.294-0.294l-0.441-0.443l0.147-1.878l-0.147-0.405l0.147-1.326v-0.59l0.147-0.147
				l-0.295-0.552l0.147-2.321v-0.59l-0.147-0.884l0.295-0.552c-0.196,0-0.295-0.147-0.295-0.443l0.147-1.031l-0.294-0.294h0.294
				v-0.11c-0.541,0-1.019-0.541-1.437-1.621l0.294-0.295l-0.147-0.147h-1.031v-0.147l2.174-2.726v-1.474l0.147-0.847l-0.147-0.442
				l0.295-1.731c-0.196,0-0.295-0.146-0.295-0.441l0.147-2.026l-0.147-0.147v-0.147l0.295-1.142l-0.295-0.59l0.147-1.031
				c-0.074-2.603-0.172-3.905-0.294-3.905l-2.322-0.736l-1.436,1.031h-0.148v-0.147c0-1.227,1.449-2.479,4.348-3.758h1.326
				c0.835,0,1.608,0.431,2.32,1.29c2.137-1.253,3.585-1.879,4.346-1.879l2.027,0.147l1.583-0.295c0,0.246,0.627,0.394,1.879,0.442
				l4.052,1.731C497.89,233.371,498.712,232.598,499.817,231.05z M480.256,251.494l-0.146,0.148v0.147h0.146l0.443-0.147v-0.148
				H480.256z M480.256,253.816v0.146h0.443v-0.295L480.256,253.816z M480.699,234.255l-0.147,0.405v0.147h0.147l0.295-0.295v-0.11
				l0.147,0.11h0.552v-0.11l-0.699-0.147l-0.147,0.147L480.699,234.255z M483.167,250.169c-0.171,0.393-0.516,0.59-1.031,0.59v0.295
				l1.437-0.738v-0.146H483.167z M482.136,252.342h0.147l0.589-0.258v-0.146h-0.147C482.332,252.084,482.136,252.22,482.136,252.342
				z M484.457,249.469v0.295l0.441-0.147v-0.294L484.457,249.469z M485.046,249.174l0.295,0.295h0.552l-0.257-0.295H485.046z
				 M485.893,248.438v0.147h0.443v-0.295L485.893,248.438z M486.188,232.34c0,0.196,0.148,0.294,0.442,0.294h0.147v-0.146
				L486.188,232.34z M486.336,247.59v0.147l0.294,0.258l0.294-0.258l-0.441-0.147H486.336z M487.956,274.406v0.111l0.7-0.404v-0.147
				h-0.148L487.956,274.406z M488.951,233.812l0.295,0.296h0.146l-0.293-0.296H488.951z M488.951,273.818h0.147l0.293-0.296h-0.146
				L488.951,273.818z M490.829,272.639h0.147l0.295-0.294h-0.147L490.829,272.639z M491.566,234.956v0.146l0.884,0.295h0.11v-0.147
				l-0.848-0.294H491.566z M492.854,270.908v0.147h0.147l0.884-0.295v-0.295L492.854,270.908z M493.15,250.169v0.146l0.59-0.699
				v-0.147L493.15,250.169z M494.181,270.466h0.147l0.296-0.295h-0.147L494.181,270.466z M494.77,236.981l0.701,0.59v-0.296
				l-0.59-0.294H494.77z M495.323,269.766h0.147l0.442-0.441h-0.147L495.323,269.766z M496.502,240.48h0.146l0.296-0.294h-0.147
				L496.502,240.48z M496.797,268.882h0.147l0.258-0.295h-0.11L496.797,268.882z M497.938,267.851v0.294l0.441-0.147v-0.146H497.938
				z M498.971,267.15l-0.296,0.295v0.147h0.296l0.293-0.442H498.971z M498.822,240.775c0,0.197,0.431,0.43,1.29,0.699h0.146v-0.146
				L498.822,240.775z M499.413,237.423v0.442h0.258v-0.442H499.413z"/>
		</g>
	</g>
</g>
</svg>
