<?xml version="1.0" encoding="utf-8"?>
<!-- Generator: Adobe Illustrator 15.0.0, SVG Export Plug-In . SVG Version: 6.00 Build 0)  -->
<!DOCTYPE svg PUBLIC "-//W3C//DTD SVG 1.1//EN" "http://www.w3.org/Graphics/SVG/1.1/DTD/svg11.dtd">
<svg version="1.1" id="Layer_1" xmlns="http://www.w3.org/2000/svg" xmlns:xlink="http://www.w3.org/1999/xlink" x="0px" y="0px"
	 width="800px" height="800px" viewBox="0 0 800 800" enable-background="new 0 0 800 800" xml:space="preserve">
<title>sihouette</title>
<rect x="1.168" y="109.413" fill="#D37984" width="798.832" height="396.457"/>
<polygon fill="#BE1E2D" points="3.504,172.569 2.336,282.06 324.111,462.261 "/>
<polygon fill="#BE1E2D" points="429.397,464.752 482.663,110.581 377.845,109.413 "/>
<polygon fill="#BE1E2D" points="433.524,444.661 738.324,109.413 618.008,108.245 "/>
<polygon fill="#BE1E2D" points="135.734,112.216 385.477,487.803 255.271,110.503 "/>
<polygon fill="#BE1E2D" points="448.943,471.294 799.922,330.03 798.91,222.019 "/>
<path fill="#393939" d="M97.265,426.438c0.935-2.57,1.869-5.218,3.193-8.956l5.374-3.348l-3.037-0.857
	c2.258-3.815,5.295-7.787,7.164-12.227c2.181-4.983,1.869-11.369,8.956-12.927c0.39-0.078,0.701-1.012,0.857-1.635
	c4.361-12.849,10.824-25.153,10.357-39.249c0-1.869-0.467-3.816-1.324-5.451c-3.894-6.074-8.099-11.993-12.226-17.911l1.246-1.479
	l6.697,3.115c-0.779-5.841-1.558-11.604-2.336-17.366l2.726-0.467l3.971,15.264l1.09-0.156v-19.001l2.181-0.078l0.935,12.226
	l0.778,0.156c0.467-2.959,0.857-5.918,1.324-8.878l2.258-0.078c0.389,6.308,0.701,12.616,1.09,18.923l1.869,0.078
	c0.779-4.127,1.558-8.333,2.414-12.46h1.558v29.826c6.152-6.853,12.693-10.98,12.382-20.248c-0.312-8.488,4.75-15.185,9.89-21.415
	c0.856-1.09,3.66-1.713,4.828-1.09c1.558,1.012,2.492,2.726,2.57,4.517c-0.389,5.374-1.402,10.747-2.258,16.665
	c4.984,1.324,3.816,6.697,2.648,9.89c-1.402,3.582-5.529,6.074-8.722,9.267c0.779,1.402,2.258,2.959,2.492,4.672
	c0.312,2.181-0.078,4.361-1.09,6.308c-1.324,2.181-3.504,3.894-5.529,5.529c-3.816,3.115-5.997,6.697-5.218,11.837
	c0.156,1.246-0.545,2.726-1.012,4.595c14.095,4.205,22.194,13.161,20.403,29.28c2.804-11.603,5.607-23.207,8.488-34.731
	c0.312-1.324,1.246-3.115,2.414-3.583c10.279-3.738,11.37-13.161,13.161-21.727c1.635-8.254,1.947-16.82,2.881-25.231
	c0.078-0.935,1.012-1.791,2.103-3.504c0.234,3.738,0.39,6.464,0.545,9.345h12.771c1.09-5.062,2.259-10.668,3.427-16.197l1.168,0.078
	v27.49c5.062,1.401,8.177-8.099,15.03-2.025c-12.538,2.803-11.525,13.55-14.485,22.038l5.763-5.14l1.869,0.545
	c-7.787,7.398-4.672,13.861,0.233,20.403c0.935,1.246,0.234,3.66,0.545,5.529c0.312,1.479,0.701,3.738,1.713,4.049
	c4.672,1.713,4.205,4.595,3.894,8.722c-0.467,6.464,0.779,13.005,0.935,19.546c0.156,7.088-0.467,14.174-0.078,21.26
	c0.078,1.402,2.726,3.505,4.439,3.816c3.426,0.623,7.009,0.155,12.226,0.155c0.156-0.778,1.713-3.426,1.324-5.763
	c-1.246-7.008-1.246-13.395,1.246-20.402c2.258-6.152,1.324-13.395,3.271-19.702c1.168-3.738,4.595-7.476,7.943-9.734
	c3.349-2.258,7.943-2.726,12.071-3.349c7.32-1.168,9.111-4.595,5.373-11.058c-0.856-1.324-1.401-2.804-1.401-4.361l5.451,4.594
	l1.168-0.701c-1.324-3.037-2.726-6.074-4.672-10.513c2.336-0.156,4.75-1.012,6.542-0.233c1.869,0.935,3.271,2.57,3.894,4.594
	c2.024,7.165,4.906,14.173-0.156,21.805c-1.479,2.258,1.947,6.074,6.463,6.152c0,2.336,0.156,4.595,0.545,6.931
	c0.233,1.324,1.246,3.037,2.337,3.504c13.705,5.062,13.705,5.062,18.689,14.407c-0.468-10.513,2.804-20.714-3.505-30.215
	c-1.713-2.648-1.401-6.62-2.336-9.89c-3.504-12.148-14.095-17.678-23.284-24.375c-1.869-1.402-4.984-1.09-7.476-1.558l-0.312-1.791
	l12.849-1.791c-1.012-9.034-6.853-17.989-7.398-27.879l2.492-0.779c2.803,6.386,5.607,12.693,8.411,19.001l13.16-0.701
	c0.623-4.75,1.168-9.267,1.791-14.407c1.636,1.09,2.259,1.246,2.259,1.479c1.946,11.681,3.271,23.44,5.996,34.888
	c1.246,5.295,4.205,11.292,8.333,14.407c6.386,4.828,7.942,12.07,11.992,17.989c0.856,1.558,2.259,2.726,3.894,3.349
	c0.623-5.529,2.726-11.447,1.479-16.509c-1.168-4.828-5.918-8.8-9.5-13.706l4.75-8.099c-7.554-3.426-11.992-8.644-8.878-17.521
	h2.804c-1.168-5.607-2.492-11.058-3.115-16.587c-0.233-1.791,1.324-4.984,2.648-5.373c1.713-0.467,4.594,0.778,5.918,2.258
	c5.373,6.152,8.722,13.238,9.268,21.727c0.233,3.504,2.258,7.398,4.594,10.046c4.828,5.607,10.436,10.513,16.821,16.743
	c0.856-8.566,0.312-16.743,2.804-23.907c2.491-7.165,8.021-13.394,13.16-19.546c-1.09,3.115-2.103,6.23-3.738,11.058
	c6.152-5.373,5.841-14.796,15.42-14.562c-1.324,3.816-2.648,7.709-4.05,11.525l0.778,0.545l6.854-7.788l1.791,1.168
	c-3.037,4.829-6.074,9.734-9.268,14.874l9.034-1.635c-4.361,3.816-7.009,6.697-10.124,8.8c-9.89,6.775-9.968,6.619-9.656,18.689
	c7.943,6.308,13.628,13.939,14.952,22.583l13.472,11.136l5.918-2.258l1.169,1.324c-0.779,1.012-1.324,2.414-2.337,3.037
	c-7.164,4.517-8.644,10.279-8.021,18.612c0.778,11.447,7.709,19.779,12.537,29.747c3.895-1.557,5.451-3.737,3.037-8.177
	c-6.774-12.304-6.619-25.542-3.271-38.392c1.636-6.152,6.308-12.148,14.562-12.538c3.816-0.156,6.619-2.959,11.136-3.115
	c11.292-0.545,14.562,7.631,19.235,14.095c3.504,4.75,5.218,10.824,8.255,17.521c2.336-5.217,5.763-9.734,6.386-14.718
	c1.946-16.198,2.881-32.551,4.049-48.827c0.156-2.103-0.312-4.283-1.401-6.074c-3.349-5.217-7.087-10.124-10.747-15.107l1.091-1.479
	l5.451,1.947c-0.468-4.75-0.935-9.579-1.324-14.407l2.024-0.312l3.66,13.239l0.779-0.234v-16.743l1.791-0.156l1.713,11.525h0.545
	c0.312-2.648,0.546-5.374,0.857-8.021l1.557-0.078l1.246,16.899l1.558-0.078l2.414-11.37c0.156,35.511,4.283,71.255-8.332,105.753
	c5.062-2.259,9.345-3.972,13.316-6.152c1.168-0.623,2.103-2.648,2.336-4.127c1.869-16.198,3.427-32.396,5.373-48.516
	c1.169-9.422,3.505-18.768,4.206-28.19c1.245-16.276,1.791-32.629,2.024-48.983c0-2.492-2.726-6.152-5.218-7.476
	c-9.033-4.75-13.005-12.07-11.915-22.661l6.697,9.734c1.479-4.283,1.791-9.423,4.517-11.837s7.788-1.869,10.046-2.259
	c3.66,3.271,7.476,5.14,8.333,7.866c2.18,7.086,3.972,14.64,4.283,22.038c0.467,11.292-0.857,22.662-0.623,33.953
	c0.233,9.734,1.713,19.469,2.647,29.125c10.279,2.258,12.382,0.701,13.005-9.189c0.233-1.947,0.623-3.816,1.09-5.685
	c1.869-8.566,3.738-17.054,6.464-26.244c0.701,4.205,1.401,8.488,2.181,13.239l13.005,1.168l8.8-19.079l2.804,1.324
	c-2.726,9.111-5.529,18.223-8.411,27.801c4.595,0.779,10.124-2.414,13.473,3.271c-10.513,0-30.838,15.108-31.306,27.412
	c-0.39,11.604,3.582,23.362,5.529,35.043c1.168,7.321,6.308,14.018,4.517,20.792c2.647,1.479,5.685,2.647,7.865,4.673
	c5.062,4.75,8.722,3.037,11.992-6.387c-11.136-1.868-8.565-12.537-11.836-19.39c-2.57-5.295-3.816-12.538-2.414-18.067
	c1.168-4.517,6.774-8.488,11.291-11.447c4.205-2.726,9.579-3.816,14.641-0.779c0.39,0.234,0.701,0.623,1.09,0.701
	c12.071,0.467,15.73,7.009,16.51,18.612c0.778,11.603,7.242,22.739,3.738,34.966c-0.156,0.545,0.312,1.245,0.545,1.79
	c0.545,1.169,1.168,2.259,1.946,3.895l5.218-3.349c-5.451-15.575-4.672-32.084-7.164-47.971
	c-3.037-19.624,3.815-36.523,9.267-53.889c4.128-13.161,9.345-26.166,21.415-34.966c4.128-2.959,6.775-4.361,10.357-0.078
	c0.935,1.168,2.181,2.18,3.193,3.271c7.086,7.243,7.009,8.099-1.947,12.849c-5.062,2.726-7.632,6.152-4.595,11.682h12.46
	c0.156-2.648,0.39-5.529,0.545-8.488l1.48-0.078c0.233,2.414,0.467,4.828,0.856,7.165c1.791,12.538,1.323,25.698,8.955,36.834
	c0.935,1.401,1.869,4.049,2.882,4.127c6.697,0.234,6.151,5.218,7.164,9.579c1.246,5.218,2.726,10.435,4.595,15.497
	c3.192,8.956,4.438,9.579,13.472,8.177c1.48-0.234,3.037-0.39,4.906-0.701c-0.312-3.427-0.623-7.243-0.935-10.903
	c1.246-0.623,3.427-1.246,3.505-1.947c0.389-6.23,0.389-12.46,0.467-18.612c0-4.049-0.623-8.177-0.078-12.148
	c0.701-4.594,4.283-5.685,8.178-3.193c1.245,0.779,2.881,1.013,4.049,1.947c2.647,2.103,5.685,3.815,3.894,8.488
	c-1.946,5.14-2.881,10.824-4.36,16.665c1.401,0.155,3.271,1.09,4.127,0.467c5.841-3.815,12.46-2.336,18.066-1.401
	c4.751,0.779,10.592,4.672,12.85,8.8c7.087,13.161,8.021,27.256,2.024,41.429c-2.569,6.074-1.012,9.812,4.828,13.005
	c0.546,0.233,1.013,0.701,1.169,1.246c1.635,8.645,8.332,9.656,15.886,9.812c-1.713-8.956-5.14-18.223-4.828-27.334
	s4.361-18.145,8.333-26.944v120.627H0.156v-6.932c0-37.379-0.389-74.837,0.156-112.216c0.233-17.366,2.414-34.732,3.738-52.098
	c0-0.856,0.156-1.713,0.467-2.57c4.75-7.476,9.89-14.718,15.419-21.649L15.809,323.1c6.386-4.517,5.918-15.653,17.21-15.497
	c-1.558,4.517-3.193,9.111-5.373,15.341l9.89-10.98l2.258,1.635l-11.447,16.899l8.254-1.869l0.779,1.479
	c-5.062,3.66-9.812,7.788-15.263,10.825c-4.439,2.492-6.463,5.529-6.152,10.357c0.389,8.254,0.779,16.587,1.324,24.842
	c0.078,0.934,0.389,2.414,1.09,2.726c11.993,6.308,12.459,18.3,14.64,29.436c0.935,4.596,1.869,9.189,2.804,13.784
	c5.996-2.336,11.37-4.283,16.509-6.619c1.324-0.623,2.492-2.569,2.881-4.128c1.557-6.463,2.803-13.082,4.205-19.624
	c2.492-11.292,4.984-22.583,7.398-33.875c0.233-1.012,0.701-2.492,0.233-3.115c-4.438-6.308-0.934-12.304-0.233-18.69
	c0.623-5.062-2.025-10.435-3.115-15.73c-0.545-2.881-2.648-5.607,1.324-8.488c2.881-2.181-1.558-10.124-4.984-11.759
	c-6.074-2.959-11.759-6.931-17.522-10.513c-0.545-0.312-1.246-1.324-1.09-1.479c3.192-4.283,6.074-8.878,9.968-12.382
	c1.246-1.168,5.996-0.389,7.709,1.09c9.033,7.943,16.665,16.276,19.157,29.203c2.57,13.238,9.501,25.698,12.46,38.937
	c1.791,8.177-0.156,17.21-0.623,25.776c-0.389,7.398-1.012,14.796-1.401,22.194c-0.078,0.623,0.078,1.246,0.545,1.791
	c9.968,8.722,5.374,21.182,8.254,31.773c-0.467,1.713-1.324,3.504-1.168,5.295c0.156,3.66,0.857,7.242,1.402,11.059l11.915-3.505
	C103.417,435.472,96.875,433.759,97.265,426.438z M653.363,330.575c-2.726,6.775-4.205,14.251-0.935,22.039
	c0.545,1.324,1.324,3.504,0.701,4.283c-4.751,6.386-1.013,12.382,0.155,18.612c2.336,12.771,4.439,25.542,6.619,38.392l2.337,1.168
	c2.959-3.115,5.918-6.308,8.955-9.422c0.935-1.091,2.103-2.025,3.427-2.57c4.983-1.791,7.242-5.295,6.619-10.357
	c-0.701-5.996-1.401-12.07-2.959-17.833C673.767,358.065,673.61,338.83,653.363,330.575z M216.101,351.134l-2.959-0.545
	c-3.193,11.915-6.463,23.751-9.812,36.211c5.373-0.389,9.111-1.012,12.849-0.935c6.931,0.156,7.165,0.156,5.14-7.242
	c-0.623-2.414-1.947-4.672-2.959-7.009c-1.558-3.738-3.894-7.398-4.517-11.292C213.375,357.442,215.244,354.249,216.101,351.134z
	 M659.982,327.46c-0.312-6.853-0.623-12.226-0.856-17.522l-2.103-1.09c-1.402,1.713-3.271,3.193-4.205,5.14
	C650.093,319.751,653.519,323.177,659.982,327.46z M729.758,447.309l15.574-11.447l-7.32-2.96L729.758,447.309z M404.634,403.232
	l-3.738,0.545l1.636,11.213l2.103-0.311V403.232z"/>
<rect x="0.389" y="504.312" fill="#393939" width="800.156" height="185.885"/>
<g>
	<path fill="#FFFFFF" d="M317.316,467.521c2.826,0.414,4.24,0.901,4.24,1.462l0.548-0.183c1.998,0.926,3.411,2.339,4.239,4.239
		l1.133,1.645c0.366,0,0.549,0.195,0.549,0.585c2.071,3.24,3.106,6.615,3.106,10.124c0.463,1.315,0.84,3.35,1.133,6.104l2.375,2.595
		c-1.852,2.534-2.777,4.057-2.777,4.568h-0.183l-0.183-0.183v2.412l0.183,0.73c-1.145,7.237-2.132,10.855-2.96,10.855l0.183,0.183
		v0.548c-0.341,1.853-1.937,4.435-4.788,7.748c-1.047,1.171-3.618,2.156-7.711,2.961l-0.585-0.22l-2.193,0.22
		c-0.877,0-3.082-0.865-6.615-2.595h-0.183c0,0.316-0.926,0.634-2.777,0.95c-3.387,0-5.97-1.669-7.749-5.007h0.183
		c1.657,1.364,3.07,2.047,4.24,2.047h0.183c1.219,0,1.828-1.426,1.828-4.276l0.183-1.243l-0.183-1.644l0.183-0.184v-0.183
		l-0.512-2.229l0.512-3.326l-0.183-1.133v-1.243l0.183-0.767l-0.329-2.193l0.146-0.768l-0.146-0.183v-0.183l0.146-0.183v-0.146
		l-0.146-0.95l0.329-0.914c-1.243-1.267-2.217-2.424-2.924-3.472v-0.219c1.949-1.925,2.924-3.339,2.924-4.24h-0.329v-0.219
		l0.329-0.512l-0.329-1.097l1.462-1.279v-0.183h-0.183l-0.768,0.511h-0.365l-0.146-0.913v-0.183l0.146-0.731l-0.146-0.584h0.146
		l-0.146-0.512l0.146-2.559l-0.146-1.133l0.329-2.412l-0.329-1.316l0.329-1.06l-0.183-0.949l0.183-0.184v-0.183
		c-0.292-1.462-0.84-2.193-1.645-2.193h-1.461c-0.536,0-1.279,0.5-2.229,1.498h-0.146v-0.182c1.852-2.973,3.509-4.459,4.971-4.459
		c1.9,0,3.436,0.499,4.605,1.498c0.779-0.755,1.571-1.193,2.375-1.315l0.585,0.183v-0.183c0-0.316,0.67-0.549,2.01-0.694
		c0.463-0.391,0.95-0.585,1.462-0.585h0.183l0.366,0.365l1.133-0.365l0.183,0.183h0.183L317.316,467.521z M300.906,471.029v0.184
		h0.731v-0.184H300.906z M301.637,470.481v0.366h0.219l0.365-0.366H301.637z M304.598,504.033v0.183
		c0.049,0.243,0.354,0.475,0.914,0.694v-0.329L304.598,504.033z M305.183,505.275v0.22l0.512,0.183v-0.402H305.183z
		 M306.242,505.093l0.366,0.585l-0.548,0.184v0.182h0.183l1.133-0.365C307.375,505.409,306.998,505.215,306.242,505.093z
		 M306.242,509.552v0.183l0.366-0.365v-0.184L306.242,509.552z M306.608,508.419v0.219h0.219l0.548-0.219v-0.183h-0.182
		L306.608,508.419z M307.558,508.054h0.329l0.365-0.365h-0.365L307.558,508.054z M307.741,484.443v0.219h0.146
		c0.414-0.365,0.792-0.548,1.133-0.548v-0.366C308.167,483.969,307.741,484.2,307.741,484.443z M307.887,505.861v0.182h0.365v0.183
		l-0.183,0.184v0.182h0.584v-0.365l0.731,0.184h0.366v-0.184l-1.681-0.364H307.887z M309.203,507.177v0.146h0.182l0.183-0.731
		C309.325,506.591,309.203,506.786,309.203,507.177z M310.848,503.266l-0.183,0.95h0.366v-0.366c0.39,0,0.584-0.134,0.584-0.401
		l-0.219-0.183H310.848z M311.798,482.25v0.768h0.183v-0.768H311.798z M311.798,507.322v0.366h0.73v-0.184L311.798,507.322z
		 M312.163,522.271l-0.365,0.694h0.365l0.183-0.512v-0.183H312.163z M312.711,473.808l0.219,2.192l-0.402,0.403l0.183,0.108v2.084
		l0.219,1.279h-0.219l0.219,0.183v0.183c0,0.535-0.317,1.145-0.95,1.827h0.548v0.549l-0.182,0.182l0.182,0.22v4.203l-0.182,0.768
		l0.365,1.645l-0.183,0.73l3.29,3.729v0.183c-0.024,0.243-0.572,0.792-1.645,1.645c0,0.609-0.609,1.341-1.827,2.192
		c0.39,0,0.584,0.123,0.584,0.366l-0.219,1.827l0.219,1.718l-0.402,0.695l0.183,1.132l-0.183,0.184l0.402,0.365l-0.219,3.106
		l0.219,0.549l-0.219,0.95l0.219,1.06l-0.402,3.728l0.183,0.184v0.182l-0.183,0.549l0.183,0.877l-0.183,0.184l0.402,0.401
		l-0.219,0.914c0,0.487,0.366,0.791,1.096,0.913l0.183-0.183h0.183l0.768,0.183c2.558-0.268,3.837-0.756,3.837-1.462
		c0.658,0,1.328-1.778,2.01-5.336h0.183l-0.183-1.827l0.183-0.95l-0.183-0.914c0.097-1.56,0.292-2.485,0.585-2.777v-0.146
		c-0.39,0-0.585-0.122-0.585-0.365l0.183-4.971c0-1.193-0.353-2.12-1.06-2.777l0.183-0.184v-0.365c-0.512,0-0.768-0.316-0.768-0.95
		l-0.183,0.184h-0.183l-0.95-0.878v-0.183c1.194-1.194,2.253-2.558,3.179-4.094h0.183c-0.39-1.51-0.585-2.923-0.585-4.239h0.183
		l-0.183-0.183v-6.287c0-2.582-0.731-4.238-2.193-4.97c-0.633-0.317-1.73-0.548-3.29-0.694l-0.768,0.183l-0.182-0.183v-0.184
		L312.711,473.808z M322.287,476.184v0.22h0.402l0.512-0.22V476h-0.329L322.287,476.184z M323.201,510.465l0.548,0.549h0.183v-0.366
		L323.201,510.465z M323.932,475.087v0.365l0.768-0.365v-0.183h-0.183L323.932,475.087z M324.699,511.196v0.183l0.914,0.183
		c0-0.243-0.183-0.365-0.548-0.365H324.699z M327.842,512.329v0.329h0.694v-0.183L327.842,512.329z"/>
	<path fill="#FFFFFF" d="M340.817,471.103c0.536,0,1.291,0.451,2.266,1.353c0.633-0.805,1.23-1.206,1.791-1.206
		c3.265,0,5.373,1.255,6.323,3.765l-2.12-0.585c-1.389,0.122-2.083,0.524-2.083,1.206l0.146,3.911v0.877l-0.146,1.206l0.146,1.206
		l-0.146,1.061l0.146,1.353v3.471l2.412,2.997v0.293c-0.707,0.998-1.267,1.498-1.681,1.498l0.183,0.183v0.146
		c-0.609,0.536-0.962,1.23-1.061,2.083l0.146,2.852v2.558h-0.292v1.39l0.146,0.877l-0.146,0.146v0.146l0.292,1.827l-0.146,3.472
		l0.146,0.439l-0.146,0.584c1.048,1.219,1.742,1.828,2.083,1.828c0.585,0,1.243-0.256,1.974-0.768h0.146
		c0,1.146-1.109,2.047-3.326,2.705l-0.146-0.146h-0.146c-0.877,0.706-1.571,1.06-2.083,1.06c-1.048,0-1.901-0.402-2.559-1.206
		c0,0.438-0.853,0.694-2.558,0.768c-2.461-0.438-4.167-1.194-5.117-2.266l-0.768-0.914l0.146-0.146l1.828,0.914
		c1.583-0.487,2.375-1.242,2.375-2.267l-0.146-0.146v-0.914l0.329-0.438l-0.329-1.206l0.146-0.146l-0.146-1.827V504.8
		c0-3.069,0.109-5.178,0.329-6.322l-0.329-0.877l0.146-0.914l-0.146-1.498v-0.476l-2.229-2.851c1.583-1.974,2.375-3.277,2.375-3.91
		l0.183-2.704l-0.329-1.353v-0.439l0.475-4.093c-0.341,0-0.548-0.951-0.621-2.852l0.146-0.438c0-0.901-0.743-1.511-2.229-1.827
		h-0.183c-0.609,0-1.157,0.257-1.645,0.768v-0.293c0.926-1.632,2.583-2.838,4.971-3.618H340.817z M339.611,475.307
		c0,0.219,0.146,0.328,0.438,0.328h0.146v-0.183L339.611,475.307z M339.611,495.188v0.146h0.292l0.475-0.621v-0.146l-0.622,0.622
		H339.611z M340.378,494.274v0.146h0.292l0.439-0.585v-0.146c-0.146,0-0.292,0.195-0.439,0.585H340.378z M341.401,495.48v0.146
		h0.622v-0.293L341.401,495.48z M341.731,492.483l-0.146,0.438h0.292v-0.438H341.731z M342.462,491.277l-0.292,0.585v0.292h0.146
		l0.292-0.73v-0.146H342.462z M342.315,475.014v0.146l1.06-0.146v-0.146h-0.622L342.315,475.014z M343.083,507.213v0.146
		l0.584,0.146c0-0.194-0.146-0.292-0.438-0.292H343.083z M343.375,506.152v0.293h0.438v-0.146L343.375,506.152z M343.667,489.45
		l-0.146,0.475h0.292v-0.475H343.667z M343.667,474.721l0.292,0.293h0.146v-0.293H343.667z M343.96,488.866l-0.146,0.438h0.292
		l0.183-0.438H343.96z M344.289,506.628v0.146l0.585,0.146h0.146v-0.146l-0.584-0.146H344.289z M344.435,488.098v0.146l0.292-0.292
		v-0.146L344.435,488.098z M344.581,474.429v0.292l0.585-0.146v-0.146H344.581z M344.581,493.215v0.146l0.438-0.439h-0.146
		L344.581,493.215z M344.581,507.979v0.293l0.585,0.146L344.581,507.979z M345.166,486.745l-0.146,0.476v0.146h0.146l0.329-0.622
		H345.166z M345.495,485.832v0.329l0.438-0.146v-0.328L345.495,485.832z M345.495,507.066v0.292h0.731l0.146,0.146h0.146v-0.292
		h-0.731l-0.146-0.146H345.495z"/>
	<path fill="#FFFFFF" d="M364.756,470.957h1.864c0.73,0.292,1.401,0.438,2.01,0.438c0,0.292,0.427,0.476,1.279,0.548l2.156,1.608
		c1.169-0.853,1.938-1.62,2.303-2.303h0.146v1.572l0.146,0.146v0.146c-0.146,0-0.292,0.194-0.438,0.585
		c0.292,0,0.438,0.085,0.438,0.256v0.438l-0.146,0.146l0.146,0.146v0.146l-0.146,0.146l0.146,0.146v0.731l-0.146,0.841l0.146,0.146
		v0.146l-0.146,0.438l0.146,0.438l-0.292,0.256l0.292,0.292l-0.146,0.731l0.146,0.438l-0.292,0.548l0.292,0.293l-0.146,0.146
		l0.146,0.147v0.146l-0.146,2.741v0.146l-0.146,0.147v0.109l0.292,0.292v0.73l-0.438,0.585l0.438,0.694v0.293l-0.292,0.292h-3.875
		l-0.146-0.146l-0.146,0.146h-0.694l-0.146-0.146h-0.146l-0.146,0.146l-0.146-0.438l0.146-2.303l-0.146-0.146v-0.109l0.292-0.878
		l-0.292-0.292v-0.585h0.292v-0.146l-0.292-0.401v-0.146l0.292-0.292c0-2.12-0.621-3.606-1.864-4.459
		c0-0.244-0.865-0.488-2.595-0.731v-0.109l-0.731,0.255v-0.146c-1.243,0.975-1.864,2.363-1.864,4.166l-0.256,0.293v0.293
		l0.109,1.022l-0.109,0.146l0.256,0.256v1.607h-0.256l0.109,0.695v0.438l-0.109,0.877l0.256,0.841l-0.146,0.146l0.146,0.146v0.293
		l-0.256,1.279l0.109,0.584h-0.109l0.256,1.134v0.584l-0.146,0.585c0,0.244,0.816,1.243,2.449,2.997
		c-0.365,0.634-1.035,1.353-2.01,2.156l-0.548,2.156v0.73l0.109,0.549l-0.109,0.585l0.256,0.584l-0.256,1.134l0.256,1.023
		l-0.256,0.292l-0.731-0.292h-0.146v0.146c0.658,0.073,0.986,0.305,0.986,0.695l-0.109,0.877l0.256,1.132l-0.146,0.147v0.146
		c0.609,2.484,1.523,3.728,2.741,3.728h0.877c2.388-0.999,3.582-2.425,3.582-4.275l0.146-0.147l0.402,0.147h0.438v-0.147
		c-0.755,0-1.133-0.39-1.133-1.169l0.146-0.146l-0.146-0.841l0.146-1.718l-0.146-0.877l0.146-0.146h0.292l0.256,0.292l0.438-0.146
		l4.167-0.146v0.438h-0.146l0.292,2.449v1.718l-0.292,0.439l0.292,0.401l-0.146,0.73v0.438h-0.439v-0.292h-0.256
		c0,0.292,0.183,0.438,0.549,0.438l0.146,0.146v0.146c-0.707,2.096-1.949,3.668-3.728,4.716c-1.194,1.534-3.302,2.302-6.323,2.302
		c-0.707,0-2.181-0.719-4.422-2.156c-1.292-1.511-2.302-2.851-3.034-4.021v-0.292l0.146-0.439h-0.146
		c-0.194,0-0.621-0.95-1.279-2.85l0.146-0.146l-0.731-0.877l-0.731-2.998l-0.256-1.718l0.11-0.146V499.1
		c0-1.414-0.853-2.803-2.559-4.168l-0.438-0.584l2.01-2.412l0.438-2.449l-0.146-0.146c0.097-1.146,0.243-1.815,0.438-2.011
		l-0.146-0.585l0.292-0.584l-0.146-0.402c0.877-4.094,1.681-6.64,2.412-7.639c0.073-0.561,0.268-0.841,0.584-0.841v-0.292
		c0-0.707,0.341-1.279,1.023-1.718c0.269-1.097,1.218-2.01,2.851-2.741c0.098-0.316,0.622-0.597,1.572-0.841
		C362.307,471.2,363.124,470.957,364.756,470.957z M355.875,504.106v0.438l0.548-0.293l-0.146-0.146v-0.146L355.875,504.106z
		 M357.446,502.973c-0.195,0.438-0.39,0.683-0.585,0.731v-0.146l-0.438,0.146v0.256l0.146-0.11h0.292l0.146,0.11h0.146
		c0-0.365,0.244-0.597,0.731-0.694v-0.146L357.446,502.973z M357.739,476.987h0.255v-0.292c0.293,0,0.439-0.098,0.439-0.292h-0.146
		L357.739,476.987z M359.31,501.548c0,0.243-0.292,0.475-0.877,0.694v0.292l1.023-0.841v-0.146H359.31z M359.31,474.978
		l-0.146,0.146v0.146h0.146l0.439-0.146v-0.146H359.31z M359.603,502.388l-0.146,0.439h0.986v-0.146l-0.548-0.293H359.603z
		 M361.028,502.534l-0.146,0.146v0.146l0.731,0.292h0.146v-0.146L361.028,502.534z M365.341,475.27l-0.146,0.146v0.146h0.438
		L365.341,475.27z M365.889,474.831l-0.109,0.146v0.292h0.109l0.146-0.438H365.889z M365.889,474.393v0.146h0.585v-0.146H365.889z
		 M367.643,472.967v0.438h0.146l0.109-0.438H367.643z M368.922,472.967v0.146h0.146c0-0.292,0.146-0.438,0.438-0.438l0.146-0.438
		h-0.146C369.312,472.285,369.117,472.528,368.922,472.967z M369.069,476.841v0.146l0.694,0.292v-0.292l-0.548-0.146H369.069z
		 M370.056,478.705v0.293h0.438v-0.146L370.056,478.705z M370.641,505.567v0.146h0.438v-0.292L370.641,505.567z M370.933,478.559
		l0.585,0.878v0.146h0.255l-0.109-0.146v-0.147l0.109-0.146v-0.146C371.529,478.998,371.25,478.852,370.933,478.559z
		 M371.225,506.115v0.147l0.439,0.146v-0.294H371.225z M371.773,506.263v0.292h0.731v-0.146L371.773,506.263z M371.919,479.729
		v0.256h0.292c0,0.293,0.146,0.438,0.438,0.438v0.293h0.292l-0.731-0.987H371.919z M373.784,481.007v0.586h0.292
		c0.194,0,0.292-0.146,0.292-0.438v-0.147h-0.146v0.293h-0.293v-0.293H373.784z"/>
	<path fill="#FFFFFF" d="M399.477,470.737h0.147c0,0.195,0.145,0.292,0.438,0.292l0.146,4.021c0,0.706-0.292,1.279-0.877,1.718
		l0.146-0.146h0.147l0.145,0.146h0.146v-0.438l0.292,0.292l-0.146,1.169l0.146,3.582v2.449c0,0.779-0.194,1.169-0.583,1.169
		l-1.134-0.146l-0.584,0.146l-1.133-0.146l-1.169,0.146l-0.146-1.316l0.146-1.717l-0.146-0.585l0.439-0.841
		c-0.292-0.098-0.439-0.39-0.439-0.877l0.146-1.023c0-0.877-1.108-1.778-3.326-2.704l-0.841-0.146c-1.973,0-3.216,0.378-3.728,1.133
		h-0.146c-0.195,3.85-0.39,6.007-0.584,6.469c0.219,0,0.365,0.342,0.438,1.024l-0.293,1.57l0.293,0.293l-0.146,0.146l0.146,0.146
		v0.146l-0.146,0.841c0,1.169,0.328,1.754,0.986,1.754l1.169-0.438l1.572,0.292c0.853-0.244,1.279-1.012,1.279-2.304
		c0-0.56-0.329-1.096-0.987-1.606v-0.257h0.146c1.925,0.512,2.887,1.364,2.887,2.559l0.146,0.585v0.146
		c0,1.316-0.292,2.279-0.877,2.888c0,0.463,0.195,0.694,0.585,0.694l0.401,1.9c-0.463,1.998-1.462,2.997-2.997,2.997l-0.731,0.146
		v-0.146c0.877-0.901,1.316-1.62,1.316-2.156c0-0.244-0.537-0.438-1.608-0.585h-0.438l-0.987,0.146l-0.146-0.146v-0.109
		c-1.243,0.073-1.864,0.354-1.864,0.841l0.293,0.584l-0.146,2.998l0.146,0.146v0.146l-0.293,1.169v0.439h0.293v0.84l-0.293,0.878
		l0.147,0.146v0.146l-0.147,0.987l0.147,1.607h-0.147l0.439,1.278l-0.292,0.294l0.146,0.438l-0.146,0.146v0.146l0.292,0.694
		l-0.292,0.292c0.365,0.439,0.548,0.914,0.548,1.426l2.046,0.585c1.682,0,3.545-0.865,5.592-2.596l0.146-1.571l-0.146-0.146v-0.146
		l0.146-1.718l-0.146-0.146v-0.146l0.293-0.876l-0.293-1.134l0.293-0.292l-0.293-0.438v-0.402l0.146-0.146v-0.146l1.572,0.292
		l0.438-0.292l1.462,0.146h0.84l0.146,0.146h0.146l-0.292,0.841v0.146l0.292,1.169v0.402l-0.292,1.169l0.292,0.841v0.438
		c-0.194,0.39-0.487,0.584-0.877,0.584v0.294l0.731-0.439l0.146,1.023v0.548c-0.048,1.048-1.632,2.924-4.751,5.629
		c-2.388,1.146-3.923,1.718-4.605,1.718l-0.146-0.146l-0.694,0.146h-0.585c-2.461,0-4.435-0.719-5.921-2.156
		c-0.707,0.682-1.23,1.022-1.571,1.022h-0.731c-1.389,0-3.009-0.767-4.861-2.302l-0.292-0.292l-0.438-0.586l0.146-0.146
		c0.902,0.585,1.523,0.877,1.864,0.877h0.731c0.853-0.39,1.279-1.022,1.279-1.899l-0.146-0.549l0.292-0.292l-0.292-0.731
		l0.146-0.987l-0.146-1.169l0.292-0.292l-0.438-0.439l0.146-1.863l-0.146-0.402l0.146-1.315v-0.585l0.146-0.146l-0.292-0.548
		l0.146-2.303v-0.585l-0.146-0.877l0.292-0.548c-0.195,0-0.292-0.146-0.292-0.439l0.146-1.023l-0.292-0.292h0.292v-0.109
		c-0.536,0-1.011-0.536-1.425-1.608l0.292-0.292l-0.146-0.146h-1.023v-0.146l2.156-2.704v-1.462l0.146-0.841l-0.146-0.438
		l0.292-1.718c-0.195,0-0.292-0.146-0.292-0.438l0.146-2.01l-0.146-0.146v-0.146l0.292-1.133l-0.292-0.585l0.146-1.023
		c-0.073-2.582-0.17-3.874-0.292-3.874l-2.302-0.73l-1.426,1.022h-0.146v-0.146c0-1.218,1.438-2.461,4.313-3.729h1.315
		c0.829,0,1.596,0.427,2.302,1.279c2.12-1.243,3.558-1.864,4.313-1.864l2.01,0.146l1.572-0.292c0,0.244,0.622,0.39,1.864,0.438
		l4.02,1.718C397.564,473.04,398.38,472.272,399.477,470.737z M380.069,491.021l-0.146,0.146v0.146h0.146l0.439-0.146v-0.146
		H380.069z M380.069,493.325v0.146h0.439v-0.293L380.069,493.325z M380.508,473.917l-0.146,0.402v0.146h0.146l0.292-0.293v-0.109
		l0.146,0.109h0.548v-0.109l-0.694-0.146l-0.146,0.146L380.508,473.917z M382.957,489.706c-0.171,0.39-0.512,0.585-1.023,0.585
		v0.293l1.425-0.732v-0.146H382.957z M381.934,491.862h0.146l0.584-0.256v-0.146h-0.146
		C382.129,491.606,381.934,491.741,381.934,491.862z M384.236,489.012v0.292l0.438-0.146v-0.292L384.236,489.012z M384.821,488.719
		l0.292,0.293h0.548l-0.256-0.293H384.821z M385.662,487.988v0.146h0.438v-0.293L385.662,487.988z M385.954,472.017
		c0,0.195,0.146,0.292,0.439,0.292h0.146v-0.146L385.954,472.017z M386.1,487.147v0.146l0.292,0.256l0.292-0.256l-0.438-0.146H386.1
		z M387.708,513.754v0.11l0.694-0.401v-0.146h-0.146L387.708,513.754z M388.695,473.479l0.292,0.293h0.146l-0.292-0.293H388.695z
		 M388.695,513.17h0.146l0.292-0.293h-0.146L388.695,513.17z M390.559,512h0.146l0.292-0.292h-0.146L390.559,512z M391.29,474.612
		v0.146l0.877,0.293h0.109v-0.146l-0.841-0.292H391.29z M392.569,510.283v0.146h0.146l0.877-0.292v-0.293L392.569,510.283z
		 M392.861,489.706v0.146l0.585-0.693v-0.146L392.861,489.706z M393.885,509.844h0.146l0.292-0.292h-0.146L393.885,509.844z
		 M394.47,476.622l0.694,0.585v-0.293l-0.585-0.292H394.47z M395.018,509.149h0.146l0.438-0.438h-0.146L395.018,509.149z
		 M396.188,480.094h0.146l0.293-0.292h-0.146L396.188,480.094z M396.479,508.272h0.146l0.256-0.293h-0.11L396.479,508.272z
		 M397.613,507.249v0.292l0.438-0.146v-0.146H397.613z M398.636,506.555l-0.292,0.292v0.146h0.292l0.292-0.438H398.636z
		 M398.49,480.387c0,0.195,0.427,0.426,1.279,0.693h0.146v-0.146L398.49,480.387z M399.075,477.061v0.438h0.255v-0.438H399.075z"/>
	<path fill="#FFFFFF" d="M415.046,467.448c2.827,0,5.165,1.705,7.017,5.116h-0.182c-0.78-0.633-1.547-0.95-2.303-0.95h-0.365
		c-1.438,0-2.267,0.768-2.486,2.303l0.22,1.499l-0.22,4.021l-0.364,0.365l0.183,0.183v0.183l-0.365,0.401l0.365,0.549l-0.183,0.95
		l0.364,0.402l-0.364,0.365l0.364,1.352l-0.364,0.951l0.364,0.365v0.365l-0.182,0.768l0.182,0.768v0.183l-0.364,0.585v0.184
		l1.132,3.216c0.439,0,1.195,0.706,2.268,2.119c-2.145,2.51-3.217,4.081-3.217,4.715l-0.183,1.17l0.364,1.498l-0.182,2.668
		l0.182,2.084l-0.364,0.401v0.184l0.364,0.548l-0.182,1.169l0.182,2.448v0.402l-0.364,0.549l0.364,0.401l-0.182,0.184v0.183
		l0.401,0.365v1.718c0,2.534,1.194,3.801,3.582,3.801c2.192,0,4.093-2.083,5.702-6.25l0.182-2.119l-0.365-1.133v-0.183h0.951v-0.366
		l-0.184,0.184h-0.219l-0.731-0.402l0.183-1.133l-0.183-3.399c0.073-0.78,0.257-1.17,0.548-1.17h0.951l0.402,0.402l0.182-0.183
		l1.9,0.183l3.033-0.402l0.184,0.22l-0.184,3.801v0.951l-0.4,0.364c0.389,1.486,0.584,3.07,0.584,4.752
		c-0.584,2.777-1.34,4.604-2.266,5.482c-1.414,2.412-2.619,3.617-3.619,3.617c0,0.609-1.011,1.061-3.033,1.353l-0.584-0.219
		c0,0.779-1.828,1.169-5.482,1.169c-1.755,0-3.973-0.767-6.652-2.303l-0.402,0.402l-0.182-0.219h-0.184l-1.315,0.402
		c-2.461,0-5.251-1.085-8.369-3.254l-0.184-0.182v-0.366h0.184l3.032,0.548c1.391-0.462,2.084-1.278,2.084-2.448
		c0-0.511,0.135-0.768,0.402-0.768l-0.184-0.95l0.365-0.548l-0.365-0.585v-0.768l0.184-0.95l-0.184-0.183h-0.219l0.219-1.9v-3.216
		l0.184-0.184l-0.184-0.585l-0.219-3.436l0.219-1.133l-0.219-0.95l0.219-1.498c0-1.194-0.949-2.717-2.851-4.569
		c1.585-1.754,2.657-3.398,3.216-4.934c-0.389-0.901-0.584-1.791-0.584-2.668l0.402-2.083l-0.402-2.303l0.402-2.448l-0.184-0.768
		v-0.184l0.184-0.182v-0.22l-0.402-0.366v-2.266c-0.39-2.68-1.268-4.021-2.632-4.021h-0.401c-0.561,0-1.256,0.391-2.083,1.17
		l-0.184-0.22c0.537-1.437,1.486-2.57,2.851-3.398h0.184l0.768,0.366h0.182v-0.184l-0.768-0.183
		c1.121-1.023,2.523-1.535,4.203-1.535c1.194,0,2.328,0.572,3.399,1.718C412.732,468.082,413.877,467.448,415.046,467.448z
		 M406.311,470.116l0.365,0.365h0.184l-0.365-0.365H406.311z M407.81,470.664v0.402l0.585,0.183v-0.365L407.81,470.664z
		 M407.81,487.039v0.182l0.401-0.402v-0.183L407.81,487.039z M408.395,487.403h0.182l0.367-0.364h-0.184L408.395,487.403z
		 M409.162,485.503l-0.402,0.585h0.402l0.183-0.585H409.162z M408.943,515.509h0.219l0.365-0.365h-0.183L408.943,515.509z
		 M409.71,471.614v0.22l0.585,0.183v-0.402H409.71z M409.893,514.924l-0.183,0.22v0.183h0.183l0.585-0.183v-0.22H409.893z
		 M410.844,514.778l-0.184,0.146v0.22h0.584L410.844,514.778z M410.844,472.017v0.183h0.767v-0.183H410.844z M411.025,483.603v0.183
		l0.585-0.548h-0.183L411.025,483.603z M411.793,484.918v0.22l0.585-0.585h-0.183L411.793,484.918z M411.977,514.376v0.183h0.401
		l0.548-0.183v-0.183h-0.365L411.977,514.376z M412.561,482.652v0.183l0.365-0.365v-0.184L412.561,482.652z M413.328,513.828v0.183
		h0.184c0.975-0.17,1.863-0.548,2.668-1.134h-0.183C414.681,513.511,413.791,513.828,413.328,513.828z M414.645,480.752h0.182
		l0.402-0.365h-0.183L414.645,480.752z M423.196,518.177l0.366,0.366h0.182l-0.365-0.366H423.196z M424.512,518.725l0.402,0.402
		h0.184l-0.402-0.402H424.512z M426.814,519.895v0.183l1.316,0.184v-0.366H426.814z M428.495,503.923v0.402l0.585-0.219v-0.184
		H428.495z M429.848,506.226v0.365c1.243-0.462,1.938-0.9,2.084-1.315h-0.184C431.066,505.908,430.433,506.226,429.848,506.226z
		 M432.114,504.106v0.219l0.366-0.402v-0.183L432.114,504.106z"/>
	<path fill="#FFFFFF" d="M439.606,471.103c0.536,0,1.292,0.451,2.266,1.353c0.634-0.805,1.231-1.206,1.791-1.206
		c3.265,0,5.373,1.255,6.323,3.765l-2.12-0.585c-1.389,0.122-2.083,0.524-2.083,1.206l0.146,3.911v0.877l-0.146,1.206l0.146,1.206
		l-0.146,1.061l0.146,1.353v3.471l2.411,2.997v0.293c-0.706,0.998-1.267,1.498-1.681,1.498l0.184,0.183v0.146
		c-0.609,0.536-0.963,1.23-1.061,2.083l0.146,2.852v2.558h-0.293v1.39l0.146,0.877l-0.146,0.146v0.146l0.293,1.827l-0.146,3.472
		l0.146,0.439l-0.146,0.584c1.048,1.219,1.742,1.828,2.083,1.828c0.585,0,1.242-0.256,1.974-0.768h0.146
		c0,1.146-1.108,2.047-3.326,2.705l-0.146-0.146h-0.146c-0.877,0.706-1.572,1.06-2.083,1.06c-1.048,0-1.9-0.402-2.559-1.206
		c0,0.438-0.854,0.694-2.558,0.768c-2.462-0.438-4.167-1.194-5.118-2.266l-0.768-0.914l0.146-0.146l1.828,0.914
		c1.583-0.487,2.375-1.242,2.375-2.267l-0.146-0.146v-0.914l0.329-0.438l-0.329-1.206l0.146-0.146l-0.146-1.827V504.8
		c0-3.069,0.109-5.178,0.329-6.322l-0.329-0.877l0.146-0.914l-0.146-1.498v-0.476l-2.229-2.851c1.583-1.974,2.375-3.277,2.375-3.91
		l0.184-2.704l-0.329-1.353v-0.439l0.474-4.093c-0.34,0-0.548-0.951-0.621-2.852l0.147-0.438c0-0.901-0.743-1.511-2.229-1.827
		h-0.184c-0.609,0-1.158,0.257-1.645,0.768v-0.293c0.926-1.632,2.583-2.838,4.971-3.618H439.606z M438.4,475.307
		c0,0.219,0.146,0.328,0.438,0.328h0.146v-0.183L438.4,475.307z M438.4,495.188v0.146h0.293l0.476-0.621v-0.146l-0.623,0.622H438.4z
		 M439.169,494.274v0.146h0.291l0.438-0.585v-0.146c-0.146,0-0.292,0.195-0.438,0.585H439.169z M440.191,495.48v0.146h0.621v-0.293
		L440.191,495.48z M440.521,492.483l-0.146,0.438h0.292v-0.438H440.521z M441.251,491.277l-0.292,0.585v0.292h0.146l0.293-0.73
		v-0.146H441.251z M441.104,475.014v0.146l1.061-0.146v-0.146h-0.622L441.104,475.014z M441.872,507.213v0.146l0.585,0.146
		c0-0.194-0.146-0.292-0.438-0.292H441.872z M442.165,506.152v0.293h0.438v-0.146L442.165,506.152z M442.457,489.45l-0.146,0.475
		h0.293v-0.475H442.457z M442.457,474.721l0.293,0.293h0.146v-0.293H442.457z M442.75,488.866l-0.146,0.438h0.292l0.183-0.438
		H442.75z M443.078,506.628v0.146l0.585,0.146h0.146v-0.146l-0.585-0.146H443.078z M443.225,488.098v0.146l0.293-0.292v-0.146
		L443.225,488.098z M443.371,474.429v0.292l0.584-0.146v-0.146H443.371z M443.371,493.215v0.146l0.438-0.439h-0.146L443.371,493.215
		z M443.371,507.979v0.293l0.584,0.146L443.371,507.979z M443.955,486.745l-0.146,0.476v0.146h0.146l0.33-0.622H443.955z
		 M444.285,485.832v0.329l0.438-0.146v-0.328L444.285,485.832z M444.285,507.066v0.292h0.73l0.146,0.146h0.146v-0.292h-0.73
		l-0.146-0.146H444.285z"/>
	<path fill="#FFFFFF" d="M464.094,471.176l0.877,0.146l0.146-0.146h0.146l0.73,0.146l0.585-0.146
		c2.144,0.488,3.217,0.878,3.217,1.17l0.146-0.146h0.292c0.414,0,1.341,0.536,2.778,1.608h0.146c0-0.243,0.194-0.39,0.584-0.438
		c0-0.195,0.195-0.292,0.585-0.292c0-0.464,0.438-1.048,1.315-1.755l0.146,0.146l-0.146,1.022l0.146,0.586l-0.146,0.146l0.146,1.022
		v1.023c-0.487-0.194-1.219-0.292-2.192-0.292l0.146,0.438l2.047,0.292l-0.146,0.731l0.146,2.631l-0.146,2.193l0.146,0.877
		l-0.146,1.755v0.438l-0.146,0.146l0.146,0.438l-0.146,0.731h0.293v0.292l-0.293,0.293l-0.146-0.146h-0.146l-0.877,0.146
		l-0.146-0.146h-0.146l-0.585,0.146h-0.292l-0.146-0.146l-0.146,0.146h-0.146l-0.146-0.146l-0.146,0.146h-0.293l-0.292-0.293v-0.585
		l0.146-0.584l-0.146-0.146v-0.146l0.146-0.146v-0.147l-0.146-0.146v-0.146l0.146-0.147v-0.146l-0.146-0.585l0.146-0.146v-0.146
		l-0.146-0.878l0.146-1.022c-0.195-0.658-0.829-1.729-1.9-3.216c0-0.195-0.146-0.293-0.438-0.293c0-0.195-0.195-0.293-0.585-0.293
		c0-0.39-0.292-0.584-0.877-0.584v-0.293h-0.292v0.146L466.286,476l-0.146,0.146h-0.146L465.409,476l-0.585,0.146V476
		c-1.559,0.512-2.339,1.341-2.339,2.486l-0.292,1.315l0.146,0.438l-0.293,1.462l0.146,0.438l-0.146,0.438l0.146,1.316v0.291
		l-0.293,0.439v0.146c0.293,0,0.439,0.097,0.439,0.292v0.292l-0.146,1.608l0.146,0.146v0.146l-0.146,0.146v0.146l0.146,1.608v0.292
		l-0.146,0.146v0.146h0.146l0.292-0.293l2.777,0.293c1.365-0.195,2.048-0.536,2.048-1.024c0-0.828-0.488-1.607-1.463-2.339v-0.146
		h0.146c0.342,0,0.878,0.243,1.608,0.73c0.609,0,1.292,0.975,2.048,2.924l-0.293,0.293l0.293,0.73
		c-0.171,0.804-0.366,1.242-0.585,1.315c0.39,0.634,0.585,1.268,0.585,1.901c0,1.291-1.121,2.314-3.363,3.069h-0.438v-0.292
		c0.487,0,0.926-0.536,1.316-1.608c-0.536-0.486-0.975-0.731-1.316-0.731l-0.585,0.293l-0.146-0.146v-0.146l-1.608,0.293v-0.146
		l-0.146,0.146h-0.292l-0.146-0.146l-0.73,0.146v0.293l-0.146,1.461l0.146,0.585l-0.293,1.462h0.293v0.146l-0.146,5.848l0.146,1.608
		l-0.146,0.73l0.146,0.585l-0.146,1.169c0,1.657,0.536,2.729,1.608,3.217l0.877,0.293h0.438c0.633,0,1.462-0.342,2.484-1.023h0.146
		v0.146c0,0.878-1.169,1.852-3.508,2.924v-0.146l-0.146,0.146h-0.146l-0.584-0.292v0.146l0.146,0.439h-0.146l-1.608,0.146h-1.462
		c-0.487,0-1.12-0.341-1.9-1.023c-0.877,0.78-1.609,1.17-2.192,1.17h-0.293c-1.048,0-2.461-0.536-4.24-1.608l-1.315-1.607v-0.146
		h0.146l1.754,0.731c1.364,0,2.047-0.537,2.047-1.609l0.146-1.169l-0.146-0.731l0.146-0.146v-0.146l-0.146-0.438l0.146-0.438
		l-0.293-1.754l0.293-0.731l-0.293-3.362l0.146-2.192l-0.146-0.438h0.146l-0.146-0.146v-0.293l0.293-0.292l-0.293-1.023l0.146-1.17
		c0-1.363-0.78-2.582-2.339-3.654v-0.146l2.339-2.777l-0.146-1.462v-1.17l0.146-0.877l-0.146-0.585l0.146-1.023l-0.146-0.146
		l0.293-0.293v-0.146l-0.293-0.439v-0.146c0-0.682,0.098-1.218,0.293-1.607l-0.146-0.585c0.292,0,0.438-0.098,0.438-0.292
		c-0.39,0-0.585-0.146-0.585-0.438l0.146-0.146v-0.146l-0.146-0.146v-0.146l0.146-0.146v-0.146l-0.146-0.731l0.146-0.585
		l-0.292-1.462l0.146-0.438l-0.146-0.438l0.146-0.146l-0.146-0.146c-0.488-0.268-0.731-0.511-0.731-0.73h-0.877
		c-0.682,0-1.462,0.487-2.339,1.462l-0.146-0.146c0.901-2.145,2.12-3.508,3.654-4.093c0.999-0.293,1.876-0.439,2.633-0.439
		c0.535,0,1.363,0.536,2.483,1.609c1.049-0.976,1.877-1.463,2.486-1.463l0.146,0.146
		C461.316,471.541,462.242,471.298,464.094,471.176z M454.445,512.11v0.146h0.73v-0.439h-0.146L454.445,512.11z M455.614,472.784
		v0.146l0.293,0.294l0.731,0.292v-0.146l-0.878-0.585H455.614z M456.053,479.51l-0.292,0.584h0.146l0.731-0.584H456.053z
		 M455.761,503.631l0.439,0.439v-0.147l-0.293-0.292H455.761z M455.907,479.07v0.146h0.438v-0.291L455.907,479.07z M456.639,504.216
		v0.293h0.291c0,0.291,0.099,0.438,0.293,0.438l0.146-0.146v-0.146L456.639,504.216z M456.783,473.369
		c0,0.195,0.196,0.292,0.585,0.292l0.147,0.146v0.146l-0.147,0.146h0.438l0.147-0.438L456.783,473.369z M456.783,512.11l0.294,0.292
		l0.584-0.146v-0.146H456.783z M456.93,479.216h0.438v-0.438L456.93,479.216z M457.807,478.486v0.292
		c0.463,0,1.146-0.438,2.048-1.316v-0.146C459.196,477.877,458.515,478.267,457.807,478.486z M457.807,505.386v0.292
		c0.586,0.122,0.877,0.365,0.877,0.731h0.294v-0.146l-1.023-0.877H457.807z M458.831,491.351v0.146l0.73,0.146h0.146l0.293-0.292
		l-0.731-0.146L458.831,491.351z M459.123,507.725v0.146l0.585,1.17h0.146v-0.73c-0.195,0-0.293-0.196-0.293-0.585H459.123z
		 M459.854,506.701v0.292h0.438l-0.146,0.146v0.146l-0.585-0.293h-0.146v0.146c0.877,0.171,1.315,0.462,1.315,0.877h0.585
		L459.854,506.701z M461.9,475.854V476l0.293,0.439l-1.462,0.292l0.146,0.146v0.292h-0.146l-0.146-0.146l-0.584,0.438h0.292
		c0.584-0.097,0.877-0.243,0.877-0.438l-0.146-0.146l0.438-0.146l0.438,0.146c0-0.195,0.146-0.293,0.439-0.293l0.877-0.585v-0.146
		l-0.146-0.146v-0.146l0.146-0.146h-0.146L461.9,475.854z M460.146,491.351h0.146l0.584-0.438h-0.146
		C460.341,491.059,460.146,491.204,460.146,491.351z M460.585,474.1c0,0.195,0.146,0.293,0.438,0.293h0.146v-0.146L460.585,474.1z
		 M460.731,509.625v0.438h0.292l-0.146-0.438H460.731z M461.17,490.766h0.292l0.438-0.438v-0.146
		C461.462,490.376,461.219,490.57,461.17,490.766z M461.17,510.647v0.293l0.146,0.146h0.146l-0.146-0.438H461.17z M461.462,474.393
		v0.146l0.731,0.146h0.146v-0.146l-0.585-0.146H461.462z M462.047,512.549v0.146c0.219,0,0.609,0.39,1.17,1.169h0.146
		c-0.536-0.877-0.927-1.315-1.17-1.315H462.047z M463.363,475.562v0.293h0.438v-0.438L463.363,475.562z M465.264,474.831
		l-0.585-0.146l-1.023,0.438v0.146l1.023,0.146l0.292-0.585l0.146,0.146h0.292c0.683-0.341,1.023-0.585,1.023-0.731h-0.146
		L465.264,474.831z M464.971,512.695l-0.292,0.73l0.146,0.146h0.146l0.293-0.438l-0.146-0.146l0.146-0.146l-0.146-0.146H464.971z
		 M466.725,473.954h0.146l0.292-0.293h-0.146L466.725,473.954z M467.896,474.1c0,0.195-0.147,0.293-0.438,0.293v0.146h0.877
		L467.896,474.1z M468.918,472.491l-0.292,0.438h0.292l0.293-0.291v-0.147H468.918z M469.357,474.393l-0.146,0.438h0.73
		L469.357,474.393z M470.38,474.685v0.146l3.07,0.438v-0.292c-1.657,0-2.485-0.146-2.485-0.438L470.38,474.685z"/>
	<path fill="#FFFFFF" d="M500.459,470.737h0.146c0,0.195,0.146,0.292,0.438,0.292l0.146,4.021c0,0.706-0.293,1.279-0.877,1.718
		l0.146-0.146h0.146l0.146,0.146h0.146v-0.438l0.293,0.292l-0.146,1.169l0.146,3.582v2.449c0,0.779-0.195,1.169-0.585,1.169
		l-1.134-0.146l-0.583,0.146l-1.134-0.146l-1.17,0.146l-0.146-1.316l0.146-1.717l-0.146-0.585l0.438-0.841
		c-0.293-0.098-0.438-0.39-0.438-0.877l0.146-1.023c0-0.877-1.109-1.778-3.326-2.704l-0.841-0.146c-1.974,0-3.216,0.378-3.728,1.133
		h-0.146c-0.195,3.85-0.389,6.007-0.585,6.469c0.221,0,0.366,0.342,0.439,1.024l-0.293,1.57l0.293,0.293l-0.146,0.146l0.146,0.146
		v0.146l-0.146,0.841c0,1.169,0.329,1.754,0.986,1.754l1.169-0.438l1.573,0.292c0.852-0.244,1.278-1.012,1.278-2.304
		c0-0.56-0.328-1.096-0.986-1.606v-0.257h0.146c1.926,0.512,2.889,1.364,2.889,2.559l0.145,0.585v0.146
		c0,1.316-0.291,2.279-0.877,2.888c0,0.463,0.195,0.694,0.586,0.694l0.401,1.9c-0.463,1.998-1.462,2.997-2.997,2.997l-0.73,0.146
		v-0.146c0.877-0.901,1.315-1.62,1.315-2.156c0-0.244-0.536-0.438-1.608-0.585h-0.438l-0.987,0.146l-0.145-0.146v-0.109
		c-1.243,0.073-1.865,0.354-1.865,0.841l0.293,0.584l-0.146,2.998l0.146,0.146v0.146l-0.293,1.169v0.439h0.293v0.84l-0.293,0.878
		l0.146,0.146v0.146l-0.146,0.987l0.146,1.607h-0.146l0.438,1.278l-0.292,0.294l0.146,0.438l-0.146,0.146v0.146l0.292,0.694
		l-0.292,0.292c0.366,0.439,0.548,0.914,0.548,1.426l2.048,0.585c1.682,0,3.545-0.865,5.592-2.596l0.146-1.571l-0.146-0.146v-0.146
		l0.146-1.718l-0.146-0.146v-0.146l0.292-0.876l-0.292-1.134l0.292-0.292l-0.292-0.438v-0.402l0.146-0.146v-0.146l1.571,0.292
		l0.438-0.292l1.463,0.146h0.84l0.146,0.146h0.146l-0.293,0.841v0.146l0.293,1.169v0.402l-0.293,1.169l0.293,0.841v0.438
		c-0.195,0.39-0.488,0.584-0.877,0.584v0.294l0.73-0.439l0.146,1.023v0.548c-0.049,1.048-1.633,2.924-4.751,5.629
		c-2.389,1.146-3.924,1.718-4.605,1.718l-0.146-0.146l-0.694,0.146h-0.586c-2.46,0-4.433-0.719-5.919-2.156
		c-0.708,0.682-1.231,1.022-1.572,1.022h-0.731c-1.388,0-3.008-0.767-4.86-2.302l-0.292-0.292l-0.439-0.586l0.146-0.146
		c0.902,0.585,1.523,0.877,1.864,0.877h0.73c0.854-0.39,1.28-1.022,1.28-1.899l-0.146-0.549l0.292-0.292l-0.292-0.731l0.146-0.987
		l-0.146-1.169l0.292-0.292l-0.438-0.439l0.146-1.863l-0.146-0.402l0.146-1.315v-0.585l0.146-0.146l-0.293-0.548l0.146-2.303v-0.585
		l-0.146-0.877l0.293-0.548c-0.195,0-0.293-0.146-0.293-0.439l0.146-1.023l-0.292-0.292h0.292v-0.109
		c-0.537,0-1.011-0.536-1.426-1.608l0.292-0.292l-0.146-0.146h-1.022v-0.146l2.156-2.704v-1.462l0.146-0.841l-0.146-0.438
		l0.293-1.718c-0.195,0-0.293-0.146-0.293-0.438l0.146-2.01l-0.146-0.146v-0.146l0.293-1.133l-0.293-0.585l0.146-1.023
		c-0.074-2.582-0.171-3.874-0.292-3.874l-2.304-0.73l-1.425,1.022h-0.146v-0.146c0-1.218,1.438-2.461,4.313-3.729h1.315
		c0.828,0,1.596,0.427,2.302,1.279c2.12-1.243,3.558-1.864,4.312-1.864l2.011,0.146l1.571-0.292c0,0.244,0.622,0.39,1.863,0.438
		l4.021,1.718C498.547,473.04,499.362,472.272,500.459,470.737z M481.051,491.021l-0.145,0.146v0.146h0.145l0.44-0.146v-0.146
		H481.051z M481.051,493.325v0.146h0.44v-0.293L481.051,493.325z M481.491,473.917l-0.146,0.402v0.146h0.146l0.292-0.293v-0.109
		l0.146,0.109h0.548v-0.109l-0.694-0.146l-0.146,0.146L481.491,473.917z M483.939,489.706c-0.17,0.39-0.512,0.585-1.023,0.585v0.293
		l1.426-0.732v-0.146H483.939z M482.916,491.862h0.146l0.584-0.256v-0.146H483.5C483.111,491.606,482.916,491.741,482.916,491.862z
		 M485.219,489.012v0.292l0.438-0.146v-0.292L485.219,489.012z M485.804,488.719l0.292,0.293h0.548l-0.255-0.293H485.804z
		 M486.644,487.988v0.146h0.439v-0.293L486.644,487.988z M486.937,472.017c0,0.195,0.146,0.292,0.438,0.292h0.146v-0.146
		L486.937,472.017z M487.083,487.147v0.146l0.292,0.256l0.292-0.256l-0.438-0.146H487.083z M488.69,513.754v0.11l0.695-0.401v-0.146
		h-0.147L488.69,513.754z M489.678,473.479l0.293,0.293h0.145l-0.291-0.293H489.678z M489.678,513.17h0.146l0.291-0.293h-0.145
		L489.678,513.17z M491.541,512h0.146l0.293-0.292h-0.146L491.541,512z M492.272,474.612v0.146l0.877,0.293h0.109v-0.146
		l-0.841-0.292H492.272z M493.551,510.283v0.146h0.146l0.877-0.292v-0.293L493.551,510.283z M493.845,489.706v0.146l0.585-0.693
		v-0.146L493.845,489.706z M494.866,509.844h0.146l0.294-0.292h-0.146L494.866,509.844z M495.451,476.622l0.695,0.585v-0.293
		l-0.585-0.292H495.451z M496,509.149h0.146l0.438-0.438h-0.146L496,509.149z M497.17,480.094h0.146l0.293-0.292h-0.146
		L497.17,480.094z M497.462,508.272h0.146l0.256-0.293h-0.109L497.462,508.272z M498.595,507.249v0.292l0.438-0.146v-0.146H498.595z
		 M499.619,506.555l-0.294,0.292v0.146h0.294l0.291-0.438H499.619z M499.472,480.387c0,0.195,0.428,0.426,1.28,0.693h0.146v-0.146
		L499.472,480.387z M500.058,477.061v0.438h0.256v-0.438H500.058z"/>
</g>
</svg>
