<?xml version="1.0" encoding="utf-8"?>
<!-- Generator: Adobe Illustrator 15.0.0, SVG Export Plug-In . SVG Version: 6.00 Build 0)  -->
<!DOCTYPE svg PUBLIC "-//W3C//DTD SVG 1.1//EN" "http://www.w3.org/Graphics/SVG/1.1/DTD/svg11.dtd">
<svg version="1.1" id="Layer_1" xmlns="http://www.w3.org/2000/svg" xmlns:xlink="http://www.w3.org/1999/xlink" x="0px" y="0px"
	 width="208px" height="58px" viewBox="0 0 208 58" enable-background="new 0 0 208 58" xml:space="preserve">
<g>
	<path fill="#FFFFFF" d="M21.727,0.809C24.575,1.227,26,1.717,26,2.283L26.553,2.1c2.014,0.933,3.438,2.355,4.273,4.271l1.142,1.656
		c0.369,0,0.553,0.197,0.553,0.591c2.087,3.266,3.131,6.667,3.131,10.204c0.467,1.326,0.847,3.376,1.142,6.15l2.394,2.615
		c-1.866,2.555-2.799,4.089-2.799,4.604h-0.185l-0.184-0.184v2.432l0.184,0.735c-1.154,7.296-2.148,10.941-2.983,10.941l0.184,0.185
		v0.553c-0.344,1.867-1.952,4.47-4.826,7.81c-1.056,1.18-3.647,2.173-7.772,2.983l-0.59-0.222l-2.21,0.222
		c-0.884,0-3.106-0.871-6.667-2.614h-0.185c0,0.317-0.934,0.639-2.799,0.957c-3.414,0-6.018-1.683-7.81-5.046H0.73
		c1.67,1.375,3.095,2.062,4.273,2.062h0.184c1.229,0,1.842-1.437,1.842-4.31l0.184-1.254l-0.184-1.656L7.213,45.6v-0.185
		l-0.516-2.247l0.516-3.354l-0.184-1.142V37.42l0.184-0.771l-0.332-2.211l0.148-0.773L6.881,33.48v-0.186l0.148-0.184v-0.148
		l-0.148-0.957l0.332-0.922c-1.252-1.275-2.234-2.441-2.947-3.499v-0.22c1.965-1.94,2.947-3.366,2.947-4.274H6.881V22.87
		l0.332-0.517l-0.332-1.104l1.474-1.289v-0.185H8.17l-0.774,0.516H7.028L6.88,19.37v-0.185l0.148-0.736l-0.148-0.59h0.148
		L6.88,17.344l0.148-2.578L6.88,13.623l0.332-2.432L6.88,9.865l0.332-1.068L7.028,7.841l0.184-0.186V7.471
		C6.918,5.997,6.365,5.26,5.554,5.26H4.081c-0.54,0-1.29,0.504-2.247,1.51H1.687V6.587c1.867-2.996,3.536-4.493,5.01-4.493
		c1.916,0,3.463,0.502,4.642,1.51c0.785-0.762,1.583-1.203,2.394-1.326l0.59,0.185V2.277c0-0.319,0.675-0.553,2.026-0.7
		c0.467-0.394,0.958-0.589,1.474-0.589h0.184l0.369,0.367l1.142-0.367l0.184,0.184h0.185L21.727,0.809z M5.187,4.346v0.184h0.737
		V4.346H5.187z M5.924,3.792v0.369h0.221l0.368-0.369H5.924z M8.908,37.609v0.184c0.049,0.245,0.356,0.479,0.92,0.7v-0.332
		L8.908,37.609z M9.497,38.861v0.222l0.516,0.185v-0.406H9.497L9.497,38.861z M10.565,38.677l0.369,0.591l-0.553,0.186v0.184h0.184
		l1.142-0.369C11.707,38.996,11.327,38.8,10.565,38.677z M10.565,43.171v0.185l0.369-0.367v-0.187L10.565,43.171z M10.934,42.029
		v0.221h0.221l0.552-0.221v-0.184h-0.184L10.934,42.029z M11.892,41.661h0.332l0.368-0.368h-0.368L11.892,41.661z M12.076,17.863
		v0.222h0.147c0.417-0.368,0.798-0.552,1.142-0.552v-0.369C12.505,17.387,12.076,17.619,12.076,17.863z M12.223,39.452v0.183h0.368
		v0.184l-0.184,0.187v0.183h0.589V39.82l0.737,0.186h0.369V39.82l-1.694-0.366h-0.185V39.452z M13.549,40.777v0.146h0.184
		l0.185-0.737C13.672,40.188,13.549,40.384,13.549,40.777z M15.207,36.836l-0.185,0.957h0.369v-0.369
		c0.393,0,0.589-0.135,0.589-0.404l-0.221-0.184H15.207L15.207,36.836z M16.165,15.652v0.774h0.184v-0.774H16.165z M16.165,40.924
		v0.369h0.736v-0.186L16.165,40.924z M16.533,55.99l-0.368,0.699h0.368l0.185-0.516v-0.185L16.533,55.99L16.533,55.99z
		 M17.085,7.145l0.221,2.211L16.9,9.762l0.185,0.108v2.101l0.221,1.289h-0.221l0.221,0.186v0.184c0,0.539-0.319,1.153-0.958,1.842
		H16.9v0.553l-0.184,0.185L16.9,16.43v4.236l-0.184,0.773l0.368,1.656l-0.185,0.736l3.315,3.758v0.186
		c-0.024,0.244-0.577,0.798-1.657,1.656c0,0.614-0.614,1.353-1.842,2.211c0.393,0,0.589,0.123,0.589,0.368l-0.221,1.843l0.221,1.729
		l-0.406,0.701l0.185,1.141l-0.185,0.187l0.406,0.367l-0.221,3.131l0.221,0.554l-0.221,0.958l0.221,1.068l-0.406,3.756l0.185,0.186
		v0.184l-0.185,0.554l0.185,0.884l-0.185,0.186l0.406,0.404l-0.221,0.922c0,0.49,0.369,0.797,1.105,0.92l0.185-0.185h0.184
		l0.773,0.185c2.579-0.27,3.868-0.762,3.868-1.474c0.663,0,1.339-1.792,2.026-5.378h0.184l-0.184-1.842l0.184-0.958l-0.184-0.921
		c0.098-1.572,0.295-2.506,0.589-2.801v-0.146c-0.393,0-0.589-0.123-0.589-0.368l0.184-5.01c0-1.203-0.356-2.138-1.068-2.8
		l0.185-0.186v-0.367c-0.516,0-0.774-0.32-0.774-0.959l-0.185,0.187h-0.184l-0.957-0.886v-0.185
		c1.203-1.202,2.271-2.577,3.204-4.126h0.185c-0.393-1.521-0.589-2.945-0.589-4.271h0.184l-0.184-0.186v-6.337
		c0-2.603-0.737-4.271-2.21-5.009c-0.638-0.319-1.744-0.553-3.315-0.699l-0.773,0.184l-0.184-0.184V6.777L17.085,7.145z
		 M26.737,9.539v0.223h0.405l0.516-0.223V9.354h-0.331L26.737,9.539z M27.658,44.092l0.553,0.553h0.184v-0.369L27.658,44.092z
		 M28.395,8.434v0.368l0.773-0.368V8.25h-0.184L28.395,8.434z M29.168,44.829v0.185l0.921,0.185c0-0.245-0.184-0.368-0.553-0.368
		L29.168,44.829L29.168,44.829z M32.336,45.971v0.332h0.7v-0.185L32.336,45.971z"/>
	<path fill="#FFFFFF" d="M45.413,4.418c0.54,0,1.301,0.455,2.284,1.363c0.638-0.811,1.24-1.217,1.805-1.217
		c3.291,0,5.415,1.267,6.373,3.795l-2.137-0.59c-1.4,0.123-2.1,0.528-2.1,1.217l0.148,3.941v0.885l-0.148,1.215l0.148,1.216
		l-0.148,1.069l0.148,1.362v3.498l2.431,3.021v0.296C53.505,26.496,52.941,27,52.523,27l0.185,0.184v0.147
		c-0.614,0.541-0.97,1.239-1.069,2.101l0.148,2.873v2.578h-0.294v1.4l0.146,0.884l-0.146,0.146v0.148l0.294,1.842l-0.148,3.498
		l0.148,0.443l-0.148,0.589c1.056,1.229,1.756,1.843,2.1,1.843c0.589,0,1.252-0.259,1.989-0.773h0.147
		c0,1.154-1.118,2.062-3.353,2.727l-0.147-0.146h-0.147c-0.884,0.711-1.584,1.067-2.1,1.067c-1.056,0-1.916-0.405-2.579-1.216
		c0,0.441-0.859,0.699-2.578,0.773c-2.48-0.441-4.199-1.205-5.157-2.283l-0.773-0.922l0.147-0.147l1.842,0.922
		c1.596-0.491,2.394-1.253,2.394-2.284l-0.147-0.146v-0.921l0.332-0.442l-0.332-1.216l0.147-0.147l-0.147-1.842v-0.295
		c0-3.094,0.11-5.219,0.332-6.372l-0.332-0.884l0.147-0.922l-0.147-1.51v-0.479l-2.247-2.873c1.596-1.989,2.394-3.303,2.394-3.94
		l0.185-2.726l-0.332-1.362v-0.443l0.478-4.125c-0.343,0-0.552-0.959-0.626-2.874l0.148-0.442c0-0.908-0.749-1.521-2.247-1.841
		h-0.185c-0.614,0-1.167,0.259-1.658,0.772V8.066c0.933-1.646,2.604-2.86,5.01-3.646h1.216V4.418z M44.198,8.654
		c0,0.222,0.147,0.332,0.442,0.332h0.147V8.801L44.198,8.654z M44.198,28.693v0.146h0.294l0.479-0.626v-0.147l-0.626,0.627H44.198
		L44.198,28.693z M44.971,27.773v0.146h0.294l0.442-0.59v-0.146c-0.148,0-0.295,0.196-0.442,0.59H44.971z M46.002,28.988v0.147
		h0.626V28.84L46.002,28.988z M46.334,25.968l-0.147,0.442h0.294v-0.442H46.334z M47.071,24.752l-0.295,0.59v0.295h0.147
		l0.295-0.736v-0.147L47.071,24.752L47.071,24.752z M46.923,8.359v0.147l1.069-0.147V8.213h-0.627L46.923,8.359z M47.697,40.814
		v0.146l0.589,0.147c0-0.196-0.147-0.295-0.442-0.295h-0.147V40.814z M47.992,39.745v0.295h0.442v-0.147L47.992,39.745z
		 M48.286,22.911l-0.147,0.479h0.295v-0.479H48.286z M48.286,8.064l0.295,0.295h0.147V8.064H48.286z M48.581,22.322l-0.147,0.441
		h0.294l0.185-0.441H48.581z M48.913,40.225v0.147l0.59,0.146h0.146v-0.146l-0.589-0.147H48.913z M49.06,21.548v0.147l0.294-0.295
		v-0.147L49.06,21.548z M49.207,7.771v0.293l0.59-0.146V7.771H49.207L49.207,7.771z M49.207,26.705v0.146l0.442-0.441h-0.146
		L49.207,26.705z M49.207,41.587v0.295l0.59,0.147L49.207,41.587z M49.797,20.186l-0.148,0.479v0.146h0.148l0.332-0.627h-0.332
		V20.186z M50.128,19.264v0.332l0.442-0.146v-0.331L50.128,19.264z M50.128,40.666v0.295h0.737l0.147,0.146h0.147v-0.293h-0.736
		l-0.148-0.148H50.128z"/>
	<path fill="#FFFFFF" d="M69.542,4.271h1.879c0.736,0.293,1.412,0.441,2.025,0.441c0,0.294,0.43,0.479,1.29,0.553l2.173,1.621
		c1.179-0.859,1.953-1.634,2.321-2.322h0.147V6.15l0.147,0.146v0.147c-0.147,0-0.295,0.195-0.442,0.59
		c0.294,0,0.442,0.086,0.442,0.258v0.441L79.377,7.88l0.147,0.146v0.147L79.377,8.32l0.147,0.146v0.737l-0.147,0.847l0.147,0.147
		v0.147l-0.147,0.44l0.147,0.442l-0.295,0.258l0.295,0.293l-0.147,0.738l0.147,0.441l-0.295,0.553l0.295,0.295l-0.147,0.146
		l0.147,0.148v0.146l-0.147,2.763v0.147l-0.147,0.147v0.11l0.295,0.294v0.736l-0.442,0.59l0.442,0.699v0.295l-0.295,0.295h-3.905
		l-0.147-0.147l-0.147,0.147h-0.7l-0.147-0.147h-0.147l-0.147,0.147l-0.148-0.442l0.148-2.319l-0.148-0.146v-0.109l0.295-0.886
		l-0.295-0.295v-0.589h0.295v-0.148l-0.295-0.404v-0.146l0.295-0.294c0-2.138-0.626-3.636-1.879-4.495
		c0-0.246-0.872-0.492-2.615-0.736V9.203L68.806,9.46V9.314c-1.252,0.98-1.878,2.381-1.878,4.197l-0.258,0.297v0.295l0.11,1.029
		l-0.11,0.146l0.258,0.26v1.62H66.67l0.11,0.7v0.441l-0.11,0.885l0.258,0.848L66.78,20.18l0.148,0.146v0.295l-0.258,1.29l0.11,0.588
		h-0.11l0.258,1.144v0.588l-0.148,0.59c0,0.246,0.823,1.254,2.468,3.021c-0.368,0.639-1.043,1.363-2.026,2.174l-0.552,2.174v0.735
		l0.11,0.554l-0.11,0.59l0.258,0.588L66.67,35.8l0.258,1.032l-0.258,0.294l-0.737-0.294h-0.147v0.146
		c0.663,0.072,0.994,0.307,0.994,0.699l-0.11,0.885l0.258,1.142l-0.148,0.147v0.147c0.614,2.504,1.535,3.757,2.763,3.757h0.884
		c2.407-1.007,3.61-2.443,3.61-4.309l0.147-0.149l0.405,0.149h0.442v-0.149c-0.761,0-1.142-0.394-1.142-1.178l0.147-0.147
		l-0.147-0.848l0.147-1.73l-0.147-0.885l0.147-0.146h0.295l0.258,0.294l0.442-0.146l4.199-0.147v0.44h-0.147l0.294,2.469v1.731
		l-0.294,0.443l0.294,0.403l-0.147,0.736v0.441h-0.442v-0.295H78.53c0,0.295,0.185,0.441,0.553,0.441l0.147,0.148v0.146
		c-0.712,2.111-1.964,3.696-3.757,4.752c-1.204,1.547-3.328,2.32-6.373,2.32c-0.712,0-2.198-0.725-4.458-2.174
		c-1.302-1.521-2.32-2.873-3.058-4.053v-0.295l0.147-0.441h-0.147c-0.196,0-0.626-0.958-1.289-2.872l0.147-0.147l-0.737-0.885
		l-0.737-3.021l-0.258-1.73l0.111-0.146v-0.146c0-1.426-0.86-2.825-2.579-4.2l-0.442-0.59l2.026-2.431l0.442-2.47l-0.147-0.146
		c0.098-1.153,0.245-1.83,0.442-2.026l-0.147-0.59l0.295-0.589l-0.147-0.405c0.884-4.125,1.695-6.691,2.431-7.699
		c0.074-0.564,0.271-0.848,0.589-0.848v-0.294c0-0.713,0.344-1.29,1.031-1.731c0.271-1.104,1.228-2.024,2.874-2.762
		c0.098-0.32,0.626-0.603,1.584-0.849C67.073,4.518,67.896,4.271,69.542,4.271z M60.59,37.684v0.441l0.552-0.295l-0.147-0.146
		v-0.147L60.59,37.684z M62.174,36.54c-0.197,0.442-0.393,0.688-0.589,0.737V37.13l-0.442,0.147v0.258l0.147-0.111h0.294
		l0.147,0.111h0.147c0-0.368,0.246-0.602,0.736-0.699v-0.148L62.174,36.54z M62.469,10.35h0.257v-0.295
		c0.295,0,0.442-0.098,0.442-0.293h-0.147L62.469,10.35z M64.053,35.104c0,0.246-0.294,0.479-0.884,0.699v0.295l1.032-0.848v-0.146
		H64.053L64.053,35.104z M64.053,8.324l-0.147,0.146v0.146h0.147l0.442-0.146V8.324H64.053z M64.347,35.95L64.2,36.393h0.994v-0.146
		l-0.552-0.296H64.347z M65.784,36.1l-0.147,0.146v0.146l0.737,0.295h0.147V36.54L65.784,36.1z M70.131,8.618l-0.147,0.147v0.146
		h0.442L70.131,8.618z M70.683,8.176l-0.11,0.148v0.294h0.11l0.147-0.442H70.683z M70.683,7.734v0.146h0.589V7.734H70.683z
		 M72.451,6.297v0.441h0.148l0.11-0.441H72.451z M73.741,6.297v0.146h0.148c0-0.293,0.147-0.44,0.442-0.44l0.147-0.442h-0.147
		C74.134,5.609,73.937,5.855,73.741,6.297z M73.889,10.202v0.147l0.7,0.293V10.35l-0.553-0.147H73.889z M74.883,12.081v0.295h0.442
		v-0.147L74.883,12.081z M75.473,39.154v0.147h0.441v-0.294L75.473,39.154z M75.767,11.934l0.589,0.885v0.146h0.257l-0.11-0.146
		V12.67l0.11-0.146v-0.146C76.368,12.376,76.086,12.229,75.767,11.934z M76.061,39.708v0.147l0.443,0.147v-0.296L76.061,39.708
		L76.061,39.708z M76.614,39.855v0.295h0.737v-0.146L76.614,39.855z M76.762,13.111v0.259h0.294c0,0.295,0.147,0.442,0.442,0.442
		v0.295h0.295l-0.737-0.996H76.762z M78.641,14.4v0.591h0.295c0.196,0,0.294-0.147,0.294-0.441V14.4h-0.147v0.295h-0.295V14.4
		H78.641z"/>
	<path fill="#FFFFFF" d="M104.537,4.05h0.148c0,0.197,0.146,0.296,0.441,0.296l0.147,4.053c0,0.711-0.294,1.289-0.884,1.73
		l0.148-0.146h0.148l0.146,0.146h0.147V9.688l0.293,0.295l-0.146,1.178l0.146,3.609v2.469c0,0.785-0.195,1.18-0.587,1.18
		l-1.143-0.148l-0.589,0.148l-1.142-0.148l-1.179,0.148l-0.147-1.327l0.147-1.729l-0.147-0.59l0.442-0.848
		c-0.295-0.099-0.442-0.395-0.442-0.885l0.147-1.031c0-0.884-1.117-1.792-3.352-2.726l-0.847-0.147
		c-1.989,0-3.242,0.381-3.757,1.143h-0.147c-0.197,3.88-0.393,6.055-0.589,6.521c0.221,0,0.368,0.345,0.442,1.032l-0.295,1.583
		l0.295,0.295l-0.147,0.147l0.147,0.146v0.146l-0.147,0.848c0,1.179,0.331,1.77,0.994,1.77l1.179-0.441l1.584,0.294
		c0.859-0.246,1.289-1.021,1.289-2.321c0-0.564-0.332-1.104-0.995-1.619v-0.259h0.147c1.94,0.517,2.91,1.375,2.91,2.578l0.148,0.59
		v0.146c0,1.328-0.294,2.299-0.884,2.912c0,0.465,0.197,0.698,0.59,0.698l0.405,1.916c-0.467,2.015-1.474,3.021-3.021,3.021
		l-0.737,0.147v-0.147c0.884-0.907,1.327-1.633,1.327-2.174c0-0.246-0.541-0.44-1.621-0.588h-0.442l-0.995,0.146l-0.147-0.146v-0.11
		c-1.252,0.073-1.879,0.356-1.879,0.848l0.295,0.588l-0.147,3.022l0.147,0.146v0.147l-0.295,1.178v0.443h0.295v0.847l-0.295,0.885
		l0.148,0.146v0.147l-0.148,0.994l0.148,1.62h-0.148l0.442,1.289l-0.294,0.296l0.147,0.441l-0.147,0.146v0.146l0.294,0.701
		l-0.294,0.293c0.368,0.442,0.552,0.922,0.552,1.438l2.062,0.59c1.695,0,3.573-0.871,5.636-2.615l0.147-1.584l-0.147-0.146v-0.146
		l0.147-1.731l-0.147-0.147v-0.146l0.295-0.883l-0.295-1.144l0.295-0.295l-0.295-0.44v-0.406l0.147-0.147v-0.146l1.584,0.294
		l0.442-0.294l1.473,0.146h0.847l0.147,0.147h0.147l-0.294,0.848v0.146l0.294,1.18v0.404l-0.294,1.18l0.294,0.847v0.442
		c-0.196,0.393-0.491,0.589-0.884,0.589v0.296l0.737-0.443l0.147,1.032v0.552c-0.049,1.058-1.646,2.947-4.79,5.674
		c-2.407,1.154-3.954,1.731-4.642,1.731l-0.147-0.147l-0.7,0.147h-0.59c-2.48,0-4.47-0.725-5.968-2.174
		c-0.712,0.688-1.24,1.03-1.583,1.03h-0.737c-1.399,0-3.033-0.772-4.899-2.319l-0.294-0.295l-0.442-0.59l0.147-0.146
		c0.909,0.588,1.535,0.883,1.879,0.883h0.737c0.859-0.394,1.29-1.03,1.29-1.914l-0.148-0.554l0.295-0.295l-0.295-0.735l0.148-0.996
		l-0.148-1.178l0.295-0.295l-0.442-0.443l0.147-1.877l-0.147-0.405l0.147-1.326v-0.59l0.148-0.147l-0.295-0.552l0.147-2.321v-0.59
		l-0.147-0.884l0.295-0.552c-0.197,0-0.295-0.147-0.295-0.443l0.147-1.031L84.09,27.52h0.295v-0.111c-0.54,0-1.019-0.541-1.437-1.62
		l0.295-0.296l-0.148-0.146h-1.031v-0.146l2.173-2.727v-1.474l0.147-0.847l-0.147-0.442l0.295-1.731
		c-0.197,0-0.295-0.146-0.295-0.44l0.147-2.026l-0.147-0.146v-0.147l0.295-1.142l-0.295-0.59l0.147-1.031
		C84.31,9.852,84.212,8.55,84.089,8.55l-2.32-0.735l-1.437,1.03h-0.147V8.697c0-1.227,1.449-2.479,4.347-3.758h1.326
		c0.835,0,1.608,0.432,2.32,1.291c2.137-1.254,3.586-1.879,4.347-1.879l2.026,0.146l1.584-0.295c0,0.246,0.626,0.394,1.879,0.441
		l4.052,1.731C102.609,6.371,103.431,5.598,104.537,4.05z M84.976,24.494l-0.147,0.148v0.146h0.147l0.442-0.146v-0.148H84.976z
		 M84.976,26.816v0.146h0.442v-0.295L84.976,26.816z M85.418,7.255L85.271,7.66v0.146h0.147l0.294-0.295V7.402l0.147,0.109h0.552
		V7.402l-0.7-0.147l-0.147,0.147L85.418,7.255z M87.886,23.169c-0.172,0.394-0.516,0.59-1.031,0.59v0.296l1.437-0.738V23.17
		L87.886,23.169L87.886,23.169z M86.855,25.342h0.147l0.589-0.258v-0.146h-0.147C87.052,25.084,86.855,25.221,86.855,25.342z
		 M89.175,22.469v0.295l0.442-0.146v-0.295L89.175,22.469z M89.765,22.174l0.294,0.295h0.553l-0.258-0.295H89.765z M90.612,21.438
		v0.147h0.442V21.29L90.612,21.438z M90.907,5.34c0,0.196,0.147,0.294,0.442,0.294h0.147V5.488L90.907,5.34z M91.054,20.59v0.146
		l0.295,0.259l0.294-0.259l-0.441-0.146H91.054z M92.675,47.406v0.111l0.7-0.404v-0.147h-0.147L92.675,47.406z M93.669,6.812
		l0.295,0.295h0.147l-0.294-0.295H93.669z M93.669,46.818h0.148l0.294-0.297h-0.147L93.669,46.818z M95.549,45.639h0.147
		l0.295-0.293h-0.148L95.549,45.639z M96.285,7.956v0.146l0.885,0.295h0.11V8.25l-0.847-0.294H96.285L96.285,7.956z M97.575,43.908
		v0.146h0.147l0.884-0.295v-0.295L97.575,43.908z M97.869,23.169v0.146l0.589-0.698v-0.147L97.869,23.169z M98.9,43.466h0.147
		l0.294-0.295h-0.146L98.9,43.466z M99.49,9.98l0.7,0.59v-0.295L99.601,9.98H99.49L99.49,9.98z M100.042,42.766h0.147l0.442-0.44
		h-0.147L100.042,42.766z M101.222,13.48h0.146l0.295-0.295h-0.148L101.222,13.48z M101.516,41.882h0.148l0.258-0.295h-0.111
		L101.516,41.882z M102.658,40.852v0.293l0.442-0.146v-0.146H102.658L102.658,40.852z M103.689,40.15l-0.295,0.295v0.146h0.295
		l0.295-0.441H103.689L103.689,40.15z M103.542,13.775c0,0.197,0.43,0.43,1.289,0.699h0.147v-0.146L103.542,13.775z M104.131,10.423
		v0.442h0.257v-0.442H104.131z"/>
	<path fill="#FFFFFF" d="M120.229,0.734c2.851,0,5.207,1.719,7.072,5.156h-0.183c-0.786-0.638-1.56-0.957-2.321-0.957h-0.368
		c-1.448,0-2.284,0.773-2.506,2.32l0.222,1.512l-0.222,4.053l-0.366,0.367l0.184,0.185v0.185l-0.367,0.404l0.367,0.553l-0.184,0.959
		l0.366,0.404l-0.366,0.368l0.366,1.362l-0.366,0.959l0.366,0.367V19.3l-0.183,0.772l0.183,0.773v0.186l-0.366,0.589v0.187
		l1.141,3.24c0.443,0,1.205,0.712,2.285,2.137c-2.162,2.528-3.242,4.112-3.242,4.752l-0.184,1.18l0.366,1.51l-0.183,2.688
		l0.183,2.102l-0.366,0.404v0.186l0.366,0.553l-0.183,1.178l0.183,2.469v0.404l-0.366,0.554l0.366,0.405l-0.183,0.185v0.185
		l0.404,0.369v1.729c0,2.555,1.203,3.831,3.609,3.831c2.21,0,4.125-2.1,5.747-6.299l0.184-2.137l-0.368-1.143v-0.184h0.959v-0.369
		l-0.186,0.185h-0.221l-0.737-0.405l0.185-1.142l-0.185-3.427c0.074-0.786,0.259-1.18,0.553-1.18h0.958l0.405,0.405l0.184-0.185
		l1.915,0.185l3.059-0.405l0.185,0.223l-0.185,3.83v0.959l-0.403,0.367c0.393,1.498,0.588,3.095,0.588,4.789
		c-0.588,2.799-1.351,4.642-2.282,5.525c-1.426,2.432-2.641,3.646-3.647,3.646c0,0.613-1.019,1.068-3.058,1.362l-0.59-0.221
		c0,0.786-1.842,1.179-5.524,1.179c-1.769,0-4.004-0.771-6.705-2.32l-0.405,0.405l-0.184-0.221h-0.186l-1.326,0.405
		c-2.479,0-5.291-1.094-8.435-3.279l-0.185-0.184v-0.369h0.185l3.056,0.553c1.401-0.466,2.102-1.289,2.102-2.468
		c0-0.515,0.136-0.773,0.404-0.773l-0.185-0.958l0.368-0.552l-0.368-0.59v-0.773l0.185-0.958l-0.185-0.185h-0.221l0.221-1.915
		v-3.241l0.185-0.187l-0.185-0.588l-0.221-3.463l0.221-1.143l-0.221-0.958l0.221-1.511c0-1.203-0.957-2.737-2.873-4.604
		c1.597-1.769,2.679-3.426,3.241-4.973c-0.393-0.908-0.589-1.806-0.589-2.688l0.405-2.1l-0.405-2.321L111.609,13l-0.186-0.773
		v-0.186l0.186-0.184v-0.222l-0.405-0.368V8.984c-0.394-2.701-1.277-4.053-2.652-4.053h-0.405c-0.563,0-1.266,0.394-2.099,1.18
		l-0.185-0.223c0.541-1.447,1.498-2.591,2.873-3.425h0.186l0.773,0.368h0.183V2.646l-0.772-0.184
		c1.129-1.031,2.543-1.548,4.235-1.548c1.204,0,2.347,0.577,3.427,1.731C117.896,1.374,119.051,0.734,120.229,0.734z M111.425,3.424
		l0.368,0.368h0.186l-0.369-0.368H111.425z M112.936,3.977v0.405l0.59,0.185V4.198L112.936,3.977z M112.936,20.48v0.184l0.404-0.406
		v-0.184L112.936,20.48z M113.525,20.848h0.183l0.37-0.367h-0.186L113.525,20.848z M114.299,18.934l-0.404,0.588h0.404l0.184-0.588
		H114.299z M114.078,49.176h0.221l0.368-0.367h-0.185L114.078,49.176z M114.852,4.934v0.223l0.59,0.185V4.936h-0.59V4.934z
		 M115.035,48.586l-0.186,0.223v0.184h0.186l0.59-0.184v-0.223H115.035z M115.993,48.439l-0.185,0.146v0.222h0.588L115.993,48.439z
		 M115.993,5.34v0.184h0.772V5.34H115.993z M116.177,17.018v0.185l0.591-0.554h-0.186L116.177,17.018z M116.95,18.343v0.222
		l0.59-0.59h-0.185L116.95,18.343z M117.136,48.033v0.185h0.404l0.552-0.185V47.85h-0.367L117.136,48.033z M117.725,16.061v0.184
		l0.367-0.368v-0.185L117.725,16.061z M118.498,47.48v0.186h0.186c0.981-0.172,1.877-0.553,2.688-1.145h-0.185
		C119.861,47.162,118.964,47.48,118.498,47.48z M119.824,14.145h0.184l0.405-0.369h-0.185L119.824,14.145z M128.443,51.864
		l0.368,0.368h0.185l-0.368-0.368H128.443z M129.77,52.417l0.405,0.405h0.187l-0.405-0.405H129.77z M132.091,53.596v0.186
		l1.326,0.185v-0.368h-1.326V53.596z M133.784,37.498v0.404l0.59-0.221v-0.185L133.784,37.498L133.784,37.498z M135.147,39.818
		v0.367c1.253-0.465,1.952-0.906,2.101-1.324h-0.185C136.376,39.499,135.737,39.818,135.147,39.818z M137.433,37.684v0.221
		l0.369-0.405v-0.185L137.433,37.684z"/>
	<path fill="#FFFFFF" d="M144.983,4.418c0.541,0,1.303,0.455,2.283,1.363c0.64-0.811,1.241-1.217,1.806-1.217
		c3.291,0,5.416,1.267,6.373,3.795l-2.138-0.59c-1.398,0.123-2.1,0.528-2.1,1.217l0.148,3.941v0.885l-0.148,1.215l0.148,1.216
		l-0.148,1.069l0.148,1.362v3.498l2.43,3.021v0.296C153.074,26.496,152.51,27,152.092,27l0.187,0.184v0.147
		c-0.614,0.541-0.972,1.239-1.069,2.101l0.148,2.873v2.578h-0.297v1.4l0.147,0.884l-0.147,0.146v0.148l0.297,1.842l-0.148,3.498
		l0.148,0.443l-0.148,0.589c1.057,1.229,1.756,1.843,2.1,1.843c0.591,0,1.252-0.259,1.989-0.773h0.147
		c0,1.154-1.117,2.062-3.354,2.727l-0.146-0.146h-0.146c-0.884,0.711-1.585,1.067-2.1,1.067c-1.057,0-1.915-0.405-2.579-1.216
		c0,0.441-0.859,0.699-2.577,0.773c-2.48-0.441-4.2-1.205-5.159-2.283l-0.772-0.922l0.146-0.147l1.843,0.922
		c1.597-0.491,2.395-1.253,2.395-2.284l-0.146-0.146v-0.921l0.332-0.442l-0.332-1.216l0.146-0.147l-0.146-1.842v-0.295
		c0-3.094,0.11-5.219,0.332-6.372l-0.332-0.884l0.146-0.922l-0.146-1.51v-0.479l-2.247-2.873c1.597-1.989,2.395-3.303,2.395-3.94
		l0.186-2.726l-0.332-1.362v-0.443l0.479-4.125c-0.343,0-0.552-0.959-0.626-2.874l0.147-0.442c0-0.908-0.749-1.521-2.247-1.841
		h-0.185c-0.614,0-1.168,0.259-1.658,0.772V8.066c0.935-1.646,2.604-2.86,5.012-3.646h1.212V4.418z M143.769,8.654
		c0,0.222,0.146,0.332,0.441,0.332h0.146V8.801L143.769,8.654z M143.769,28.693v0.146h0.296l0.479-0.626v-0.147l-0.628,0.627
		H143.769L143.769,28.693z M144.543,27.773v0.146h0.293l0.442-0.59v-0.146c-0.148,0-0.295,0.196-0.442,0.59H144.543z
		 M145.573,28.988v0.147h0.626V28.84L145.573,28.988z M145.905,25.968l-0.147,0.442h0.294v-0.442H145.905z M146.642,24.752
		l-0.295,0.59v0.295h0.146l0.296-0.736v-0.147L146.642,24.752L146.642,24.752z M146.493,8.359v0.147l1.069-0.147V8.213h-0.628
		L146.493,8.359z M147.268,40.814v0.146l0.59,0.147c0-0.196-0.147-0.295-0.441-0.295h-0.148V40.814z M147.562,39.745v0.295h0.441
		v-0.147L147.562,39.745z M147.856,22.911l-0.147,0.479h0.296v-0.479H147.856z M147.856,8.064l0.296,0.295h0.146V8.064H147.856z
		 M148.152,22.322l-0.147,0.441h0.294l0.185-0.441H148.152z M148.482,40.225v0.147l0.59,0.146h0.146v-0.146l-0.589-0.147H148.482z
		 M148.631,21.548v0.147l0.295-0.295v-0.147L148.631,21.548z M148.778,7.771v0.293l0.589-0.146V7.771H148.778L148.778,7.771z
		 M148.778,26.705v0.146l0.44-0.441h-0.146L148.778,26.705z M148.778,41.587v0.295l0.589,0.147L148.778,41.587z M149.367,20.186
		l-0.147,0.479v0.146h0.147l0.332-0.627h-0.332V20.186z M149.699,19.264v0.332l0.441-0.146v-0.331L149.699,19.264z M149.699,40.666
		v0.295h0.735l0.147,0.146h0.146v-0.293h-0.734l-0.148-0.148H149.699z"/>
	<path fill="#FFFFFF" d="M169.665,4.492l0.884,0.146l0.147-0.146h0.146l0.736,0.146l0.59-0.146c2.16,0.492,3.242,0.885,3.242,1.179
		l0.146-0.147h0.294c0.418,0,1.353,0.541,2.802,1.621h0.146c0-0.244,0.195-0.393,0.589-0.44c0-0.197,0.196-0.295,0.589-0.295
		c0-0.468,0.442-1.056,1.326-1.769l0.147,0.146l-0.147,1.029l0.147,0.592l-0.147,0.146l0.147,1.031v1.031
		c-0.491-0.196-1.229-0.294-2.21-0.294l0.146,0.44l2.062,0.295l-0.147,0.736l0.147,2.652l-0.147,2.21l0.147,0.885l-0.147,1.769
		v0.441l-0.146,0.146l0.146,0.441l-0.146,0.737h0.295v0.294l-0.295,0.296l-0.146-0.147h-0.147l-0.885,0.147l-0.146-0.147h-0.146
		l-0.59,0.147H178.8l-0.146-0.147l-0.147,0.147h-0.146l-0.147-0.147l-0.146,0.147h-0.296l-0.295-0.296v-0.589l0.147-0.589
		l-0.147-0.147V17.9l0.147-0.146v-0.148l-0.147-0.146v-0.146l0.147-0.148V17.02l-0.147-0.59l0.147-0.147v-0.146l-0.147-0.886
		l0.147-1.03c-0.196-0.662-0.835-1.742-1.915-3.24c0-0.197-0.147-0.297-0.442-0.297c0-0.195-0.195-0.295-0.589-0.295
		c0-0.393-0.295-0.589-0.884-0.589V9.505h-0.295v0.147l-1.622-0.295l-0.147,0.146h-0.146l-0.59-0.146l-0.59,0.146V9.357
		c-1.57,0.516-2.357,1.352-2.357,2.506l-0.294,1.326l0.147,0.44l-0.296,1.474l0.147,0.442l-0.147,0.44l0.147,1.328v0.293
		l-0.295,0.442v0.147c0.295,0,0.441,0.098,0.441,0.294v0.295l-0.146,1.621l0.146,0.147V20.7l-0.146,0.147v0.146l0.146,1.621v0.295
		l-0.146,0.146v0.147h0.146l0.296-0.295l2.799,0.295c1.376-0.196,2.063-0.54,2.063-1.032c0-0.835-0.492-1.619-1.475-2.357v-0.146
		h0.146c0.346,0,0.886,0.245,1.621,0.736c0.614,0,1.304,0.981,2.064,2.946l-0.296,0.295l0.296,0.736
		c-0.173,0.811-0.369,1.252-0.59,1.325c0.393,0.64,0.59,1.276,0.59,1.917c0,1.301-1.13,2.332-3.392,3.093h-0.44v-0.294
		c0.491,0,0.933-0.54,1.327-1.621c-0.541-0.49-0.982-0.736-1.327-0.736l-0.59,0.295l-0.146-0.147v-0.147l-1.621,0.297v-0.148
		l-0.146,0.148h-0.295l-0.147-0.148l-0.736,0.148v0.295l-0.146,1.473l0.146,0.59l-0.295,1.473h0.295v0.147l-0.146,5.896l0.146,1.621
		l-0.146,0.735l0.146,0.589l-0.146,1.18c0,1.67,0.54,2.75,1.621,3.242l0.884,0.295h0.442c0.638,0,1.474-0.344,2.504-1.031h0.146
		v0.146c0,0.885-1.178,1.865-3.535,2.946v-0.147l-0.146,0.147h-0.148l-0.588-0.294v0.146l0.146,0.441h-0.146l-1.621,0.146h-1.474
		c-0.491,0-1.129-0.344-1.916-1.031c-0.884,0.785-1.622,1.18-2.209,1.18h-0.296c-1.057,0-2.48-0.541-4.273-1.621l-1.326-1.619V45.16
		h0.147l1.769,0.736c1.375,0,2.062-0.541,2.062-1.621l0.146-1.179l-0.146-0.737l0.146-0.146v-0.147l-0.146-0.441l0.146-0.441
		l-0.295-1.769l0.295-0.737l-0.295-3.389l0.147-2.21l-0.147-0.441h0.147l-0.147-0.147v-0.295l0.295-0.295l-0.295-1.03l0.147-1.181
		c0-1.373-0.786-2.603-2.357-3.683v-0.147l2.357-2.799l-0.147-1.475v-1.18l0.147-0.885l-0.147-0.588l0.147-1.033l-0.147-0.146
		l0.295-0.295v-0.146l-0.295-0.443v-0.146c0-0.688,0.1-1.229,0.295-1.621l-0.146-0.59c0.295,0,0.442-0.099,0.442-0.294
		c-0.394,0-0.591-0.147-0.591-0.442l0.147-0.146v-0.146l-0.147-0.146v-0.146l0.147-0.148v-0.146l-0.147-0.736l0.147-0.59
		l-0.294-1.473l0.146-0.443l-0.146-0.44l0.146-0.147l-0.146-0.147c-0.492-0.271-0.737-0.515-0.737-0.735h-0.884
		c-0.688,0-1.474,0.49-2.357,1.473l-0.146-0.146c0.908-2.16,2.137-3.535,3.683-4.125c1.007-0.295,1.892-0.443,2.654-0.443
		c0.539,0,1.374,0.541,2.503,1.623c1.057-0.983,1.892-1.475,2.506-1.475l0.147,0.146C166.865,4.859,167.799,4.615,169.665,4.492z
		 M159.939,45.75v0.146h0.735v-0.441h-0.146L159.939,45.75z M161.118,6.113v0.146l0.295,0.296l0.737,0.295V6.703l-0.886-0.59
		H161.118z M161.56,12.893l-0.294,0.588h0.147l0.737-0.588H161.56z M161.266,37.203l0.443,0.443v-0.148l-0.296-0.295H161.266
		L161.266,37.203z M161.413,12.449v0.146h0.442v-0.294L161.413,12.449z M162.15,37.793v0.296h0.294c0,0.293,0.099,0.44,0.295,0.44
		l0.146-0.147v-0.146L162.15,37.793z M162.296,6.703c0,0.195,0.198,0.294,0.59,0.294l0.148,0.147v0.146l-0.148,0.146h0.442
		l0.147-0.441L162.296,6.703z M162.296,45.75l0.297,0.295l0.588-0.146v-0.147L162.296,45.75L162.296,45.75z M162.444,12.596h0.44
		v-0.441L162.444,12.596z M163.328,11.859v0.295c0.466,0,1.155-0.441,2.062-1.326v-0.146
		C164.729,11.246,164.041,11.639,163.328,11.859z M163.328,38.973v0.295c0.59,0.123,0.884,0.367,0.884,0.736h0.296v-0.146
		l-1.031-0.885H163.328z M164.36,24.826v0.146l0.735,0.146h0.147l0.295-0.294l-0.737-0.147L164.36,24.826z M164.654,41.33v0.146
		l0.59,1.178h0.146v-0.735c-0.195,0-0.295-0.196-0.295-0.589H164.654z M165.392,40.298v0.295h0.442l-0.147,0.147v0.146l-0.59-0.295
		h-0.146v0.147c0.884,0.172,1.325,0.466,1.325,0.884h0.59L165.392,40.298z M167.454,9.208v0.146l0.295,0.442l-1.474,0.295
		l0.146,0.147v0.294h-0.146l-0.147-0.147l-0.589,0.442h0.295c0.588-0.099,0.884-0.245,0.884-0.442l-0.146-0.146l0.44-0.146
		l0.442,0.146c0-0.196,0.146-0.295,0.442-0.295l0.884-0.59V9.208l-0.147-0.147V8.913l0.147-0.146h-0.147L167.454,9.208z
		 M165.688,24.826h0.146l0.588-0.441h-0.146C165.882,24.532,165.688,24.68,165.688,24.826z M166.128,7.438
		c0,0.197,0.147,0.297,0.442,0.297h0.146V7.587L166.128,7.438z M166.275,43.245v0.442h0.295l-0.148-0.442H166.275z M166.718,24.236
		h0.294l0.442-0.441v-0.146C167.012,23.844,166.767,24.04,166.718,24.236z M166.718,44.275v0.295l0.147,0.146h0.146l-0.146-0.441
		H166.718z M167.012,7.734v0.146l0.737,0.146h0.147V7.881l-0.59-0.146H167.012z M167.602,46.191v0.147
		c0.222,0,0.614,0.394,1.18,1.179h0.147c-0.541-0.885-0.935-1.326-1.18-1.326H167.602z M168.929,8.912v0.296h0.441V8.766
		L168.929,8.912z M170.844,8.176l-0.59-0.146l-1.031,0.441v0.147l1.031,0.147l0.295-0.591l0.147,0.148h0.294
		c0.688-0.345,1.031-0.591,1.031-0.737h-0.147L170.844,8.176z M170.549,46.34l-0.295,0.736l0.146,0.146h0.147l0.295-0.441
		l-0.146-0.147l0.146-0.147l-0.146-0.146L170.549,46.34L170.549,46.34z M172.316,7.292h0.146l0.294-0.295h-0.146L172.316,7.292z
		 M173.496,7.438c0,0.197-0.148,0.297-0.441,0.297v0.146h0.885L173.496,7.438z M174.527,5.816l-0.295,0.442h0.295l0.295-0.293V5.816
		H174.527z M174.97,7.734l-0.146,0.44h0.735L174.97,7.734z M176,8.027v0.147l3.095,0.442V8.323c-1.67,0-2.505-0.148-2.505-0.442
		L176,8.027z"/>
	<path fill="#FFFFFF" d="M206.317,4.05h0.146c0,0.197,0.147,0.296,0.442,0.296l0.146,4.053c0,0.711-0.296,1.289-0.884,1.73
		l0.146-0.146h0.146l0.147,0.146h0.146V9.688l0.296,0.295l-0.146,1.178l0.146,3.609v2.469c0,0.785-0.197,1.18-0.59,1.18
		l-1.143-0.148l-0.589,0.148l-1.143-0.148l-1.179,0.148l-0.147-1.327l0.147-1.729l-0.147-0.59l0.442-0.848
		c-0.295-0.099-0.442-0.395-0.442-0.885l0.147-1.031c0-0.884-1.118-1.792-3.354-2.726l-0.848-0.147
		c-1.989,0-3.241,0.381-3.757,1.143h-0.148c-0.196,3.88-0.392,6.055-0.589,6.521c0.223,0,0.369,0.345,0.442,1.032l-0.295,1.583
		l0.295,0.295l-0.147,0.147l0.147,0.146v0.146l-0.147,0.848c0,1.179,0.332,1.77,0.994,1.77l1.179-0.441l1.585,0.294
		c0.858-0.246,1.289-1.021,1.289-2.321c0-0.564-0.331-1.104-0.994-1.619v-0.259h0.146c1.939,0.517,2.911,1.375,2.911,2.578
		l0.146,0.59v0.146c0,1.328-0.293,2.299-0.884,2.912c0,0.465,0.197,0.698,0.591,0.698l0.404,1.916
		c-0.466,2.015-1.474,3.021-3.021,3.021l-0.735,0.147v-0.147c0.884-0.907,1.326-1.633,1.326-2.174c0-0.246-0.541-0.44-1.621-0.588
		h-0.442l-0.995,0.146l-0.146-0.146v-0.11c-1.253,0.073-1.88,0.356-1.88,0.848l0.295,0.588l-0.147,3.022l0.147,0.146v0.147
		l-0.295,1.178v0.443h0.295v0.847l-0.295,0.885l0.146,0.146v0.147l-0.146,0.994l0.146,1.62h-0.146l0.44,1.289l-0.294,0.296
		l0.147,0.441l-0.147,0.146v0.146l0.294,0.701l-0.294,0.293c0.369,0.442,0.553,0.922,0.553,1.438l2.063,0.59
		c1.695,0,3.573-0.871,5.636-2.615l0.147-1.584l-0.147-0.146v-0.146l0.147-1.731l-0.147-0.147v-0.146l0.295-0.883l-0.295-1.144
		l0.295-0.295l-0.295-0.44v-0.406l0.147-0.147v-0.146l1.583,0.294l0.441-0.294l1.476,0.146h0.846l0.148,0.147h0.146l-0.296,0.848
		v0.146l0.296,1.18v0.404l-0.296,1.18l0.296,0.847v0.442c-0.197,0.393-0.492,0.589-0.884,0.589v0.296l0.736-0.443l0.146,1.032v0.552
		c-0.05,1.058-1.646,2.947-4.789,5.674c-2.407,1.154-3.954,1.731-4.642,1.731l-0.147-0.147l-0.7,0.147h-0.59
		c-2.479,0-4.468-0.725-5.966-2.174c-0.714,0.688-1.241,1.03-1.585,1.03h-0.737c-1.397,0-3.03-0.772-4.897-2.319l-0.295-0.295
		l-0.442-0.59l0.147-0.146c0.908,0.588,1.534,0.883,1.879,0.883h0.735c0.86-0.394,1.29-1.03,1.29-1.914l-0.146-0.554l0.294-0.295
		l-0.294-0.735l0.146-0.996l-0.146-1.178l0.294-0.295l-0.441-0.443l0.147-1.877l-0.147-0.405l0.147-1.326v-0.59l0.146-0.147
		l-0.295-0.552l0.147-2.321v-0.59l-0.147-0.884l0.295-0.552c-0.195,0-0.295-0.147-0.295-0.443l0.147-1.031l-0.294-0.293h0.294
		v-0.111c-0.541,0-1.02-0.541-1.438-1.62l0.294-0.296l-0.146-0.146h-1.031v-0.146l2.174-2.727v-1.474l0.147-0.847l-0.147-0.442
		l0.295-1.731c-0.195,0-0.295-0.146-0.295-0.44l0.147-2.026l-0.147-0.146v-0.147l0.295-1.142l-0.295-0.59l0.147-1.031
		c-0.074-2.604-0.172-3.905-0.294-3.905l-2.322-0.735l-1.436,1.03h-0.148V8.697c0-1.227,1.449-2.479,4.348-3.758h1.326
		c0.835,0,1.608,0.432,2.32,1.291c2.137-1.254,3.585-1.879,4.346-1.879l2.027,0.146l1.583-0.295c0,0.246,0.627,0.394,1.879,0.441
		l4.052,1.731C204.39,6.371,205.212,5.598,206.317,4.05z M186.756,24.494l-0.146,0.148v0.146h0.146l0.443-0.146v-0.148H186.756z
		 M186.756,26.816v0.146h0.443v-0.295L186.756,26.816z M187.199,7.255l-0.147,0.405v0.146h0.147l0.295-0.295V7.402l0.146,0.109
		h0.553V7.402l-0.699-0.147l-0.147,0.147L187.199,7.255z M189.667,23.169c-0.171,0.394-0.516,0.59-1.031,0.59v0.296l1.438-0.738
		V23.17L189.667,23.169L189.667,23.169z M188.636,25.342h0.147l0.589-0.258v-0.146h-0.147
		C188.832,25.084,188.636,25.221,188.636,25.342z M190.957,22.469v0.295l0.441-0.146v-0.295L190.957,22.469z M191.546,22.174
		l0.295,0.295h0.552l-0.257-0.295H191.546z M192.393,21.438v0.147h0.443V21.29L192.393,21.438z M192.688,5.34
		c0,0.196,0.148,0.294,0.442,0.294h0.147V5.488L192.688,5.34z M192.836,20.59v0.146l0.294,0.259l0.294-0.259l-0.44-0.146H192.836z
		 M194.456,47.406v0.111l0.7-0.404v-0.147h-0.148L194.456,47.406z M195.451,6.812l0.295,0.295h0.146l-0.293-0.295H195.451z
		 M195.451,46.818h0.146l0.293-0.297h-0.146L195.451,46.818z M197.329,45.639h0.146l0.296-0.293h-0.147L197.329,45.639z
		 M198.066,7.956v0.146l0.884,0.295h0.109V8.25l-0.848-0.294H198.066L198.066,7.956z M199.354,43.908v0.146h0.147l0.884-0.295
		v-0.295L199.354,43.908z M199.65,23.169v0.146l0.59-0.698v-0.147L199.65,23.169z M200.681,43.466h0.147l0.296-0.295h-0.147
		L200.681,43.466z M201.27,9.98l0.701,0.59v-0.295l-0.59-0.295H201.27L201.27,9.98z M201.823,42.766h0.146l0.442-0.44h-0.147
		L201.823,42.766z M203.002,13.48h0.146l0.296-0.295h-0.147L203.002,13.48z M203.297,41.882h0.147l0.258-0.295h-0.11L203.297,41.882
		z M204.438,40.852v0.293l0.441-0.146v-0.146H204.438L204.438,40.852z M205.471,40.15l-0.296,0.295v0.146h0.296l0.293-0.441H205.471
		L205.471,40.15z M205.322,13.775c0,0.197,0.431,0.43,1.29,0.699h0.146v-0.146L205.322,13.775z M205.913,10.423v0.442h0.258v-0.442
		H205.913z"/>
</g>
</svg>
