<?xml version="1.0" encoding="utf-8"?>
<!-- Generator: Adobe Illustrator 22.0.1, SVG Export Plug-In . SVG Version: 6.00 Build 0)  -->
<svg version="1.1" id="Layer_1" xmlns="http://www.w3.org/2000/svg" xmlns:xlink="http://www.w3.org/1999/xlink" x="0px" y="0px"
	 viewBox="0 0 1027.3 749.3" style="enable-background:new 0 0 1027.3 749.3;" xml:space="preserve">
<style type="text/css">
	.st0{fill:#D37984;}
	.st1{fill:#BE1E2D;}
	.st2{fill:#393939;}
</style>
<title>sihouette</title>
<rect x="1.5" y="1.5" class="st0" width="1025.8" height="509.1"/>
<polygon class="st1" points="4.5,82.6 3,223.2 416.2,454.6 "/>
<polygon class="st1" points="551.4,457.8 619.8,3 485.2,1.5 "/>
<polygon class="st1" points="556.7,432 948.1,1.5 793.6,0 "/>
<polygon class="st1" points="174.3,5.1 495,487.4 327.8,2.9 "/>
<polygon class="st1" points="576.5,466.2 1027.2,284.8 1025.9,146.1 "/>
<path class="st2" d="M124.9,408.6c1.2-3.3,2.4-6.7,4.1-11.5l6.9-4.3l-3.9-1.1c2.9-4.9,6.8-10,9.2-15.7c2.8-6.4,2.4-14.6,11.5-16.6
	c0.5-0.1,0.9-1.3,1.1-2.1c5.6-16.5,13.9-32.3,13.3-50.4c0-2.4-0.6-4.9-1.7-7c-5-7.8-10.4-15.4-15.7-23l1.6-1.9l8.6,4
	c-1-7.5-2-14.9-3-22.3l3.5-0.6l5.1,19.6l1.4-0.2v-24.4l2.8-0.1l1.2,15.7l1,0.2c0.6-3.8,1.1-7.6,1.7-11.4l2.9-0.1
	c0.5,8.1,0.9,16.2,1.4,24.3l2.4,0.1c1-5.3,2-10.7,3.1-16l2,0v38.3c7.9-8.8,16.3-14.1,15.9-26c-0.4-10.9,6.1-19.5,12.7-27.5
	c1.1-1.4,4.7-2.2,6.2-1.4c2,1.3,3.2,3.5,3.3,5.8c-0.5,6.9-1.8,13.8-2.9,21.4c6.4,1.7,4.9,8.6,3.4,12.7c-1.8,4.6-7.1,7.8-11.2,11.9
	c1,1.8,2.9,3.8,3.2,6c0.4,2.8-0.1,5.6-1.4,8.1c-1.7,2.8-4.5,5-7.1,7.1c-4.9,4-7.7,8.6-6.7,15.2c0.2,1.6-0.7,3.5-1.3,5.9
	c18.1,5.4,28.5,16.9,26.2,37.6c3.6-14.9,7.2-29.8,10.9-44.6c0.4-1.7,1.6-4,3.1-4.6c13.2-4.8,14.6-16.9,16.9-27.9
	c2.1-10.6,2.5-21.6,3.7-32.4c0.1-1.2,1.3-2.3,2.7-4.5c0.3,4.8,0.5,8.3,0.7,12h16.4c1.4-6.5,2.9-13.7,4.4-20.8l1.5,0.1v35.3
	c6.5,1.8,10.5-10.4,19.3-2.6c-16.1,3.6-14.8,17.4-18.6,28.3l7.4-6.6l2.4,0.7c-10,9.5-6,17.8,0.3,26.2c1.2,1.6,0.3,4.7,0.7,7.1
	c0.4,1.9,0.9,4.8,2.2,5.2c6,2.2,5.4,5.9,5,11.2c-0.6,8.3,1,16.7,1.2,25.1c0.2,9.1-0.6,18.2-0.1,27.3c0.1,1.8,3.5,4.5,5.7,4.9
	c4.4,0.8,9,0.2,15.7,0.2c0.2-1,2.2-4.4,1.7-7.4c-1.6-9-1.6-17.2,1.6-26.2c2.9-7.9,1.7-17.2,4.2-25.3c1.5-4.8,5.9-9.6,10.2-12.5
	s10.2-3.5,15.5-4.3c9.4-1.5,11.7-5.9,6.9-14.2c-1.1-1.7-1.8-3.6-1.8-5.6l7,5.9l1.5-0.9c-1.7-3.9-3.5-7.8-6-13.5
	c3-0.2,6.1-1.3,8.4-0.3c2.4,1.2,4.2,3.3,5,5.9c2.6,9.2,6.3,18.2-0.2,28c-1.9,2.9,2.5,7.8,8.3,7.9c0,3,0.2,5.9,0.7,8.9
	c0.3,1.7,1.6,3.9,3,4.5c17.6,6.5,17.6,6.5,24,18.5c-0.6-13.5,3.6-26.6-4.5-38.8c-2.2-3.4-1.8-8.5-3-12.7
	c-4.5-15.6-18.1-22.7-29.9-31.3c-2.4-1.8-6.4-1.4-9.6-2l-0.4-2.3l16.5-2.3c-1.3-11.6-8.8-23.1-9.5-35.8l3.2-1
	c3.6,8.2,7.2,16.3,10.8,24.4l16.9-0.9c0.8-6.1,1.5-11.9,2.3-18.5c2.1,1.4,2.9,1.6,2.9,1.9c2.5,15,4.2,30.1,7.7,44.8
	c1.6,6.8,5.4,14.5,10.7,18.5c8.2,6.2,10.2,15.5,15.4,23.1c1.1,2,2.9,3.5,5,4.3c0.8-7.1,3.5-14.7,1.9-21.2
	c-1.5-6.2-7.6-11.3-12.2-17.6l6.1-10.4c-9.7-4.4-15.4-11.1-11.4-22.5h3.6c-1.5-7.2-3.2-14.2-4-21.3c-0.3-2.3,1.7-6.4,3.4-6.9
	c2.2-0.6,5.9,1,7.6,2.9c6.9,7.9,11.2,17,11.9,27.9c0.3,4.5,2.9,9.5,5.9,12.9c6.2,7.2,13.4,13.5,21.6,21.5c1.1-11,0.4-21.5,3.6-30.7
	s10.3-17.2,16.9-25.1c-1.4,4-2.7,8-4.8,14.2c7.9-6.9,7.5-19,19.8-18.7c-1.7,4.9-3.4,9.9-5.2,14.8l1,0.7l8.8-10l2.3,1.5
	c-3.9,6.2-7.8,12.5-11.9,19.1l11.6-2.1c-5.6,4.9-9,8.6-13,11.3c-12.7,8.7-12.8,8.5-12.4,24c10.2,8.1,17.5,17.9,19.2,29l17.3,14.3
	l7.6-2.9l1.5,1.7c-1,1.3-1.7,3.1-3,3.9c-9.2,5.8-11.1,13.2-10.3,23.9c1,14.7,9.9,25.4,16.1,38.2c5-2,7-4.8,3.9-10.5
	c-8.7-15.8-8.5-32.8-4.2-49.3c2.1-7.9,8.1-15.6,18.7-16.1c4.9-0.2,8.5-3.8,14.3-4c14.5-0.7,18.7,9.8,24.7,18.1
	c4.5,6.1,6.7,13.9,10.6,22.5c3-6.7,7.4-12.5,8.2-18.9c2.5-20.8,3.7-41.8,5.2-62.7c0.2-2.7-0.4-5.5-1.8-7.8
	c-4.3-6.7-9.1-13-13.8-19.4l1.4-1.9l7,2.5c-0.6-6.1-1.2-12.3-1.7-18.5l2.6-0.4l4.7,17l1-0.3v-21.5l2.3-0.2l2.2,14.8h0.7
	c0.4-3.4,0.7-6.9,1.1-10.3l2-0.1l1.6,21.7l2-0.1l3.1-14.6c0.2,45.6,5.5,91.5-10.7,135.8c6.5-2.9,12-5.1,17.1-7.9
	c1.5-0.8,2.7-3.4,3-5.3c2.4-20.8,4.4-41.6,6.9-62.3c1.5-12.1,4.5-24.1,5.4-36.2c1.6-20.9,2.3-41.9,2.6-62.9c0-3.2-3.5-7.9-6.7-9.6
	c-11.6-6.1-16.7-15.5-15.3-29.1l8.6,12.5c1.9-5.5,2.3-12.1,5.8-15.2s10-2.4,12.9-2.9c4.7,4.2,9.6,6.6,10.7,10.1
	c2.8,9.1,5.1,18.8,5.5,28.3c0.6,14.5-1.1,29.1-0.8,43.6c0.3,12.5,2.2,25,3.4,37.4c13.2,2.9,15.9,0.9,16.7-11.8
	c0.3-2.5,0.8-4.9,1.4-7.3c2.4-11,4.8-21.9,8.3-33.7c0.9,5.4,1.8,10.9,2.8,17l16.7,1.5l11.3-24.5l3.6,1.7
	c-3.5,11.7-7.1,23.4-10.8,35.7c5.9,1,13-3.1,17.3,4.2c-13.5,0-39.6,19.4-40.2,35.2c-0.5,14.9,4.6,30,7.1,45c1.5,9.4,8.1,18,5.8,26.7
	c3.4,1.9,7.3,3.4,10.1,6c6.5,6.1,11.2,3.9,15.4-8.2c-14.3-2.4-11-16.1-15.2-24.9c-3.3-6.8-4.9-16.1-3.1-23.2
	c1.5-5.8,8.7-10.9,14.5-14.7c5.4-3.5,12.3-4.9,18.8-1c0.5,0.3,0.9,0.8,1.4,0.9c15.5,0.6,20.2,9,21.2,23.9s9.3,29.2,4.8,44.9
	c-0.2,0.7,0.4,1.6,0.7,2.3c0.7,1.5,1.5,2.9,2.5,5l6.7-4.3c-7-20-6-41.2-9.2-61.6c-3.9-25.2,4.9-46.9,11.9-69.2
	c5.3-16.9,12-33.6,27.5-44.9c5.3-3.8,8.7-5.6,13.3-0.1c1.2,1.5,2.8,2.8,4.1,4.2c9.1,9.3,9,10.4-2.5,16.5c-6.5,3.5-9.8,7.9-5.9,15h16
	c0.2-3.4,0.5-7.1,0.7-10.9l1.9-0.1c0.3,3.1,0.6,6.2,1.1,9.2c2.3,16.1,1.7,33,11.5,47.3c1.2,1.8,2.4,5.2,3.7,5.3
	c8.6,0.3,7.9,6.7,9.2,12.3c1.6,6.7,3.5,13.4,5.9,19.9c4.1,11.5,5.7,12.3,17.3,10.5c1.9-0.3,3.9-0.5,6.3-0.9c-0.4-4.4-0.8-9.3-1.2-14
	c1.6-0.8,4.4-1.6,4.5-2.5c0.5-8,0.5-16,0.6-23.9c0-5.2-0.8-10.5-0.1-15.6c0.9-5.9,5.5-7.3,10.5-4.1c1.6,1,3.7,1.3,5.2,2.5
	c3.4,2.7,7.3,4.9,5,10.9c-2.5,6.6-3.7,13.9-5.6,21.4c1.8,0.2,4.2,1.4,5.3,0.6c7.5-4.9,16-3,23.2-1.8c6.1,1,13.6,6,16.5,11.3
	c9.1,16.9,10.3,35,2.6,53.2c-3.3,7.8-1.3,12.6,6.2,16.7c0.7,0.3,1.3,0.9,1.5,1.6c2.1,11.1,10.7,12.4,20.4,12.6
	c-2.2-11.5-6.6-23.4-6.2-35.1s5.6-23.3,10.7-34.6V511H0.2v-8.9c0-48-0.5-96.1,0.2-144.1c0.3-22.3,3.1-44.6,4.8-66.9
	c0-1.1,0.2-2.2,0.6-3.3c6.1-9.6,12.7-18.9,19.8-27.8l-5.3,15.9c8.2-5.8,7.6-20.1,22.1-19.9c-2,5.8-4.1,11.7-6.9,19.7l12.7-14.1
	l2.9,2.1l-14.7,21.7L47,283l1,1.9c-6.5,4.7-12.6,10-19.6,13.9c-5.7,3.2-8.3,7.1-7.9,13.3c0.5,10.6,1,21.3,1.7,31.9
	c0.1,1.2,0.5,3.1,1.4,3.5c15.4,8.1,16,23.5,18.8,37.8c1.2,5.9,2.4,11.8,3.6,17.7c7.7-3,14.6-5.5,21.2-8.5c1.7-0.8,3.2-3.3,3.7-5.3
	c2-8.3,3.6-16.8,5.4-25.2c3.2-14.5,6.4-29,9.5-43.5c0.3-1.3,0.9-3.2,0.3-4c-5.7-8.1-1.2-15.8-0.3-24c0.8-6.5-2.6-13.4-4-20.2
	c-0.7-3.7-3.4-7.2,1.7-10.9c3.7-2.8-2-13-6.4-15.1c-7.8-3.8-15.1-8.9-22.5-13.5c-0.7-0.4-1.6-1.7-1.4-1.9
	c4.1-5.5,7.8-11.4,12.8-15.9c1.6-1.5,7.7-0.5,9.9,1.4c11.6,10.2,21.4,20.9,24.6,37.5c3.3,17,12.2,33,16,50
	c2.3,10.5-0.2,22.1-0.8,33.1c-0.5,9.5-1.3,19-1.8,28.5c-0.1,0.8,0.1,1.6,0.7,2.3c12.8,11.2,6.9,27.2,10.6,40.8
	c-0.6,2.2-1.7,4.5-1.5,6.8c0.2,4.7,1.1,9.3,1.8,14.2l15.3-4.5C132.8,420.2,124.4,418,124.9,408.6z M839,285.5
	c-3.5,8.7-5.4,18.3-1.2,28.3c0.7,1.7,1.7,4.5,0.9,5.5c-6.1,8.2-1.3,15.9,0.2,23.9c3,16.4,5.7,32.8,8.5,49.3l3,1.5
	c3.8-4,7.6-8.1,11.5-12.1c1.2-1.4,2.7-2.6,4.4-3.3c6.4-2.3,9.3-6.8,8.5-13.3c-0.9-7.7-1.8-15.5-3.8-22.9
	C865.2,320.8,865,296.1,839,285.5z M277.5,311.9l-3.8-0.7c-4.1,15.3-8.3,30.5-12.6,46.5c6.9-0.5,11.7-1.3,16.5-1.2
	c8.9,0.2,9.2,0.2,6.6-9.3c-0.8-3.1-2.5-6-3.8-9c-2-4.8-5-9.5-5.8-14.5C274,320,276.4,315.9,277.5,311.9z M847.5,281.5
	c-0.4-8.8-0.8-15.7-1.1-22.5l-2.7-1.4c-1.8,2.2-4.2,4.1-5.4,6.6C834.8,271.6,839.2,276,847.5,281.5z M937.1,435.4l20-14.7l-9.4-3.8
	L937.1,435.4z M519.6,378.8l-4.8,0.7l2.1,14.4l2.7-0.4L519.6,378.8z"/>
<rect x="0.5" y="508.6" class="st2" width="1027.5" height="238.7"/>
</svg>
